<svg width="277" height="428" viewBox="0 0 277 428" fill="none" xmlns="http://www.w3.org/2000/svg">
<path d="M223.122 271.918C219.221 253.959 212.231 238.221 196.758 227.468C177.343 214 151.847 215.333 128.15 217.692C120.663 218.434 97.5915 221 89.9523 221.999L89.3521 223.293C105.831 229.911 110.997 254.123 101.487 267.742C94.7425 277.4 80.8929 278.358 73.7021 274.844C84.9356 300.162 86.1017 337.362 88.453 364.261C89.5209 376.486 89.0254 393.637 99.9855 402.236C110.296 410.322 125.752 409.02 138.034 408.278C149.59 407.572 161.095 406.227 172.488 404.25C188.655 401.455 210.076 398.052 220.273 384.111C229.544 371.443 228.987 353.471 229.111 338.8C229.585 316.366 227.577 293.946 223.122 271.918Z" fill="#181A21"/>
<path d="M198.105 109.225C195.387 110.703 193.116 112.834 191.515 115.41C185.821 108.505 177.295 104.996 168.146 103.327C155.877 101.091 142.384 102.375 131.894 103.04C102.557 104.9 87.2589 107.787 86.2061 107.787C86.5307 109.647 88.2392 109.838 92.4977 116.994C95.5922 124.422 102.085 182.788 102.085 209.055C117.553 206.828 137.011 204.909 173.088 198.699C181.477 197.263 193.864 196.785 200.352 190.356C208.534 182.247 204.696 162.448 203.049 151.374C212.215 143.086 212.873 132.637 221.473 126.92C214.59 123.763 199.955 116.333 198.105 109.225Z" fill="#FCFCFC"/>
<path d="M171.74 155.112C162.583 154.138 153.316 154.921 144.477 157.415C136.385 159.535 129.037 163.708 123.206 169.497C115.218 177.405 120.643 189.13 137.288 179.999C143.663 176.937 150.781 172.292 162.303 172.087C174.69 171.868 187.328 175.951 188.67 167.93C189.601 162.356 179.352 156.166 171.74 155.112Z" fill="#E53E15"/>
<path d="M255.934 146.913C252.684 139.703 248.594 130.946 242.452 125.337C242.456 126.668 242.027 127.967 241.222 129.051C240.419 130.135 239.278 130.949 237.967 131.378C235.818 131.81 233.589 131.66 231.524 130.946C233.019 131.666 235.592 136.973 236.169 137.851C239.537 143.141 241.824 149 242.909 155.113C247.214 177.904 243.208 205.461 229.427 224.88L225.738 225.682C229.89 229.509 232.679 234.496 233.702 239.935C261.557 219.351 271.704 181.929 255.934 146.913Z" fill="#FCFCFC"/>
<path d="M228.365 129.939C225.952 129.118 223.571 127.927 221.318 126.92C220.568 128.214 219.092 131.963 218.471 133.249C216.284 137.696 215.208 142.572 215.325 147.49C215.475 148.925 215.767 151.534 217.422 152.235C219.511 153.121 220.867 149.791 221.318 148.497C223.654 142.238 226.988 136.366 231.204 131.091C230.161 130.659 229.258 130.244 228.365 129.939Z" fill="#FCFCFC"/>
<path d="M178.032 89.2317C174.438 90.2386 160.947 96.1348 166.199 101.742C169.599 105.011 176.326 100.161 179.83 98.5773C183.26 97.1251 187.075 96.7272 190.75 97.4385C194.423 98.1497 197.781 99.935 200.356 102.55C204.882 97.1704 209.71 96.426 214.857 96.4178C205.405 88.8728 189.516 86.3666 178.032 89.2317Z" fill="#FCFCFC"/>
<path d="M209.189 298.962C208.371 294.327 206.535 289.914 203.799 286.015C195.978 275.326 177.584 276.953 165.599 277.096C151.743 277.281 137.92 278.482 124.255 280.693C123.21 280.855 118.275 281.844 117.664 284.288C116.052 290.221 117.203 333.147 128.9 339.661C139.384 345.557 200.352 343.399 209.939 333.476C213.838 329.427 210.231 304.175 209.189 298.962Z" fill="#FCFCFC"/>
<path d="M61.6397 250.341C57.7281 250.47 53.8833 251.35 50.3328 252.933C46.782 254.514 43.598 256.762 40.9688 259.547C19.6978 277.24 8.93419 311.527 20.1463 336.658C25.0348 347.612 36.3558 360.35 49.6566 362.55C53.9839 363.414 58.4913 362.64 62.2398 360.393C76.2432 352.15 58.1714 343.781 52.9519 336.658C41.5818 321.15 41.6907 298.209 55.9418 283.722C62.259 277.301 71.7883 273.251 73.768 263.15C75.2074 255.823 68.982 250.413 61.6397 250.341Z" fill="#FCFCFC"/>
<path d="M42.9746 391.063C42.254 389.1 42.0189 387.004 42.2877 384.939C42.5564 382.876 43.3216 380.899 44.5229 379.168C43.737 378.411 42.2463 374.246 39.47 371.746C38.5709 371.026 36.7983 369.753 35.7262 370.883C32.9499 373.815 36.3242 380.089 37.9729 382.823C38.7631 384.381 39.769 385.829 40.9628 387.129C39.8715 387.831 24.0485 372.599 21.9406 381.808C20.892 385.979 24.4863 390.15 27.6321 392.597C34.0732 397.632 43.9612 399.213 52.0489 399.5L52.4419 399.071C48.3192 397.689 44.9218 394.816 42.9746 391.063Z" fill="#FCFCFC"/>
<path d="M241.995 119.438C238.311 104.367 213.9 87.2647 200.35 102.32C199.182 103.686 198.406 105.323 198.103 107.068C197.439 110.554 200.123 114.262 203.047 116.417C210.904 121.902 219.398 126.488 228.361 130.084C231.092 130.958 233.7 132.545 237.95 131.665C242.907 130.24 243.169 124.241 241.995 119.438Z" fill="#FFCB6C"/>
<path d="M212.487 219.269C206.133 218.139 199.602 218.286 193.311 219.701C187.897 220.971 187.972 221.024 187.32 222.29C208.036 231.33 217.469 248.745 222.373 269.76L223.571 269.473C237.995 261.737 241.239 224.168 212.487 219.269Z" fill="#FFCB6C"/>
<path d="M171.442 122.892C170.547 122.841 169.648 122.962 168.802 123.246C167.954 123.531 167.175 123.973 166.506 124.548C165.838 125.123 165.296 125.819 164.907 126.596C164.52 127.373 164.298 128.217 164.251 129.077C164.174 130.374 164.501 131.663 165.189 132.781C165.876 133.899 166.895 134.797 168.112 135.359C169.332 135.922 170.697 136.125 172.036 135.942C173.375 135.76 174.626 135.2 175.634 134.333C176.642 133.467 177.358 132.333 177.695 131.075C178.03 129.817 177.971 128.492 177.522 127.267C177.072 126.042 176.256 124.972 175.173 124.193C174.09 123.414 172.792 122.961 171.442 122.892Z" fill="#FFCB6C"/>
<path d="M142.231 19.171C140.881 19.0981 139.538 19.4117 138.374 20.0719C137.209 20.7321 136.274 21.7093 135.689 22.8798C135.103 24.0502 134.891 25.3613 135.082 26.6471C135.272 27.9329 135.855 29.1355 136.758 30.1027C137.66 31.0701 138.841 31.7583 140.151 32.0807C141.462 32.4029 142.842 32.3448 144.117 31.9134C145.394 31.4821 146.506 30.697 147.318 29.6574C148.127 28.618 148.599 27.3709 148.672 26.0741C148.764 24.3404 148.138 22.6423 146.931 21.3495C145.725 20.0567 144.036 19.2737 142.231 19.171Z" fill="#FFCB6C"/>
<path d="M117.216 129.795C116.32 129.745 115.423 129.866 114.577 130.151C113.73 130.435 112.95 130.877 112.282 131.452C111.614 132.027 111.07 132.723 110.683 133.5C110.296 134.277 110.072 135.12 110.025 135.98C109.945 137.713 110.576 139.407 111.782 140.698C112.989 141.99 114.674 142.775 116.477 142.885C117.373 142.935 118.27 142.815 119.117 142.53C119.964 142.246 120.744 141.804 121.412 141.229C122.08 140.654 122.624 139.958 123.011 139.181C123.398 138.404 123.621 137.561 123.668 136.7C123.748 134.967 123.117 133.273 121.91 131.982C120.704 130.691 119.019 129.906 117.216 129.795Z" fill="#FFCB6C"/>
<path d="M86.9831 222.513C69.7506 217.591 48.0119 233.145 51.0039 251.348L51.604 252.498C64.3816 246.656 75.6898 253.339 74.0731 263.142C73.473 266.819 71.6308 270.207 68.8301 272.781C70.167 273.911 89.5694 285.086 101.636 267.746C111.411 253.698 105.45 227.778 86.9831 222.513Z" fill="#FFCB6C"/>
<path d="M67.3339 352.185C68.2309 354.919 67.1716 357.632 62.3899 360.528C58.6457 362.788 54.1338 363.561 49.8067 362.686C49.228 367.138 50.3001 369.827 44.5637 379.092C43.0083 381.522 42.1317 384.297 42.018 387.148C41.8878 392.16 47.0475 397.32 52.504 399.088C62.2896 402.261 75.569 399.371 80.3656 391.319C89.7454 375.606 69.3201 352.185 67.3339 352.185Z" fill="#FFCB6C"/>
<path d="M169.105 103.596C168.447 103.622 167.792 103.508 167.187 103.263C166.581 103.018 166.038 102.647 165.598 102.176C165.02 101.62 164.605 100.926 164.4 100.164C164.197 99.4029 164.208 98.6028 164.434 97.8471C165.929 92.8369 175.916 89.0736 177.823 88.5404C188.766 85.8128 205.212 87.4084 215.515 95.7183C215.662 95.8422 215.754 96.0174 215.771 96.2056C215.786 96.3939 215.722 96.5805 215.596 96.7249C215.47 96.8695 215.288 96.9603 215.094 96.9782C214.897 96.9958 214.701 96.9388 214.549 96.8196C205.943 89.8653 190.325 86.8998 178.22 89.9165C175.066 90.8004 166.997 94.4571 165.876 98.2306C165.722 98.7636 165.724 99.3268 165.88 99.8592C166.034 100.392 166.337 100.874 166.756 101.254C167.125 101.661 167.625 101.94 168.178 102.045C171.394 102.822 176.896 99.0345 179.36 97.9189C182.598 96.472 186.199 95.9437 189.737 96.3966C193.278 96.8494 196.61 98.264 199.339 100.474C199.485 100.599 199.572 100.772 199.587 100.958C199.6 101.144 199.538 101.327 199.414 101.471C199.29 101.614 199.113 101.705 198.921 101.725C198.729 101.746 198.534 101.693 198.38 101.58C195.869 99.5493 192.809 98.2495 189.554 97.8332C186.301 97.4166 182.991 97.901 180.014 99.2294C177.739 100.255 172.894 103.596 169.105 103.596Z" fill="#181A21"/>
<path d="M190.716 115.023C192.418 112.406 194.72 110.198 197.447 108.567C197.674 108.491 197.919 108.497 198.141 108.583C198.282 108.652 198.395 108.761 198.468 108.896C198.541 109.03 198.566 109.184 198.543 109.333C198.519 109.483 198.447 109.622 198.338 109.729C198.227 109.838 198.084 109.909 197.928 109.935C195.621 111.424 193.644 113.335 192.108 115.56C192.033 115.738 191.89 115.879 191.707 115.954C191.523 116.029 191.316 116.031 191.132 115.96C190.948 115.889 190.799 115.75 190.722 115.574C190.643 115.399 190.641 115.2 190.716 115.023Z" fill="#181A21"/>
<path d="M196.531 124.851C197.843 121.38 199.878 118.203 202.511 115.513C202.682 115.413 202.885 115.383 203.079 115.427C203.274 115.472 203.44 115.589 203.545 115.752C203.647 115.915 203.679 116.111 203.632 116.297C203.588 116.483 203.466 116.644 203.295 116.744C201.023 119.222 199.229 122.069 197.994 125.152C197.943 125.328 197.824 125.479 197.659 125.573C197.497 125.668 197.302 125.699 197.117 125.661C196.929 125.622 196.764 125.517 196.657 125.367C196.549 125.216 196.504 125.032 196.531 124.851Z" fill="#181A21"/>
<path d="M200.944 140.991C200.013 135.78 205.817 123.698 211.425 121.239C211.605 121.16 211.812 121.152 211.998 121.219C212.184 121.285 212.335 121.42 212.418 121.593C212.5 121.766 212.508 121.964 212.438 122.142C212.369 122.321 212.228 122.466 212.049 122.545C207.009 124.758 201.584 136.056 202.419 140.748C202.441 140.932 202.39 141.116 202.274 141.263C202.159 141.411 201.99 141.51 201.8 141.541C201.612 141.572 201.418 141.532 201.258 141.43C201.097 141.328 200.986 141.17 200.944 140.991Z" fill="#181A21"/>
<path d="M233.886 239.135C262.076 217.306 270.467 181.217 255.242 147.198C251.398 138.829 247.661 131.374 241.32 125.269C241.179 125.133 241.098 124.948 241.098 124.756C241.098 124.564 241.179 124.379 241.32 124.243C241.461 124.107 241.653 124.031 241.854 124.031C242.055 124.031 242.247 124.107 242.388 124.243C248.902 130.513 252.675 138 256.624 146.614C272.127 181.248 263.573 217.999 234.841 240.245C234.687 240.361 234.492 240.415 234.298 240.394C234.104 240.374 233.924 240.281 233.8 240.136C233.674 239.992 233.615 239.806 233.632 239.619C233.647 239.432 233.739 239.258 233.886 239.135Z" fill="#181A21"/>
<path d="M53.2617 363.619C38.6497 363.619 25.3745 349.819 19.6126 337.079C8.76349 312.77 18.1945 277.81 40.6315 259.147C48.6124 250.657 64.6404 245.573 72.2903 254.34C77.3475 260.136 74.5349 268.729 69.3495 273.446C65.5694 277.519 60.5443 280.607 56.792 284.356C42.7309 298.896 42.6113 320.984 53.8683 336.38C59.2693 343.726 77.6657 352.3 62.9405 361.139C60.0625 362.915 56.6783 363.783 53.2617 363.619ZM49.9195 361.978C54.1173 362.784 58.4772 362.052 62.1417 359.927C70.9876 354.618 66.5305 350.1 58.8913 343.412C56.595 341.556 54.5021 339.478 52.6445 337.214C41.0565 321.367 41.0501 298.527 55.7028 283.374C62.1545 276.928 71.7649 272.623 73.3389 263.179C74.4537 256.346 68.7537 251.346 61.7787 251.211C57.9749 251.344 54.2369 252.205 50.7848 253.745C47.333 255.286 44.2365 257.472 41.678 260.179C19.6296 278.526 10.378 312.744 20.99 336.515C25.9127 347.409 37.0501 360.175 49.9195 361.978Z" fill="#181A21"/>
<path d="M243.633 154.994C242.413 148.297 239.833 141.896 236.038 136.157C234.543 133.411 233.078 130.894 231.844 130.304C231.645 130.222 231.428 130.195 231.216 130.226C231.003 130.257 230.804 130.345 230.64 130.48C222.383 139.776 220.32 152.588 217.738 151.437C216.593 150.937 216.081 149.022 216.081 147.323C216.002 142.517 217.055 137.756 219.163 133.396C219.746 132.133 220.997 129.012 221.781 127.488C222.748 126.768 221.324 125.273 220.615 126.522C212.015 132.469 211.35 142.496 202.703 150.558C202.575 150.693 202.507 150.87 202.509 151.053C202.513 151.236 202.59 151.41 202.722 151.541C202.855 151.672 203.034 151.749 203.224 151.757C203.414 151.764 203.602 151.702 203.745 151.583C211.837 144.044 212.576 135.949 219.188 129.578C216.711 135.306 214.362 140.111 214.582 147.338C214.582 149.415 215.248 151.923 217.114 152.738C221.982 154.895 222.518 142.188 231.455 131.782C232.997 133.81 234.356 135.961 235.513 138.212C238.8 143.445 241.053 149.216 242.163 155.233C247.02 179.003 241.773 206.174 228.799 224.459C228.688 224.617 228.645 224.81 228.681 224.997C228.72 225.185 228.833 225.349 228.997 225.458C229.16 225.565 229.362 225.604 229.557 225.569C229.751 225.534 229.924 225.425 230.035 225.267C243.223 206.699 248.56 179.101 243.633 154.994Z" fill="#181A21"/>
<path d="M52.1743 400.087C44.5181 399.949 33.9936 398.368 27.3069 393.015C19.0292 386.582 20.4237 379.556 23.9262 378.309C27.8323 376.918 34.7176 381.828 38.0342 384.31C35.4715 380.52 32.0117 373.754 35.1703 370.403C36.4197 369.203 38.2136 369.525 39.999 371.24C42.093 373.389 43.7627 375.885 44.926 378.606C45.0084 378.774 45.0204 378.967 44.9589 379.141C44.8976 379.318 44.7677 379.465 44.5964 379.552C44.4254 379.638 44.2261 379.656 44.0403 379.605C43.8545 379.554 43.6967 379.435 43.5997 379.275C42.5046 376.691 40.9315 374.32 38.9568 372.273C38.4016 371.74 37.0604 370.618 36.2552 371.393C33.5195 374.299 38.1175 382.359 40.4945 385.097L41.7033 386.547C41.768 386.625 41.8152 386.715 41.8417 386.812C41.8684 386.908 41.8737 387.008 41.8577 387.107C41.8417 387.205 41.8045 387.3 41.7483 387.384C41.6924 387.468 41.6189 387.54 41.5324 387.595C40.8725 388.017 40.0802 387.628 37.0647 385.409C34.3588 383.415 27.6273 378.52 24.4473 379.656C22.1109 380.489 20.9171 386.196 28.2573 391.904C34.6279 397.002 44.8106 398.384 52.2299 398.649C52.4231 398.663 52.6032 398.749 52.7324 398.887C52.8616 399.026 52.9297 399.207 52.9224 399.393C52.9152 399.58 52.8334 399.756 52.6937 399.886C52.5543 400.015 52.3682 400.087 52.1743 400.087Z" fill="#181A21"/>
<path d="M166.573 331.33C165.291 331.33 164.691 330.239 164.136 329.126C163.53 327.908 161.648 324.456 160.115 320.961C152.253 303.019 152.533 301.684 150.034 298.691C149.199 297.931 148.023 300.8 147.615 301.848C145.849 306.325 145.201 313.898 140.689 316.683C138.34 318.16 131.134 319.103 118.681 319.565C118.491 319.561 118.309 319.487 118.174 319.358C118.039 319.228 117.959 319.056 117.952 318.874C117.944 318.691 118.01 318.513 118.135 318.373C118.259 318.236 118.434 318.148 118.623 318.129C133.573 317.575 138.434 316.382 139.875 315.479C143.768 313.074 144.531 305.605 146.175 301.442C146.955 299.436 147.909 297.44 149.355 297.135C153.242 296.345 155.647 309.309 165.373 328.271C165.701 328.912 166.188 329.887 166.5 329.887C167.386 329.669 168.448 325.307 168.636 324.76C177.074 299.2 176.437 298.88 177.853 298.542C178.007 298.509 178.167 298.509 178.319 298.544C178.473 298.581 178.616 298.648 178.735 298.747C179.752 299.547 179.983 302.945 179.983 302.978C180.41 305.428 181.025 308.051 181.612 310.588C181.843 312.12 182.186 313.018 182.644 313.31C183.882 314.259 187.805 313.334 189.569 313.334C196.369 313.035 205.535 312.514 211.308 312.141C211.502 312.135 211.69 312.202 211.833 312.327C211.977 312.452 212.064 312.627 212.077 312.813C212.09 313 212.028 313.183 211.902 313.324C211.778 313.468 211.599 313.558 211.406 313.576C205.627 313.939 188.416 314.852 187.684 314.938C182.829 315.508 180.818 315.389 180.138 310.836C177.879 301.099 178.616 302.373 178.018 300.402C177.336 302.592 170.094 325.043 169.862 325.879C169.097 328.654 168.215 331.33 166.573 331.33Z" fill="#181A21"/>
<path d="M178.092 156.142C170.148 152.877 140.804 151.185 122.512 169.292C116.853 174.895 117.348 185.083 127.226 184.304C137.477 182.663 140.204 178.221 150.572 175.106H150.619C150.786 175.106 150.946 175.052 151.079 174.954C154.818 173.841 158.699 173.215 162.611 173.092C167.726 172.969 172.841 173.239 177.911 173.9C180.595 174.41 183.382 174.03 185.813 172.823C194.154 167.344 187.38 159.967 178.092 156.142ZM120.981 180.319C119.614 177.583 120.72 173.141 123.586 170.295C125.72 168.146 128.093 166.228 130.662 164.575C132.093 168.457 135.55 177.645 136.394 179.891C131.589 182.272 123.328 185.022 120.981 180.319ZM137.731 179.201C136.748 176.593 133.272 167.348 131.965 163.775C135.73 161.512 139.796 159.747 144.054 158.531C145.413 162.167 148.753 171.281 149.665 173.875C145.507 175.253 141.509 177.038 137.731 179.201ZM151.076 173.459C150.034 170.416 146.498 160.855 145.487 158.133C150.109 156.919 154.846 156.156 159.628 155.857C160.954 159.835 163.546 169.778 164.074 171.648C159.67 171.614 155.288 172.225 151.076 173.459ZM165.599 171.661C165.599 171.25 162.017 158.385 161.174 155.775C165.464 155.541 169.77 155.782 174.005 156.493C175.337 161.099 176.48 166.049 177.678 172.417C173.676 171.889 169.639 171.636 165.599 171.661ZM179.231 172.622C179.218 172.259 177.59 163.681 175.664 156.866C179.989 158 187.624 162.463 188.064 166.773C188.38 169.907 184.572 173.141 179.231 172.622Z" fill="#181A21"/>
<path d="M170.981 136.706C169.723 136.694 168.489 136.38 167.389 135.794C166.289 135.207 165.358 134.367 164.683 133.349C164.006 132.331 163.604 131.167 163.513 129.962C163.423 128.758 163.645 127.55 164.164 126.449C164.681 125.348 165.475 124.388 166.477 123.657C167.476 122.925 168.651 122.444 169.894 122.257C171.137 122.071 172.408 122.185 173.593 122.589C174.778 122.993 175.842 123.675 176.683 124.572C177.665 125.621 178.308 126.923 178.533 128.317C178.759 129.711 178.556 131.138 177.952 132.424C177.347 133.71 176.367 134.8 175.128 135.56C173.892 136.32 172.45 136.719 170.981 136.706ZM165.001 129.137C164.95 130.095 165.144 131.05 165.569 131.918C165.994 132.786 166.637 133.541 167.438 134.114C168.239 134.687 169.174 135.061 170.163 135.204C171.15 135.346 172.16 135.252 173.102 134.931C174.041 134.609 174.885 134.069 175.558 133.359C176.23 132.649 176.709 131.791 176.952 130.861C177.196 129.931 177.198 128.957 176.956 128.026C176.713 127.096 176.237 126.237 175.566 125.525C174.759 124.674 173.708 124.072 172.546 123.792C171.382 123.513 170.161 123.57 169.031 123.956C167.901 124.342 166.917 125.039 166.199 125.961C165.482 126.883 165.067 127.988 165.001 129.137Z" fill="#181A21"/>
<path d="M116.754 143.611C115.497 143.599 114.262 143.285 113.162 142.699C112.063 142.113 111.132 141.273 110.456 140.254C109.779 139.236 109.377 138.072 109.286 136.867C109.196 135.663 109.419 134.455 109.937 133.354C110.454 132.253 111.249 131.294 112.249 130.562C113.25 129.83 114.425 129.349 115.668 129.163C116.91 128.976 118.182 129.09 119.367 129.494C120.552 129.898 121.614 130.58 122.457 131.477C123.436 132.527 124.077 133.828 124.302 135.222C124.526 136.615 124.324 138.042 123.72 139.327C123.116 140.612 122.136 141.702 120.899 142.462C119.663 143.223 118.223 143.622 116.754 143.611ZM110.775 136.038C110.722 136.996 110.917 137.952 111.342 138.82C111.766 139.689 112.407 140.443 113.208 141.017C114.009 141.59 114.945 141.965 115.933 142.108C116.921 142.251 117.931 142.158 118.872 141.836C119.813 141.515 120.658 140.975 121.33 140.266C122.002 139.556 122.482 138.697 122.726 137.767C122.97 136.837 122.971 135.863 122.729 134.932C122.487 134.001 122.01 133.142 121.34 132.43C120.532 131.581 119.482 130.979 118.32 130.7C117.158 130.421 115.936 130.478 114.807 130.863C113.679 131.248 112.694 131.945 111.975 132.865C111.257 133.786 110.842 134.889 110.775 136.038Z" fill="#181A21"/>
<path d="M204.224 154.243C202.806 145.055 202.176 135.876 198.059 125.232C188.263 99.6847 160.685 100.333 132.708 102.263L132.194 102.298C131.475 98.9428 130.007 95.7779 127.89 93.0216C124.26 87.6525 119.988 81.6436 121.541 75.446C123.25 68.6023 132.745 65.7045 137.283 60.0401C143.243 52.7022 142.376 42.4685 142.682 33.7299C142.675 33.5474 142.596 33.3741 142.464 33.2449C142.329 33.1157 142.148 33.0405 141.958 33.0341C141.768 33.0279 141.582 33.0913 141.439 33.2113C141.296 33.3313 141.206 33.499 141.187 33.6807C140.892 42.0891 141.74 52.2162 136.1 59.1582C131.664 64.6955 121.972 67.5666 120.082 75.1096C118.399 81.8671 122.735 88.0299 126.628 93.8009C128.597 96.3587 129.984 99.2857 130.699 102.392C128.26 102.544 126.017 102.673 116.849 103.475C107.681 104.277 87.2661 106.569 78.5142 108.364C76.2758 108.551 74.1116 109.226 72.1863 110.339C63.8573 115.228 66.0698 126.063 66.7361 134.744C68.0675 151.828 70.3142 168.836 73.4677 185.699C74.6487 192.536 75.9877 200.286 80.0775 205.477C86.2111 212.94 100.054 210.093 110.421 208.758C132.774 205.998 153.317 202.985 173.221 199.546C181.896 198.057 194.298 197.62 200.891 190.996C208.724 183.205 206.006 165.779 204.224 154.243ZM199.81 190.006C193.572 196.273 181.54 196.669 172.957 198.137C140.206 203.795 117.669 206.301 102.95 208.354C103.164 185.323 96.2336 124.022 93.1626 116.662C91.4942 113.671 89.4555 110.886 87.0909 108.366C88.8358 108.282 107.638 105.275 131.939 103.76C143.609 103.032 156.173 102.097 168.006 104.037C189.563 107.71 197.299 120.517 200.801 141.274C201.897 147.931 201.625 147.291 202.723 154.458C204.479 165.711 207.133 182.717 199.81 190.006Z" fill="#181A21"/>
<path d="M44.7188 86.4978C43.3777 84.1927 46.784 78.5632 48.4647 76.4282C56.6998 65.969 67.0982 58.0302 64.4821 43.3422C63.6212 38.2899 61.0074 33.6651 57.0652 30.2187C53.123 26.7721 48.0835 24.706 42.7647 24.3556C31.6807 23.6317 16.7099 33.2726 17.6005 46.0759C18.7345 53.7071 21.7628 65.04 29.1329 61.9001C32.5692 60.4358 31.2686 53.5512 30.7816 51.2543C29.9381 47.2162 28.8425 43.3483 31.3818 39.747C36.0396 33.1393 45.6073 33.2746 49.2058 39.8906C54.2951 49.2424 50.8674 60.7578 43.5143 68.8074C39.9002 72.3354 37.0937 76.5497 35.275 81.18C33.7993 85.7883 39.0637 94.9206 46.06 91.6803C48.1722 90.6959 45.4663 87.7899 44.7188 86.4978Z" fill="#E53E15"/>
<path d="M50.699 96.1347C49.6568 95.825 45.157 97.2852 45.6055 98.4378C45.3065 98.1486 45.755 99.1556 45.9045 99.5883C46.2056 100.452 46.3551 101.169 46.6541 102.033C47.5532 104.623 49.204 107.217 52.7962 105.197C55.3461 103.762 53.5458 100.019 52.4972 98.2922C52.3814 97.8276 52.1602 97.3933 51.8492 97.0204C51.5385 96.6474 51.1455 96.3449 50.699 96.1347Z" fill="#E53E15"/>
</svg>
