<svg width="38" height="38" viewBox="0 0 38 38" fill="none" xmlns="http://www.w3.org/2000/svg">
<rect x="1" y="1" width="36" height="36" rx="7" fill="#ADD2FF"/>
<rect x="1" y="1" width="36" height="36" rx="7" stroke="#181A21" stroke-width="0.8"/>
<path d="M28.84 30H8.15931C6.96743 29.9987 6.00147 29.1486 6 28.0998V9.90025C6.00147 8.85137 6.96743 8.00129 8.15931 8H28.8407C30.0326 8.00129 30.9985 8.85137 31 9.90025V28.1004C30.9978 29.1486 30.0318 29.9987 28.84 30ZM8.15931 8.75519C7.44125 8.75584 6.85888 9.26834 6.85815 9.90025V28.1004C6.85888 28.7323 7.44125 29.2448 8.15931 29.2455H28.8407C29.5587 29.2448 30.1411 28.7323 30.1419 28.1004V9.90025C30.1411 9.26834 29.5587 8.75584 28.8407 8.75519H8.15931Z" fill="#181A21"/>
<path d="M30.5702 13.5233H6.42907C6.19217 13.5233 6 13.3541 6 13.1457C6 12.9372 6.19217 12.7681 6.42907 12.7681H30.5702C30.8071 12.7681 30.9993 12.9372 30.9993 13.1457C30.9993 13.3541 30.8071 13.5233 30.5702 13.5233Z" fill="#181A21"/>
<path d="M22.7347 12.0329C21.9374 12.0329 21.2913 11.4642 21.2913 10.7626C21.2913 10.061 21.9374 9.49231 22.7347 9.49231C23.532 9.49231 24.1782 10.061 24.1782 10.7626C24.1774 11.4642 23.5312 12.0322 22.7347 12.0329ZM22.7347 10.2475C22.4113 10.2475 22.1494 10.4779 22.1494 10.7626C22.1494 11.0472 22.4113 11.2777 22.7347 11.2777C23.0582 11.2777 23.32 11.0472 23.32 10.7626C23.3193 10.4779 23.0574 10.2475 22.7347 10.2475Z" fill="#181A21"/>
<path d="M18.4996 12.0329C17.7023 12.0329 17.0562 11.4642 17.0562 10.7626C17.0562 10.061 17.7023 9.49231 18.4996 9.49231C19.2969 9.49231 19.9431 10.061 19.9431 10.7626C19.9423 11.4642 19.2969 12.0322 18.4996 12.0329ZM18.4996 10.2475C18.1761 10.2475 17.9143 10.4779 17.9143 10.7626C17.9143 11.0472 18.1761 11.2777 18.4996 11.2777C18.8231 11.2777 19.0849 11.0472 19.0849 10.7626C19.0849 10.4779 18.8231 10.2475 18.4996 10.2475Z" fill="#181A21"/>
<path d="M14.2647 12.0329C13.4675 12.0322 12.822 11.4629 12.8228 10.7613C12.8235 10.0597 13.4704 9.49166 14.2677 9.49231C15.0642 9.49296 15.7097 10.0616 15.7097 10.7626C15.7089 11.4642 15.0627 12.0329 14.2647 12.0329ZM14.2647 10.2475C13.9413 10.2481 13.6802 10.4792 13.6809 10.7639C13.6816 11.0485 13.9442 11.2783 14.2677 11.2777C14.5904 11.277 14.8515 11.0466 14.8515 10.7626C14.8515 10.4779 14.5889 10.2475 14.2647 10.2475Z" fill="#181A21"/>
<path d="M14.5712 24.7278C14.4817 24.7278 14.3952 24.7033 14.3225 24.6574L9.60566 21.6909C9.41276 21.5695 9.36875 21.3333 9.50738 21.1635C9.53452 21.13 9.56826 21.1009 9.60566 21.077L14.3225 18.1124C14.5088 17.9833 14.7788 18.0124 14.9255 18.1763C15.0721 18.3403 15.0391 18.5778 14.8528 18.7069C14.8426 18.714 14.8323 18.7205 14.822 18.7263L10.5944 21.3836L14.822 24.041C15.0149 24.1624 15.0597 24.398 14.9218 24.5677C14.8411 24.6671 14.7105 24.7259 14.5719 24.7259L14.5712 24.7278Z" fill="#181A21"/>
<path d="M22.428 24.7279C22.1911 24.7279 21.9989 24.5595 21.9982 24.351C21.9982 24.229 22.0649 24.1141 22.1779 24.0431L26.4055 21.3857L22.1779 18.7284C21.9791 18.6148 21.9226 18.3805 22.0517 18.2062C22.1808 18.0313 22.447 17.9816 22.6451 18.0952C22.6561 18.101 22.6664 18.1081 22.6759 18.1145L27.3928 21.0778C27.5857 21.1992 27.6297 21.4354 27.4911 21.6052C27.4639 21.6388 27.4302 21.6678 27.3928 21.6917L22.6759 24.6563C22.604 24.7021 22.5175 24.7273 22.428 24.7279Z" fill="#181A21"/>
<path d="M20.351 24.5845C20.1977 24.5845 20.0561 24.5129 19.9791 24.3954L16.2773 18.7521C16.1534 18.5746 16.2165 18.3416 16.4189 18.2325C16.6206 18.1234 16.8854 18.1789 17.0093 18.3571C17.013 18.3629 17.0174 18.3687 17.0203 18.3745L20.7221 24.0178C20.8409 24.1985 20.7705 24.4296 20.5651 24.5335C20.4999 24.5671 20.4258 24.5845 20.351 24.5845Z" fill="#181A21"/>
</svg>
