<svg width="38" height="38" viewBox="0 0 38 38" fill="none" xmlns="http://www.w3.org/2000/svg">
<rect x="1" y="1" width="36" height="36" rx="7" fill="#FFDC8C"/>
<rect x="1" y="1" width="36" height="36" rx="7" stroke="#181A21" stroke-width="0.8"/>
<path d="M29.9179 25.0778C29.6843 25.0921 29.3891 25.1018 29.0892 25.0682C28.7264 25.0272 28.634 24.869 28.6747 23.8327C28.6792 23.7224 28.6835 23.6117 28.6858 23.5027C28.7046 22.5488 29.2111 21.9256 29.52 21.6329C29.8314 21.9212 30.3375 22.5327 30.3477 23.467C30.3282 23.6302 30.2582 24.3297 30.3866 25.0682C30.2399 25.0591 30.0861 25.0672 29.9179 25.0778ZM26.1516 24.155C25.9811 24.629 24.5208 28.1191 18.556 28.1191C12.5564 28.1191 11.134 24.6553 10.9605 24.1566V19.4907L18.1422 23.41C18.269 23.4793 18.412 23.516 18.5564 23.516C18.7003 23.516 18.8435 23.4793 18.9703 23.41L26.1516 19.4909V24.155ZM18.5568 9.87928L30.2414 16.2581L18.5568 22.6346L6.87109 16.256L18.5568 9.87928ZM31.4171 25.5139C31.0647 24.713 31.2122 23.5653 31.2143 23.5539C31.2163 23.534 31.2184 23.5137 31.2184 23.4938C31.2184 22.0555 30.3559 21.1804 29.9519 20.8494V17.417L30.655 17.0333C30.9377 16.8793 31.1119 16.5817 31.1119 16.2571C31.1119 15.9323 30.9377 15.6348 30.655 15.4806L18.9699 9.10367C18.7162 8.96521 18.3958 8.96562 18.1422 9.10387L6.45747 15.4806C6.17516 15.6348 6 15.9323 6 16.2571C6 16.5817 6.17516 16.8793 6.45767 17.0335L10.0898 19.0157V24.2271C10.0898 24.2694 10.0957 24.3115 10.1076 24.3519C10.1629 24.5418 11.5456 29 18.556 29C25.5671 29 26.9493 24.5418 27.0044 24.3519C27.0163 24.3115 27.0223 24.2694 27.0223 24.2271V19.0159L29.0812 17.8922V20.8527C28.6872 21.1833 27.8436 22.0551 27.8149 23.4849C27.8129 23.5881 27.8088 23.6928 27.8047 23.7975C27.7729 24.5955 27.7254 25.8014 28.9927 25.9438C29.3449 25.9833 29.696 25.9742 29.9714 25.957C30.2643 25.939 30.4665 25.9096 30.8271 26.0891C30.8885 26.1193 30.9541 26.134 31.0197 26.134C31.1303 26.134 31.2389 26.0915 31.3208 26.0105C31.454 25.8818 31.4909 25.6832 31.4171 25.5139Z" fill="#181A21"/>
</svg>
