<svg width="185" height="39" viewBox="0 0 185 39" fill="none" xmlns="http://www.w3.org/2000/svg">
<path d="M59.595 30.3369C57.8958 30.3369 56.4212 30.0732 55.1712 29.5459C53.9212 29.0186 52.9446 28.252 52.2415 27.2461C51.5384 26.2305 51.1575 25 51.0989 23.5547H54.9954C55.054 24.3164 55.2884 24.9512 55.6985 25.459C56.1087 25.957 56.6458 26.333 57.3099 26.5869C57.9837 26.8408 58.7308 26.9678 59.5511 26.9678C60.4105 26.9678 61.1673 26.8359 61.8216 26.5723C62.4759 26.3086 62.9886 25.9424 63.3597 25.4736C63.7308 25.0049 63.9163 24.458 63.9163 23.833C63.9163 23.2666 63.7503 22.8027 63.4183 22.4414C63.0862 22.0703 62.6273 21.7578 62.0413 21.5039C61.4554 21.25 60.7669 21.0254 59.9759 20.8301L57.5003 20.1855C55.7034 19.7266 54.2874 19.0283 53.2523 18.0908C52.2171 17.1436 51.6995 15.8838 51.6995 14.3115C51.6995 13.0225 52.0462 11.8994 52.7396 10.9424C53.4329 9.97559 54.3802 9.22363 55.5814 8.68652C56.7923 8.14941 58.1595 7.88086 59.6829 7.88086C61.2357 7.88086 62.598 8.14941 63.7698 8.68652C64.9417 9.22363 65.8597 9.96582 66.5237 10.9131C67.1878 11.8604 67.5345 12.9492 67.5638 14.1797H63.7405C63.6429 13.2422 63.2278 12.5195 62.4954 12.0117C61.7728 11.4941 60.8206 11.2354 59.639 11.2354C58.8187 11.2354 58.1107 11.3574 57.515 11.6016C56.929 11.8457 56.4798 12.1826 56.1673 12.6123C55.8548 13.042 55.6985 13.5303 55.6985 14.0771C55.6985 14.6826 55.8792 15.1807 56.2405 15.5713C56.6116 15.9521 57.0804 16.2598 57.6468 16.4941C58.223 16.7285 58.8089 16.9238 59.4046 17.0801L61.4407 17.5928C62.261 17.7881 63.0521 18.0518 63.8138 18.3838C64.5755 18.7061 65.2591 19.1162 65.8646 19.6143C66.4798 20.1025 66.9632 20.6982 67.3148 21.4014C67.6761 22.1045 67.8568 22.9297 67.8568 23.877C67.8568 25.1465 67.5296 26.2695 66.8753 27.2461C66.221 28.2129 65.2786 28.9697 64.0482 29.5166C62.8177 30.0635 61.3333 30.3369 59.595 30.3369ZM77.3278 13.623V16.6113H67.9382V13.623H77.3278ZM70.238 9.72656H74.0905V25.0781C74.0905 25.7227 74.2321 26.2012 74.5153 26.5137C74.7985 26.8164 75.2478 26.9678 75.863 26.9678C76.029 26.9678 76.2146 26.9531 76.4196 26.9238C76.6247 26.8945 76.8103 26.8604 76.9763 26.8213L77.6355 29.8389C77.2253 29.9658 76.8103 30.0586 76.3903 30.1172C75.9704 30.1855 75.5505 30.2197 75.1306 30.2197C73.6071 30.2197 72.4109 29.8193 71.5417 29.0186C70.6726 28.208 70.238 27.1045 70.238 25.708V9.72656ZM88.9816 23.1299V13.623H92.8341V30H89.0987V27.085H88.923C88.5519 28.0029 87.9464 28.7549 87.1066 29.3408C86.2667 29.9268 85.2316 30.2148 84.0011 30.2051C82.9269 30.2051 81.9796 29.9707 81.1593 29.502C80.3487 29.0234 79.7091 28.3252 79.2403 27.4072C78.7814 26.4795 78.5519 25.3613 78.5519 24.0527V13.623H82.4044V23.4668C82.4044 24.4922 82.6876 25.3125 83.254 25.9277C83.8302 26.543 84.5821 26.8457 85.5099 26.8359C86.0763 26.8359 86.6232 26.6992 87.1505 26.4258C87.6876 26.1523 88.1271 25.7422 88.4689 25.1953C88.8107 24.6484 88.9816 23.96 88.9816 23.1299ZM100.826 30.293C99.5464 30.293 98.3941 29.9658 97.3687 29.3115C96.353 28.6475 95.5523 27.6855 94.9663 26.4258C94.3804 25.166 94.0874 23.6377 94.0874 21.8408C94.0874 20.0146 94.3853 18.4766 94.981 17.2266C95.5864 15.9766 96.397 15.0293 97.4126 14.3848C98.4282 13.7402 99.5659 13.418 100.826 13.418C101.792 13.418 102.584 13.5791 103.199 13.9014C103.814 14.2236 104.302 14.6143 104.664 15.0732C105.035 15.5225 105.318 15.9424 105.513 16.333H105.674V8.17383H109.512V30H105.748V27.4072H105.513C105.308 27.8076 105.02 28.2324 104.649 28.6816C104.278 29.1211 103.785 29.502 103.169 29.8242C102.554 30.1367 101.773 30.293 100.826 30.293ZM101.895 27.1289C102.715 27.1289 103.409 26.9092 103.975 26.4697C104.551 26.0205 104.991 25.4004 105.293 24.6094C105.596 23.8086 105.748 22.8809 105.748 21.8262C105.748 20.7617 105.596 19.8389 105.293 19.0576C105 18.2666 104.566 17.6562 103.99 17.2266C103.423 16.7969 102.725 16.582 101.895 16.582C101.045 16.582 100.333 16.8066 99.7564 17.2559C99.1802 17.7051 98.7456 18.3252 98.4526 19.1162C98.1694 19.9072 98.0278 20.8105 98.0278 21.8262C98.0278 22.8418 98.1743 23.75 98.4673 24.5508C98.7603 25.3516 99.19 25.9814 99.7564 26.4404C100.333 26.8994 101.045 27.1289 101.895 27.1289ZM113.871 36.123C113.344 36.1328 112.855 36.0938 112.406 36.0059C111.967 35.9277 111.61 35.835 111.337 35.7275L112.245 32.7246L112.435 32.7832C113.217 32.9883 113.881 33.0029 114.428 32.8271C114.984 32.6514 115.429 32.1191 115.761 31.2305L116.083 30.3516L110.165 13.623H114.252L118.017 26.001H118.192L121.972 13.623H126.088L119.525 31.9775C119.223 32.8467 118.822 33.5889 118.324 34.2041C117.826 34.8291 117.211 35.3027 116.478 35.625C115.746 35.957 114.877 36.123 113.871 36.123ZM129.831 8.17383L135.5 25.3418H135.735L141.404 8.17383H145.74L138.049 30H133.186L125.481 8.17383H129.831ZM146.436 30V13.623H150.289V30H146.436ZM148.37 11.3232C147.755 11.3232 147.227 11.1182 146.788 10.708C146.348 10.2979 146.129 9.80469 146.129 9.22852C146.129 8.64258 146.348 8.14453 146.788 7.73438C147.227 7.32422 147.755 7.11914 148.37 7.11914C148.975 7.11914 149.498 7.32422 149.937 7.73438C150.377 8.14453 150.596 8.6377 150.596 9.21387C150.596 9.7998 150.377 10.2979 149.937 10.708C149.498 11.1182 148.975 11.3232 148.37 11.3232ZM160.932 30.293C160.004 30.293 159.228 30.1367 158.603 29.8242C157.987 29.502 157.489 29.1211 157.109 28.6816C156.737 28.2324 156.454 27.8076 156.259 27.4072H156.025V30H152.245V8.17383H156.098V16.333H156.259C156.454 15.9424 156.733 15.5225 157.094 15.0732C157.455 14.6143 157.943 14.2236 158.559 13.9014C159.184 13.5791 159.98 13.418 160.946 13.418C162.206 13.418 163.344 13.7402 164.359 14.3848C165.375 15.0293 166.181 15.9766 166.776 17.2266C167.382 18.4766 167.685 20.0146 167.685 21.8408C167.685 23.6377 167.392 25.166 166.806 26.4258C166.22 27.6855 165.414 28.6475 164.389 29.3115C163.373 29.9658 162.221 30.293 160.932 30.293ZM159.877 27.1289C160.727 27.1289 161.435 26.8994 162.001 26.4404C162.577 25.9814 163.012 25.3516 163.305 24.5508C163.598 23.75 163.744 22.8418 163.744 21.8262C163.744 20.8105 163.598 19.9072 163.305 19.1162C163.012 18.3252 162.582 17.7051 162.016 17.2559C161.449 16.8066 160.736 16.582 159.877 16.582C159.047 16.582 158.344 16.7969 157.768 17.2266C157.201 17.6562 156.767 18.2666 156.464 19.0576C156.171 19.8389 156.025 20.7617 156.025 21.8262C156.025 22.8809 156.171 23.8086 156.464 24.6094C156.767 25.4004 157.206 26.0205 157.782 26.4697C158.359 26.9092 159.057 27.1289 159.877 27.1289ZM176.174 30.3223C174.534 30.3223 173.118 29.9805 171.926 29.2969C170.735 28.6035 169.817 27.627 169.172 26.3672C168.538 25.1074 168.22 23.623 168.22 21.9141C168.22 20.2246 168.538 18.7451 169.172 17.4756C169.807 16.1963 170.701 15.2002 171.853 14.4873C173.005 13.7744 174.363 13.418 175.925 13.418C176.931 13.418 177.883 13.5791 178.782 13.9014C179.69 14.2236 180.491 14.7217 181.184 15.3955C181.887 16.0693 182.439 16.9287 182.839 17.9736C183.24 19.0088 183.44 20.2441 183.44 21.6797V22.8809H170.022V20.2881H181.521L179.719 21.0498C179.719 20.1221 179.578 19.3164 179.294 18.6328C179.011 17.9395 178.591 17.3975 178.035 17.0068C177.478 16.6162 176.785 16.4209 175.955 16.4209C175.125 16.4209 174.417 16.6162 173.831 17.0068C173.245 17.3975 172.8 17.9248 172.498 18.5889C172.195 19.2432 172.043 19.9756 172.043 20.7861V22.5879C172.043 23.584 172.214 24.4385 172.556 25.1514C172.908 25.8545 173.396 26.3916 174.021 26.7627C174.656 27.1338 175.393 27.3193 176.233 27.3193C176.78 27.3193 177.278 27.2412 177.727 27.085C178.186 26.9287 178.577 26.6943 178.899 26.3818C179.231 26.0596 179.485 25.6641 179.661 25.1953L183.264 25.6201C183.03 26.5674 182.595 27.3975 181.96 28.1104C181.335 28.8135 180.53 29.3604 179.543 29.751C178.567 30.1318 177.444 30.3223 176.174 30.3223Z" fill="#181A21"/>
<path d="M1.30811 19C1.30811 27.8366 8.24769 35 16.8081 35C25.3685 35 32.3081 27.8366 32.3081 19C32.3081 10.1634 25.3685 3 16.8081 3C8.24769 3 1.30811 10.1634 1.30811 19Z" fill="#FFCB6C"/>
<path d="M16.3079 19C16.3079 27.8366 23.0236 35 31.3079 35C39.5921 35 46.3079 27.8366 46.3079 19C46.3079 10.1634 39.5921 3 31.3079 3C23.0236 3 16.3079 10.1634 16.3079 19Z" fill="#FFCB6C"/>
<path fill-rule="evenodd" clip-rule="evenodd" d="M23.9237 5.81592C28.673 9.00676 31.7143 13.9112 31.7143 19.4113C31.7143 24.9626 28.6161 29.9071 23.7906 33.0954C19.0413 29.9045 16 25.0001 16 19.5C16 13.9487 19.0982 9.00417 23.9237 5.81592Z" fill="#E76F51"/>
<path d="M15.3855 19.3363C15.3855 27.9444 22.3637 34.9226 30.9718 34.9226C39.5799 34.9226 46.5581 27.9444 46.5581 19.3363C46.5581 10.7282 39.5799 3.75 30.9718 3.75C22.3637 3.75 15.3855 10.7282 15.3855 19.3363Z" stroke="#181A21" stroke-width="1.5"/>
<path d="M0.750008 19.3363C0.750008 27.9444 7.72823 34.9226 16.3363 34.9226C24.9444 34.9226 31.9226 27.9444 31.9226 19.3363C31.9226 10.7282 24.9444 3.75 16.3363 3.75C7.72823 3.75 0.750008 10.7282 0.750008 19.3363Z" stroke="#181A21" stroke-width="1.5"/>
<path d="M19.2885 9.30762L31.2885 14.3076" stroke="#181A21" stroke-width="1.5"/>
<path d="M16.2633 14.2979L32.2633 20.2979" stroke="#181A21" stroke-width="1.5"/>
<path d="M15.2633 19.2979L31.2633 25.2979" stroke="#181A21" stroke-width="1.5"/>
<path d="M16.2885 24.3076L28.2885 29.3076" stroke="#181A21" stroke-width="1.5"/>
</svg>
