<svg width="38" height="38" viewBox="0 0 38 38" fill="none" xmlns="http://www.w3.org/2000/svg">
<rect x="1" y="1" width="36" height="36" rx="7" fill="#B1D4C7"/>
<rect x="1" y="1" width="36" height="36" rx="7" stroke="#181A21" stroke-width="0.8"/>
<path d="M11.356 30.3989L11.3575 30.3989C11.3853 30.4002 11.4133 30.4003 11.4409 30.3993L11.4421 30.3993C12.5626 30.3553 13.4295 29.9421 14.0863 29.1043C14.7225 28.2928 15.1397 27.1103 15.4572 25.5708C15.9291 23.2823 16.2044 20.0654 16.5689 15.8065C16.6943 14.3408 16.8303 12.7517 16.9885 11.0346L16.9885 11.0345C16.9906 11.011 17.013 10.9839 17.0504 10.9839H21.4629C21.5066 10.9839 21.5266 11.0179 21.5252 11.0403L21.5251 11.0404C21.404 12.9157 21.2157 14.7894 21.0271 16.6654C20.9801 17.1334 20.933 17.6015 20.887 18.0699C20.6569 20.411 20.453 22.7523 20.4105 25.0747L20.4104 25.0825L20.4106 25.0902C20.4449 26.7585 20.9802 28.0803 21.8873 28.9892C22.7928 29.8963 24.0327 30.3558 25.409 30.3683C27.5497 30.4367 29.0106 29.3221 29.9407 27.9257C30.8625 26.5419 31.2838 24.8587 31.3813 23.6764L31.3813 23.6764C31.423 23.1704 31.0165 22.7532 30.5217 22.7532H30.5127C30.076 22.7532 29.7117 23.077 29.657 23.5053C29.5683 24.1981 29.335 24.7465 28.971 25.126C28.6138 25.4984 28.0975 25.7433 27.3665 25.7751C26.8309 25.7814 26.4259 25.6729 26.1145 25.4885C25.8029 25.3039 25.5572 25.0267 25.3668 24.6504C24.9766 23.8792 24.8392 22.7333 24.8582 21.2924C24.8766 19.9012 25.0381 18.2991 25.2096 16.5985L25.2238 16.4575C25.3997 14.7126 25.5813 12.8744 25.6156 11.1036M11.356 30.3989L25.2157 11.0959M11.356 30.3989C9.89058 30.3262 8.51071 29.2808 8.3569 27.5693C8.2504 26.7582 8.61662 26.0743 9.10393 25.3753C9.2843 25.1166 9.48016 24.8565 9.68865 24.5796C10.0733 24.0687 10.501 23.5006 10.9538 22.779C12.3132 20.6127 13.7776 17.2167 13.933 11.0309C13.9336 11.0066 13.9132 10.9771 13.8765 10.9742L11.356 30.3989ZM25.6156 11.1036L25.2157 11.0959M25.6156 11.1036C25.6156 11.1036 25.6156 11.1037 25.6156 11.1037L25.2157 11.0959M25.6156 11.1036C25.6161 11.0805 25.6374 11.0505 25.6778 11.0507L25.68 10.6507C25.4275 10.6494 25.2205 10.8474 25.2157 11.0959M8.17197 14.0701C8.28139 13.9128 8.38498 13.7362 8.48612 13.5609C8.50153 13.5342 8.51692 13.5075 8.53234 13.4807C8.62051 13.3275 8.70957 13.1727 8.80849 13.0142C9.03902 12.6447 9.31111 12.2751 9.68654 11.9516C10.4219 11.318 11.6264 10.8005 13.8764 10.9742L8.17197 14.0701ZM8.17197 14.0701C7.99672 14.322 7.70129 14.4586 7.39918 14.4366L8.17197 14.0701ZM30.533 11.0778L25.6778 11.0507L7.39914 14.4366C6.82519 14.3948 6.44151 13.8095 6.66276 13.2648C6.89332 12.6972 7.08739 12.1847 7.26643 11.7119C7.35766 11.471 7.44499 11.2403 7.53126 11.018C7.78318 10.3687 8.02417 9.79491 8.31218 9.30135C8.60323 8.80257 8.94599 8.37875 9.40523 8.02942C9.86315 7.68109 10.4188 7.42055 11.1187 7.22369C12.5029 6.83431 14.5087 6.67997 17.5628 6.62547C19.9466 6.58293 22.9977 6.60139 26.9313 6.6252C28.0532 6.63199 29.2469 6.63922 30.5174 6.64559C30.9824 6.64784 31.3712 7.01896 31.3754 7.4926C31.3754 7.49264 31.3754 7.49267 31.3754 7.49271L31.4 10.2154V10.2154C31.4042 10.6985 31.0078 11.0803 30.5331 11.0778H30.533Z" fill="#B1D4C7" stroke="#181A21" stroke-width="0.8"/>
</svg>
