<svg width="339" height="326" viewBox="0 0 339 326" fill="none" xmlns="http://www.w3.org/2000/svg">
<path d="M327.668 19.8462L8.61536 22.1941L10.1846 235.44L329.237 233.092L327.668 19.8462Z" fill="#ADD2FF"/>
<path d="M38.7315 88.5054C39.0376 94.2766 41.9867 99.5565 46.7882 102.786C49.7054 104.425 52.6857 105.495 55.6649 105.968C57.1929 106.175 58.6205 106.2 60.105 106.194L60.2238 122.34C60.2272 122.803 60.6061 123.177 61.0696 123.173C61.5331 123.17 61.9065 122.791 61.903 122.328L61.784 106.148C73.5237 105.409 84.714 98.253 84.5493 86.3647C92.1258 86.0688 99.9442 85.7744 107.712 85.8399C108.812 85.8788 108.85 84.1707 107.726 84.1605C99.9033 84.0954 92.0547 84.39 84.4463 84.6895C83.2882 73.5994 72.9971 63.5254 60.78 64.6514C60.1069 56.9298 59.4738 53.507 58.7051 47.6384C58.5576 46.5379 56.8951 46.7584 57.0409 47.8589C57.7749 53.36 58.4681 57.4121 59.1141 64.8753C48.7693 66.6727 39.1229 75.0596 38.7201 86.7204C23.2735 87.6082 22.1046 87.5832 20.5977 87.9739C19.644 88.2193 19.8291 89.6336 20.8131 89.6264C21.1422 89.624 21.0137 89.499 22.8378 89.326C24.4723 89.1696 22.9365 89.2665 38.7332 88.5071L38.7315 88.5054ZM55.9096 104.307C53.1473 103.867 50.3556 102.864 47.6677 101.359C43.3624 98.4599 40.6873 93.6683 40.4069 88.4259L59.9656 87.4843L60.091 104.517C58.6804 104.522 57.3166 104.498 55.9079 104.307L55.9096 104.307ZM61.7716 104.467L61.6461 87.4081C65.227 87.2609 79.3785 86.5774 82.8721 86.4341C82.9907 97.2933 72.5442 103.758 61.7716 104.467ZM82.7641 84.7573C79.2789 84.9021 65.1911 85.5818 61.632 85.7289C61.5792 81.0625 61.4025 73.4767 60.9065 66.3248C72.1249 65.2632 81.6462 74.5603 82.7641 84.7573ZM59.239 66.5587C59.734 73.5779 59.9079 81.6861 59.9532 85.8L40.4021 86.6375C40.8415 76.0546 49.6293 68.2936 59.239 66.557L59.239 66.5587Z" fill="#FCFCFC"/>
<path d="M25.3083 65.7803C25.7442 65.9064 26.2177 65.6577 26.347 65.205C26.4748 64.7589 26.2161 64.2939 25.7717 64.1662C18.4908 62.0818 23.908 53.7417 23.9 52.6534C23.8927 51.6626 22.4656 51.5051 22.2426 52.4691C22.0601 52.9978 20.8459 55.7545 20.7517 56.4169C19.0891 62.5997 22.3107 64.9206 25.3117 65.7803L25.3083 65.7803Z" fill="#FCFCFC"/>
<path d="M28.0889 55.5433C28.9083 56.1906 29.0444 56.4332 30.576 57.7857C30.2717 58.196 28.7985 60.224 28.366 60.7881C28.0832 61.1563 28.1543 61.6832 28.5208 61.966C28.8857 62.2472 29.4142 62.1811 29.6987 61.8112C30.3774 60.9245 31.0506 59.9689 31.8405 58.9017C34.6771 61.4017 34.6373 61.4709 35.074 61.4677C35.8432 61.462 36.2006 60.5021 35.6208 59.9958L32.8399 57.5456C32.9947 57.3514 33.1579 57.162 33.3279 56.9844C33.7971 56.3898 34.2814 55.7749 34.7331 55.3164C34.9918 55.0861 35.9247 54.7433 35.818 53.9262C35.7753 53.6057 35.4604 53.2604 35.1506 53.1602C34.7095 53.019 34.236 53.2576 34.0931 53.7004L34.0799 53.729C33.3995 54.169 32.9486 54.7451 32.0469 55.9039C31.8785 56.0747 31.7203 56.2573 31.5771 56.433C30.2467 55.2604 30.053 54.9578 29.1273 54.2273C28.7624 53.9378 28.2355 54.0021 27.9476 54.367C27.6597 54.7319 27.7224 55.2588 28.0873 55.5467L28.0889 55.5433Z" fill="#FCFCFC"/>
<path d="M39.3492 62.9001C39.797 63.0429 40.2587 62.7943 40.4067 62.3599C40.8983 60.927 41.0473 60.4103 40.9107 59.8739C40.7949 59.4246 40.3326 59.1408 39.885 59.2549C39.4357 59.3708 39.1619 59.8145 39.2777 60.2638C39.3016 60.5441 38.9257 61.4991 38.809 61.8409C38.6594 62.2787 38.9081 62.7555 39.3492 62.8984L39.3492 62.9001Z" fill="#FCFCFC"/>
<path d="M42.5853 56.718C43.8402 58.133 44.8988 59.7997 45.3742 60.0364C44.6002 62.123 43.7878 64.2536 42.7929 66.2226C42.5065 66.789 42.9262 67.446 43.5476 67.4414C43.8516 67.4392 44.1443 67.2708 44.2916 66.9808C46.442 62.7275 47.6441 58.1067 49.6156 53.9623C49.8158 53.5426 49.6374 53.0417 49.2194 52.8433C48.7997 52.6431 48.3006 52.8215 48.1004 53.2395C47.3214 54.876 46.6539 56.6024 46.0181 58.3034C45.2403 57.3686 44.0813 55.748 42.634 54.2135C42.452 53.449 41.38 53.3746 41.0222 53.8273C40.2833 54.7498 41.7716 55.4778 42.5869 56.7163L42.5853 56.718Z" fill="#FCFCFC"/>
<path d="M52.7013 53.3017C53.8675 57.2716 51.6234 61.5538 50.6045 63.2104C50.0187 64.1636 51.4625 65.0195 52.0351 64.09C53.1719 62.241 55.6674 57.4448 54.31 52.8163C53.9229 51.563 53.2774 50.3384 52.3888 49.1728C51.6868 48.2509 50.2861 46.6456 49.4743 47.4678C49.1492 47.7977 49.1532 48.33 49.483 48.6551C50.1918 49.3535 51.8394 50.5035 52.7013 53.3001L52.7013 53.3017Z" fill="#FCFCFC"/>
<path d="M91.0168 75.0174C92.6142 76.4163 95.5569 76.0286 96.8869 73.0412C98.4001 69.6377 97.5378 63.82 96.1671 61.7224C95.3688 60.5023 93.6155 59.3598 92.0184 59.5832C89.163 59.9888 89.1265 64.1522 88.756 66.9763C88.6721 68.5892 88.9175 73.1805 91.0185 75.0191L91.0168 75.0174ZM95.3519 72.3589C94.6564 73.9225 93.1081 74.6157 92.1227 73.7548C91.0781 72.8421 90.6283 70.6018 90.4811 68.8563C90.4811 68.8563 95.3503 68.7164 96.0035 68.6998C95.9916 70.0467 95.798 71.3564 95.3536 72.3589L95.3519 72.3589ZM92.4134 61.2328C93.2178 61.2269 94.3012 61.9377 94.7615 62.6396C95.322 63.497 95.7594 65.1967 95.9307 67.0209C95.2758 67.0375 90.4419 67.1789 90.4251 67.179L90.4247 67.1286C90.6606 65.4022 90.7895 61.2447 92.4151 61.2328L92.4134 61.2328Z" fill="#FCFCFC"/>
<path d="M92.1302 128.009C92.0513 127.553 91.614 127.244 91.1594 127.326C84.2789 128.526 82.4981 122.524 82.7389 115.543C82.7557 115.079 82.3917 114.69 81.928 114.673C81.4678 114.662 81.0757 115.021 81.059 115.484C80.7769 123.716 83.4477 130.374 91.4454 128.98C91.9016 128.901 92.2091 128.466 92.1285 128.009L92.1302 128.009Z" fill="#FCFCFC"/>
<path d="M95.7165 118.396C96.1853 118.871 96.6909 119.343 97.2318 119.808C97.5817 120.111 98.1121 120.071 98.4169 119.72C98.72 119.368 98.6808 118.84 98.3292 118.535C94.3368 115.091 94.3793 112.415 89.7494 114.999C86.5049 117.098 87.5637 121.765 90.7575 123.493C94.0397 125.155 95.7727 122.156 95.7182 118.396L95.7165 118.396ZM89.456 118.723C89.4291 118.039 89.6169 117.084 90.5847 116.454C93.9316 114.795 93.8151 116.082 93.9713 117.225C94.1984 118.881 93.9654 121.221 93.0962 122.015C92.1204 122.919 89.5492 121.124 89.456 118.723Z" fill="#FCFCFC"/>
<path d="M105.376 108.801C102.64 107.458 100.23 110.895 100.203 113.819C99.2321 112.624 98.1268 110.774 97.503 109.988C96.2688 108.433 96.4622 108.689 96.3133 108.317C96.1252 107.857 95.8703 107.227 95.1542 107.37C94.7601 107.449 94.4641 107.847 94.467 108.25C94.4698 108.631 94.6586 108.714 94.756 108.953C94.9852 109.511 94.8597 109.347 96.1804 111.027C97.1909 112.313 100.061 117.564 101.657 116.422C101.736 116.446 101.822 116.459 101.909 116.459C105.62 116.431 109.955 110.897 105.375 108.803L105.376 108.801ZM105.638 111.784C105.359 113.093 103.367 114.706 101.979 114.777C101.882 114.202 101.842 113.732 101.949 113.039C102.185 111.986 102.901 110.667 103.694 110.287C104.029 110.126 104.323 110.156 104.657 110.32C105.836 110.86 105.692 111.532 105.638 111.784Z" fill="#FCFCFC"/>
<path d="M108.782 117.105C109.208 117.268 109.698 117.058 109.865 116.618C111.654 111.916 112.726 107.745 107.708 104.316C106.176 103.272 104.475 102.475 102.072 101.706C101.293 101.538 100.194 100.984 99.5541 101.462C99.342 101.623 99.1997 101.91 99.2017 102.175C99.2057 102.729 99.8083 103.133 100.302 102.966C101.717 103.243 104.653 104.268 106.76 105.703C110.79 108.46 109.984 111.578 108.293 116.022C108.129 116.455 108.345 116.94 108.78 117.105L108.782 117.105Z" fill="#FCFCFC"/>
<path d="M108.18 93.5259C105.705 91.5774 102.617 95.7603 102.959 96.8444C103.243 97.7375 104.562 97.5901 104.616 96.6542C104.841 96.1907 105.71 94.9549 106.518 94.7171C107.795 94.3433 107.263 96.6565 106.974 98.0308C106.649 99.5767 106.416 100.695 107.273 101.211C108.352 101.858 109.372 100.707 113.242 97.5682C113.602 97.2767 113.657 96.7472 113.366 96.3866C113.074 96.0259 112.545 95.9711 112.184 96.2626C108.431 99.315 108.954 98.9383 108.429 99.3268C108.748 97.4518 109.682 94.709 108.178 93.5242L108.18 93.5259Z" fill="#FCFCFC"/>
<path d="M42.6089 187.367C41.3111 187.899 40.0157 188.285 38.8928 188.604C33.7181 189.505 33.275 184.752 37.0937 182.396C37.6794 182.106 39.3392 181.481 39.9921 181.431C40.5509 182.038 41.5634 181.554 41.4398 180.738C41.3868 180.381 41.1679 180.079 40.8426 179.911C39.622 179.287 36.367 180.882 36.275 180.931C30.6941 184.365 32.2328 191.476 39.2642 190.239C40.5179 189.887 41.8686 189.484 43.2468 188.921C43.6754 188.745 43.8817 188.255 43.7056 187.826C43.5278 187.397 43.0375 187.191 42.6105 187.367L42.6089 187.367Z" fill="#FCFCFC"/>
<path d="M45.6862 176.188C46.237 175.947 46.9673 175.908 47.0559 176.082C46.5505 178.16 44.4385 179.178 44.6423 180.406C44.7723 181.183 45.7966 181.375 46.5876 181.369C48.2889 181.357 50.8583 180.413 52.1201 180.482C52.589 180.517 52.9827 180.16 53.0112 179.698C53.1366 177.791 49.1503 179.508 46.8438 179.673C47.6631 178.715 48.3896 177.7 48.6862 176.475C49.1899 174.397 46.9551 173.792 44.9662 174.667C44.3488 174.98 43.8371 175.508 43.336 175.89C42.9669 176.171 42.8952 176.697 43.175 177.066C43.4566 177.434 43.9828 177.506 44.3519 177.227C44.7928 176.893 45.3582 176.352 45.6811 176.185L45.6862 176.188Z" fill="#FCFCFC"/>
<path d="M63.2597 181.537C63.7232 181.533 64.0966 181.154 64.0932 180.691C64.0898 180.227 63.7108 179.854 63.2473 179.857L58.7179 179.891C58.2544 179.894 57.8809 180.273 57.8844 180.736C57.8878 181.2 58.2667 181.573 58.7302 181.57L63.2597 181.537Z" fill="#FCFCFC"/>
<path d="M57.0371 184.488C56.6187 185.383 57.7694 186.318 58.4745 185.602C60.6623 185.748 58.7091 185.752 61.8283 185.571C62.4679 185.534 63.1092 185.498 63.7503 185.429C64.8395 185.312 64.6946 183.655 63.5701 183.759C62.9575 183.826 62.3448 183.861 61.7303 183.896C59.343 184.032 60.1748 184.078 59.2251 183.983C58.1427 183.877 57.3595 183.797 57.0337 184.488L57.0371 184.488Z" fill="#FCFCFC"/>
<path d="M78.4432 183.441C79.2807 182.227 78.532 181.588 79.3266 185.038C79.4168 185.429 79.7664 185.693 80.151 185.69C80.6901 185.686 81.0845 185.186 80.9647 184.663C80.5449 182.841 80.5967 181.89 80.2872 180.693C80.6298 180.223 80.4851 179.734 79.7124 179.263C76.2481 176.833 69.6414 178.277 71.1494 183.264C72.2289 186.866 76.6119 186.098 78.4432 183.441ZM75.7745 179.804C77.6034 179.791 78.847 179.887 77.059 182.489C76.3594 183.508 74.9484 184.17 73.9563 184.006C73.366 183.906 72.9734 183.506 72.7565 182.781C72.1316 180.711 73.7155 179.819 75.7745 179.804Z" fill="#FCFCFC"/>
<path d="M84.117 175.682C83.1177 176.363 82.3289 176.901 82.5686 177.749C82.8996 178.918 84.509 178.74 88.6555 178.709C89.119 178.706 89.4925 178.327 89.4891 177.863C89.4857 177.4 89.1067 177.026 88.6432 177.03L85.0844 177.056C86.4648 176.117 88.7408 174.552 87.5739 172.546C86.1454 170.142 79.7358 172.122 81.5102 174.737C82.1791 175.722 83.4805 174.77 82.893 173.904C83.0021 173.673 83.9039 173.2 84.9902 173.15C85.6853 173.123 86.0611 173.288 86.1257 173.397C86.4795 174.004 85.3269 174.859 84.117 175.684L84.117 175.682Z" fill="#FCFCFC"/>
<path d="M100.956 180.42C100.952 179.957 100.573 179.583 100.11 179.587C99.2515 179.593 98.3956 179.67 97.5833 179.76C97.4758 178.392 97.6135 177.01 97.993 175.638C98.1174 175.192 97.8553 174.729 97.4077 174.605C96.96 174.482 96.4984 174.742 96.374 175.19C95.9404 176.75 95.7858 178.327 95.9045 179.861C94.7787 179.782 93.6344 179.481 93.2375 180.322C92.8191 181.211 93.9665 182.158 94.675 181.439C95.2278 181.475 95.7457 181.55 96.0883 181.548C96.2353 182.816 96.406 183.868 96.4123 184.731C96.4157 185.195 96.7947 185.568 97.2582 185.565C97.7218 185.561 98.0952 185.182 98.0918 184.719C98.0846 183.745 97.9086 182.654 97.7652 181.428C98.564 181.34 99.3395 181.272 100.12 181.266C100.584 181.263 100.957 180.884 100.954 180.42L100.956 180.42Z" fill="#FCFCFC"/>
<path d="M233.097 182.031C232.811 181.355 231.862 179.522 231.862 179.522C230.352 175.826 228.663 172 227.255 168.245C225.711 164.258 219.32 146.714 216.728 140.01C215.056 135.793 206.17 114.189 205.947 113.494C204.599 109.288 203.666 107.094 202.379 106.784C200.595 106.204 200.326 109.605 200.063 110.687L184.628 186.788C183.976 188.314 184.307 189.449 184.711 190.141C186.575 193.333 193.693 193.857 197.405 194.137C205.855 194.776 225.26 194.671 231.517 188.98C233.709 186.986 234.078 184.37 233.095 182.035L233.097 182.031ZM202.215 108.695C202.975 109.727 203.984 112.873 204.347 114.004C205.141 116.48 210.587 129.077 215.164 140.621C219.922 152.934 225.847 170.442 231.432 182.403C230.322 181.949 228.893 181.339 228.592 181.2C225.499 180.195 222.863 179.737 220.338 179.585C211.84 179.069 193.659 178.489 186.92 183.846L202.213 108.696L202.215 108.695ZM230.388 187.734C225.076 192.564 207.82 193.235 197.537 192.458C194.763 192.248 187.598 191.749 186.163 189.289C184.865 187.068 188.456 183.7 194.553 182.434C201.562 180.786 209.934 180.632 220.237 181.258C222.64 181.405 225.134 181.838 227.962 182.748C230.291 183.899 234.191 184.277 230.388 187.733L230.388 187.734Z" fill="#FCFCFC"/>
<path d="M110.838 221.542C102.111 223.185 93.2292 224.377 84.5741 225.524C86.2951 220.018 83.447 214.303 80.2776 210.818C81.407 210.017 82.5518 209.276 83.6716 208.551C100.466 197.334 100.555 197.775 102.249 196.338C102.731 196.404 103.207 196.007 103.205 195.5C103.203 195.173 102.949 194.723 102.649 194.589C101.711 194.161 100.968 195.436 100.154 195.821C97.0608 197.821 97.4 197.361 82.7494 207.147C82.5806 207.256 52.1602 228.527 51.0518 229.203C48.7148 230.649 49.4859 231.833 50.9317 231.822C51.7713 231.816 62.756 230.034 65.2222 229.703C83.3425 227.268 98.6687 225.541 111.145 223.194C112.231 222.989 111.935 221.341 110.834 221.544L110.838 221.542ZM53.0886 229.851C54.7644 228.695 78.8977 211.799 78.8977 211.799C81.8464 214.963 84.5688 220.239 82.9159 225.197C82.8551 225.38 82.8615 225.57 82.9198 225.739C74.699 226.794 61.2564 228.443 53.0869 229.851L53.0886 229.851Z" fill="#FCFCFC"/>
<path d="M98.742 205.266C98.5503 205.017 98.1907 204.981 97.9536 205.181C97.5464 205.524 97.7165 205.368 96.3946 206.714C95.5989 207.686 91.2116 210.832 92.6089 212.194C92.9084 212.486 93.2825 212.664 96.6733 212.639C97.5097 212.633 98.3191 212.616 98.6079 212.61C98.6427 212.999 98.9151 216.246 99.0521 217.508C99.171 218.612 100.841 218.433 100.722 217.327C100.349 213.867 99.958 207.096 99.3291 206.09C99.1949 205.874 99.0048 205.605 98.7419 205.265L98.742 205.266ZM94.4656 210.936C95.2967 209.982 96.292 209.203 98.0024 207.47C98.1461 208.059 98.4381 210.765 98.4545 210.933C96.3823 210.975 95.1712 210.964 94.4656 210.936Z" fill="#FCFCFC"/>
<path d="M107.231 206.88C107.695 206.876 108.068 206.497 108.065 206.034C108.061 205.57 107.682 205.197 107.219 205.2C106.708 205.204 102.271 205.463 101.767 205.492C100.888 205.544 100.675 206.745 101.48 207.1C101.502 207.374 101.546 208.438 101.548 208.524C101.581 212.971 102.117 214.202 105.741 211.622C106.618 210.997 107.718 210.223 108.295 210.406C108.59 210.499 108.88 210.917 109.108 211.565C109.792 213.66 107.344 215.56 105.321 215.79C104.273 215.907 104.365 217.472 105.421 217.464C106.787 217.454 109.089 216.342 110.205 214.604C111.744 212.209 110.44 209.325 108.802 208.806C106.937 208.214 105.007 210.26 103.542 211.065C103.524 210.896 103.252 207.258 103.277 207.09C105.038 206.99 106.954 206.884 107.229 206.881L107.231 206.88Z" fill="#FCFCFC"/>
<path d="M41.4365 212.004C39.8748 211.591 37.624 210.87 35.2692 209.945C34.8743 209.226 33.6531 209.426 33.5147 210.252C33.3311 211.316 34.5817 211.46 36.6517 212.254C38.2214 212.857 39.7396 213.291 41.005 213.628C42.0887 213.905 42.5034 212.288 41.4365 212.004Z" fill="#FCFCFC"/>
<path d="M49.3848 210.012C48.4551 208.06 47.5772 206.08 46.8366 204.266C46.6914 203.935 46.4873 203.122 46.3385 202.528C46.0322 201.31 45.8732 200.691 45.0862 200.798C44.2674 200.903 44.1176 202.002 44.5758 202.409C45.02 204.125 44.8627 204.42 47.8668 210.733C48.0663 211.152 48.5665 211.33 48.9866 211.132C49.405 210.932 49.5827 210.43 49.3848 210.012Z" fill="#FCFCFC"/>
<path d="M53.7833 204.673C53.7867 205.136 54.1656 205.51 54.6292 205.506C55.0927 205.503 55.4661 205.124 55.4627 204.66C55.4504 202.994 56.375 199.684 55.4497 197.867C55.2384 197.453 54.7333 197.289 54.32 197.499C53.9067 197.71 53.7425 198.215 53.9521 198.628C54.5605 199.823 53.7713 203.05 53.7833 204.673Z" fill="#FCFCFC"/>
<path d="M174.17 145.205C173.887 142.332 169.001 140.645 166.027 143.923C162.73 147.558 166.193 152.19 168.771 151.615C170.756 151.172 171.864 148.108 172.625 146.152C172.802 147.57 173.18 149.452 173.292 150.299C173.438 151.418 175.102 151.174 174.957 150.078C174.894 149.61 174.807 149.115 174.716 148.606C174.276 146.158 174.27 145.515 174.17 145.205ZM167.406 149.509C164.426 146.668 168.454 142.385 171.592 144.265C170.497 146.608 169.329 151.332 167.406 149.509Z" fill="#FCFCFC"/>
<path d="M185.533 142.318C183.056 141.026 180.842 143.657 179.888 146.249C179.812 146.404 179.753 146.583 179.707 146.774C179.244 144.235 179.283 139.287 178.215 136.178C178.066 135.739 177.589 135.507 177.148 135.656C176.709 135.807 176.476 136.284 176.627 136.723C177.892 140.419 177.393 146.308 178.572 148.857C179.212 150.241 181.789 150.696 182.558 150.69C187.069 150.657 190.123 144.64 185.533 142.318ZM185.985 146.522C184.883 149.622 180.023 149.891 181.428 146.915C181.947 145.537 183.345 143.078 184.766 143.811C186.295 144.585 186.273 145.712 185.985 146.522Z" fill="#FCFCFC"/>
<path d="M153.578 178.652C152.469 179.223 151.401 177.763 150.944 176.72C150.897 176.616 150.871 176.276 150.857 176.072C150.703 174.198 149.04 172.683 145.489 173.756C142.987 174.511 141.269 177.386 142.516 179.988C144.275 183.439 148.014 181.219 149.579 177.745C150.005 178.556 150.869 179.876 152.159 180.322C153.462 180.773 155.273 180.131 154.708 179.02C154.496 178.607 153.991 178.443 153.578 178.652ZM148.128 176.867C147.652 178.083 146.057 179.987 144.991 180.039C144.836 180.05 144.442 180.065 144.024 179.242C143.243 177.613 144.472 175.812 145.956 175.366C147.903 174.781 148.932 174.689 148.13 176.865L148.128 176.867Z" fill="#FCFCFC"/>
<path d="M141.99 192.532C140.446 192.033 138.77 192.942 137.338 195.137C137.201 195.415 137.085 195.646 136.984 195.84C136.391 193.841 136.392 190.922 136.161 189.629C136.112 189.354 136.013 188.797 136.032 188.582C136.484 187.646 135.144 186.883 134.573 187.758C134.244 188.261 134.337 188.972 134.507 189.921C134.708 191.052 134.753 194.614 135.493 196.631C136.201 198.562 138.155 199.085 140.212 199.07C144.683 199.037 144.836 193.386 141.99 192.532ZM141.666 196.891C141.236 197.327 137.707 198.196 138.799 195.958C139.141 195.436 140.336 193.762 141.488 194.136C142.412 194.413 142.408 196.217 141.664 196.891L141.666 196.891Z" fill="#FCFCFC"/>
<path d="M188.731 219.004C187.451 218.577 185.543 216.379 184.441 215.511C184.077 215.223 183.55 215.286 183.262 215.65C182.974 216.015 183.037 216.542 183.402 216.83C183.954 217.268 185.13 218.478 186.014 219.219C168.215 220.398 169.27 220.074 163.66 220.53C161.805 220.913 159.915 221.151 159.256 221.087C159.148 220.644 159.199 219.581 159.218 219.203C159.281 217.955 157.797 200.625 157.856 199.541C158.259 198.818 157.481 198.007 156.741 198.384C156.035 198.744 156.134 199.68 156.27 200.975C156.327 201.522 156.491 205.696 156.867 209.52C156.958 210.522 157.571 218.518 157.54 219.121C157.472 220.534 157.464 221.753 158.085 222.365C158.971 223.238 162.598 222.459 163.895 222.188C164.797 222.117 187.083 220.964 187.963 220.758C185.75 223.728 185.552 224.284 185.643 224.799C185.831 225.892 187.428 225.711 187.338 224.638C187.71 223.841 189.889 221.011 190.065 220.742C190.379 220.267 190.298 219.527 188.733 219.004L188.731 219.004Z" fill="#FCFCFC"/>
<path d="M236.461 119.393C234.827 117.346 232.199 118.905 230.739 121.081C230.614 121.238 230.347 121.678 230.221 121.872C229.924 120.351 229.841 117.54 229.701 116.942C229.698 116.579 229.273 114.076 229.238 113.354C229.543 112.568 228.624 111.877 227.936 112.373C227.425 112.748 227.458 113.119 227.876 115.919C228.341 119.023 228.382 124.885 229.637 125.597C232.784 127.387 239.1 123.124 236.461 119.393ZM234.727 122.733C233.634 123.938 231.686 124.626 230.636 124.215C230.876 123.985 231.152 123.547 231.665 122.733C234.69 117.953 236.428 120.857 234.728 122.733L234.727 122.733Z" fill="#FCFCFC"/>
<path d="M244.916 126.817C245.365 126.951 245.83 126.694 245.961 126.255C246.096 125.811 245.844 125.342 245.399 125.21C242.35 124.288 241.81 120.268 242.262 117.158C242.874 114.3 243.617 113.459 244.093 113.067C245.047 112.283 244.24 111.466 243.538 111.471C240.506 111.493 237.921 124.704 244.913 126.817L244.916 126.817Z" fill="#FCFCFC"/>
<path d="M248.314 123.445C249.622 123.488 250.629 121.922 251.349 120.813C251.37 121.102 251.407 121.401 251.477 121.729C251.571 122.184 252.017 122.476 252.471 122.38C252.925 122.286 253.216 121.841 253.122 121.386C252.878 120.217 253.16 119.276 252.74 118.551C253.386 118.262 253.408 117.343 252.768 117.029C252.048 116.676 251.534 115.061 249.609 115.075C245.159 115.108 245.182 123.356 248.314 123.447L248.314 123.445ZM248.395 121.774C247.376 121.287 247.455 116.771 249.621 116.755C252.811 116.731 248.818 121.702 248.395 121.774Z" fill="#FCFCFC"/>
<path d="M261.601 115.998L259.303 116.286C259.235 115.539 259.307 116.138 258.855 113.212C258.785 112.754 258.357 112.435 257.901 112.505C257.443 112.574 257.125 113.001 257.194 113.459L257.601 116.533C257.18 116.585 256.652 116.859 256.248 117.066C255.87 116.969 255.468 117.149 255.291 117.511C255.132 117.835 255.178 118.362 255.433 118.615C256.185 119.362 257.334 118.243 257.802 118.2C257.864 118.953 257.897 119.724 257.998 120.487C258.057 120.932 258.461 121.268 258.941 121.209C259.401 121.149 259.723 120.727 259.663 120.267C259.565 119.524 259.541 118.815 259.466 117.954L261.798 117.666C262.891 117.536 262.721 115.879 261.601 115.998Z" fill="#FCFCFC"/>
<path d="M263.682 111.721C264.054 112.123 263.923 113.635 263.827 114.739C263.59 117.482 264.786 120.464 265.56 120.64C267.294 121.034 270.411 120.341 271.477 118.637C271.85 118.039 272.288 116.805 271.034 115.244C269.498 113.28 266.895 114.487 265.401 116.458C265.433 114.392 266.084 111.849 264.916 110.581C264.601 110.241 264.07 110.22 263.728 110.533C263.388 110.848 263.367 111.379 263.68 111.721L263.682 111.721ZM266.769 117.437C267.338 116.695 268.343 115.925 269.047 115.92C269.221 115.889 269.46 115.957 269.718 116.286C270.42 117.16 270.152 117.585 270.053 117.745C269.656 118.378 268.502 118.85 267.415 119.011C265.355 119.318 265.606 118.896 266.769 117.435L266.769 117.437Z" fill="#FCFCFC"/>
<path d="M271.203 110.295C272.272 110.137 273.045 110.446 273.652 111.261C275.355 113.554 274.929 118.799 274.056 120.657C273.793 121.216 274.207 121.858 274.822 121.853C275.136 121.851 275.435 121.673 275.577 121.371C276.626 119.138 277.202 113.223 275.002 110.26C274.028 108.951 272.633 108.385 270.962 108.634C270.503 108.701 270.187 109.128 270.254 109.586C270.321 110.046 270.747 110.364 271.206 110.295L271.203 110.295Z" fill="#FCFCFC"/>
<path d="M287.454 182.938C286.473 181.916 285.329 180.715 283.97 179.568C283.615 179.268 283.087 179.313 282.787 179.667C282.487 180.022 282.531 180.551 282.886 180.851C284.694 182.377 287.58 185.456 288.407 186.486C288.001 186.472 287.589 186.445 287.162 186.389C281.627 186.166 274.284 186.449 267.633 186.53C266.102 172.952 268.507 161.77 262.572 160.543C260.352 160.089 258.112 161.259 256.084 163.936C253.714 167.218 252.473 171.867 251.881 178.073C251.65 180.491 251.881 183.984 251.936 184.254C252.156 185.314 253.846 185.241 253.588 183.916C253.453 181.989 253.367 180.173 253.551 178.232C254.116 172.306 255.261 167.942 257.433 164.933C258.548 163.462 260.28 161.794 262.233 162.188C266.404 163.05 264.583 174.221 265.945 186.544L250.018 186.661C249.122 181.552 247.104 154.695 248.113 146.239C249.989 147.889 251.528 149.359 252.906 150.812C253.226 151.149 253.757 151.161 254.094 150.843C254.431 150.525 254.443 149.993 254.125 149.656C252.374 147.808 248.664 144.381 248.231 144.137C248.179 143.511 247.986 143.076 247.546 142.859C246.848 142.515 245.958 142.905 244.495 144.759C242.586 146.439 240.914 148.263 239.383 150.339C239.106 150.712 239.186 151.237 239.559 151.513C239.932 151.789 240.459 151.709 240.733 151.336C242.923 148.373 244.151 147.477 246.551 144.972C246.481 145.991 246.35 146.643 246.363 146.823C245.593 157.445 247.333 179.389 248.318 186.66C247.002 186.633 245.79 186.56 244.862 186.585C243.833 186.421 242.812 186.462 241.2 186.474C240.737 186.477 240.363 186.856 240.367 187.32C240.37 187.783 240.749 188.157 241.212 188.153C242.813 188.141 243.728 188.106 244.736 188.253C245.981 188.244 247.212 188.322 248.516 188.341L249.239 195.173C249.359 195.971 249.957 198.002 249.792 198.594C249.643 199.131 250.05 199.662 250.607 199.658C252.009 199.648 251.41 197.204 251.093 195.836C250.841 194.744 250.985 195.719 250.2 188.339L266.141 188.222C266.443 190.502 267.02 192.869 267.888 195.411C270.267 203.141 276.33 203.902 278.775 199.251C280.443 195.984 279.846 192.364 280.173 187.993C281.809 187.982 285.874 187.961 287.476 188.112C286.723 189.221 285.846 190.801 284.914 191.462C284.248 191.936 284.589 192.993 285.407 192.987C286.364 192.98 287.848 190.62 288.366 189.815C289.255 188.433 289.319 188.525 289.352 188.177L289.775 188.174C290.136 188.171 290.455 187.937 290.568 187.594C290.859 186.696 290.005 185.594 287.453 182.938L287.454 182.938ZM277.286 198.479C275.726 201.441 272.838 200.784 271.176 198.329C269.337 195.617 268.223 190.964 267.835 188.206C269.293 188.187 278.45 188.005 278.45 188.005C278.207 191.461 278.755 195.602 277.286 198.479Z" fill="#FCFCFC"/>
<path d="M226.842 218.412C218.329 218.478 219.283 218.544 218.327 218.51C221.008 216.662 226.301 213.24 225.303 210.16C225.053 209.509 224.562 209.052 223.884 208.839C221.928 208.222 218.954 209.846 218.354 210.259C218.337 210.267 216.726 211.149 216.559 212.22C216.41 213.199 217.437 213.901 218.087 213.242C218.309 213.017 218.378 212.697 218.294 212.414C219.267 211.32 223.29 209.611 223.72 210.72C224.057 211.76 222.359 213.622 218.673 216.25L218.274 216.551C218.246 216.564 215.43 218.105 215.439 219.21C215.448 220.495 216.809 220.166 226.854 220.092C227.318 220.088 227.691 219.709 227.688 219.246C227.684 218.782 227.305 218.409 226.842 218.412Z" fill="#FCFCFC"/>
<path d="M237.747 212.921L233.738 212.947C233.691 212.558 233.497 210.295 233.405 209.914C233.435 209.501 233.886 208.485 232.987 208.178C232.447 207.993 231.789 208.462 231.849 209.096C231.798 209.342 231.722 209.658 231.738 210.043C231.824 210.534 232.029 212.788 232.048 212.963L229.316 212.983C228.852 212.986 228.479 213.365 228.482 213.829C228.486 214.292 228.865 214.666 229.328 214.662L232.188 214.641L232.551 219.145C232.588 219.618 233.005 219.954 233.453 219.916C233.915 219.879 234.261 219.475 234.224 219.013L233.87 214.63L237.759 214.602C238.223 214.598 238.596 214.219 238.593 213.756C238.589 213.292 238.21 212.919 237.747 212.922L237.747 212.921Z" fill="#FCFCFC"/>
<path d="M245.225 207.085C244.42 207.222 241.897 210.432 241.884 210.46C241.814 210.602 241.727 210.87 241.678 211.014C240.368 211.879 242.732 214.053 243.358 211.264C243.489 211.07 244.183 210.28 244.805 209.612C244.78 210.142 244.694 210.959 244.697 211.321C244.716 213.971 244.736 216.712 244.63 219.335C244.584 220.445 246.263 220.522 246.308 219.403C246.433 216.319 246.339 211.561 246.421 210.591C246.537 209.188 246.582 208.063 245.974 207.321C245.783 207.133 245.492 207.043 245.226 207.088L245.225 207.085Z" fill="#FCFCFC"/>
<path d="M259.174 212.39C256.562 212.637 254.072 212.931 253.473 212.771C252.512 212.291 251.748 213.701 252.673 214.246C253.435 214.696 255.711 214.457 259.354 214.061C260.433 213.944 260.31 212.284 259.174 212.391L259.174 212.39Z" fill="#FCFCFC"/>
<path d="M259.083 216.29C257.848 216.411 256.171 216.449 255.135 216.567L253.247 216.581C252.784 216.585 252.411 216.964 252.414 217.427C252.417 217.891 252.796 218.264 253.26 218.261C256.049 218.237 259.076 217.979 259.247 217.961C260.36 217.851 260.179 216.167 259.082 216.29L259.083 216.29Z" fill="#FCFCFC"/>
<path d="M277.124 218C277.121 217.537 276.742 217.163 276.278 217.167C276.278 217.167 268.269 217.246 267.947 217.272C267.393 217.316 267.456 217.401 268.285 216.892C270.928 215.251 276.283 212.499 275.12 209.288C274.266 206.933 270.405 206.955 268.27 207.955C266.586 208.528 265.443 210.248 266.71 211.497C267.487 212.264 268.657 211.089 267.85 210.294C267.883 210.124 268.36 209.699 268.894 209.512C270.146 208.934 273.103 208.658 273.541 209.861C274.312 211.982 266.862 215.708 265.454 216.578C264.461 217.084 263.962 217.338 264.132 218.031C264.488 219.498 268.061 218.905 268.742 218.9L276.292 218.845C276.756 218.841 277.129 218.462 277.126 217.999L277.124 218Z" fill="#FCFCFC"/>
<path d="M284.992 209.694C284.603 209.44 284.082 209.548 283.83 209.936C282.713 211.635 281.224 214.837 281.04 215.186C280.486 214.288 279.924 213.507 279.431 212.652C279.331 212.028 279.34 211.005 278.32 210.759C277.372 210.538 276.876 211.819 277.7 212.302C277.85 213.24 277.525 212.874 278.955 215.045C280.106 216.799 279.928 216.694 280.156 216.872C278.874 219.31 277.511 221.941 275.984 224.635C275.664 225.2 276.079 225.894 276.721 225.889C277.011 225.887 277.292 225.733 277.446 225.464C280.936 219.313 284.189 212.442 285.237 210.858C285.493 210.471 285.383 209.95 284.995 209.696L284.992 209.694Z" fill="#FCFCFC"/>
<path d="M317.905 97.5429C317.111 85.54 316.966 86.1708 316.574 66.5693C316.194 47.5875 316.04 51.3788 316.212 47.579C316.721 36.4095 315.581 36.1542 307.656 37.1026C306.452 37.2474 306.933 37.2288 299.56 37.6794C281.235 38.7949 284.13 39.1112 281.195 39.1328C280.564 39.1374 280.011 39.9694 280.47 40.5739C280.523 41.4132 280.443 42.3508 280.449 43.2173C280.457 44.2517 280.52 44.8877 280.607 47.2868C280.948 56.8362 281.414 54.7723 281.565 75.2924C281.663 88.4995 281.784 87.3701 281.865 92.2899C281.92 95.6414 281.977 99.1071 282.8 102.297C283.663 105.481 289.409 104.006 291.443 103.991C297.309 103.824 303.085 103.216 309.083 102.728C311.127 102.562 314.823 102.968 316.95 101.955C318.414 101.208 318.098 98.9151 317.908 97.5445L317.905 97.5429ZM316.205 100.447C314.553 101.233 310.934 100.894 308.945 101.055C303.037 101.532 297.411 102.141 291.41 102.312C290.027 102.322 284.821 103.347 284.421 101.868C283.413 97.9546 283.63 93.3768 283.474 89.3493C282.783 69.1556 283.957 77.8324 282.208 45.2766C282.019 41.7112 282.224 42.7005 282.163 40.7982C291.646 39.6016 303.894 39.2479 307.857 38.772C309.54 38.5699 313.039 38.1495 313.771 38.8074C315.264 40.1785 314.343 48.3048 314.472 50.4181C314.679 55.8273 315.009 72.3124 315.082 75.2053C314.594 74.6446 312.533 72.7067 312.283 72.062C312.296 71.0359 310.777 70.8892 310.615 71.9215C310.403 73.2632 313.102 75.4281 313.839 76.3345C313.961 76.4848 314.674 77.21 315.145 77.5894C315.634 94.7938 316.811 100.137 316.203 100.447L316.205 100.447Z" fill="#FCFCFC"/>
<path d="M283.592 43.7888C284.308 44.494 285.097 45.3968 285.876 46.1619C286.209 46.4904 286.743 46.4797 287.063 46.1532C287.388 45.8233 287.384 45.2909 287.054 44.9659C286.861 44.7758 284.417 42.2392 284.25 42.0591C284.137 41.3461 283.081 40.9709 282.582 41.6128C282.066 42.2834 282.642 42.8502 283.594 43.7871L283.592 43.7888Z" fill="#FCFCFC"/>
<path d="M290.563 50.6563C293.477 53.527 293.239 53.6513 293.822 53.647C294.537 53.6418 294.924 52.7908 294.443 52.2501C293.478 51.1622 291.899 49.5833 291.314 49.0703C290.69 48.5257 290.791 48.4527 290.531 48.3169C290.506 48.2852 290.475 48.2451 290.451 48.2117C290.19 47.829 289.667 47.7287 289.286 47.9919C288.903 48.2517 288.803 48.773 289.063 49.1557C289.414 49.6738 290.347 50.4446 290.563 50.6563Z" fill="#FCFCFC"/>
<path d="M296.545 57.2791C297.048 58.0227 299.943 60.9003 300.582 61.5288C300.912 61.8539 301.444 61.8499 301.769 61.52C302.094 61.1901 302.091 60.6578 301.761 60.3327C301.257 59.8376 298.311 56.9184 297.939 56.3064C297.498 54.5663 295.473 55.8258 296.344 56.8489C296.389 57.0165 296.452 57.2042 296.545 57.2774L296.545 57.2791Z" fill="#FCFCFC"/>
<path d="M304.262 65.7797C304.44 65.9548 304.752 66.8762 307.355 69.0724C307.514 69.2072 307.709 69.2713 307.902 69.2699C308.68 69.2642 309.032 68.2891 308.437 67.788C306.064 65.7866 305.884 65.0758 305.425 64.5183C305.248 64.1702 304.784 63.8663 304.405 63.9648C303.808 64.1103 303.537 64.8832 303.975 65.3687C304.053 65.5159 304.14 65.658 304.264 65.7797L304.262 65.7797Z" fill="#FCFCFC"/>
<path d="M272.068 138.152C271.541 140.2 272.52 142.979 274.615 143.269C276.982 143.595 280.107 140.834 281.82 139.17C283.059 140.663 284.089 142.518 284.761 144.483C284.882 144.833 285.211 145.054 285.562 145.051C286.134 145.047 286.535 144.482 286.35 143.941C285.606 141.764 284.456 139.702 283.068 138.046C284.04 137.06 283.133 138.017 286.637 133.527C286.924 133.162 286.858 132.634 286.493 132.349C286.128 132.063 285.599 132.127 285.315 132.494C281.944 136.808 282.619 136.11 281.915 136.822C280.896 135.907 279.528 135.135 278.013 134.645C275.319 133.992 272.726 135.593 272.068 138.152ZM275.221 136.587C275.9 136.193 276.796 136.077 277.556 136.259C278.741 136.645 279.836 137.247 280.664 137.955C277.064 141.461 275.413 141.686 274.846 141.605C273.541 141.425 272.729 138.015 275.222 136.587L275.221 136.587Z" fill="#FCFCFC"/>
<path d="M295.33 138.938C295.793 138.934 296.167 138.555 296.163 138.092C296.16 137.628 295.781 137.255 295.317 137.258C295.317 137.258 291.849 137.275 291.678 137.268C290.324 137.204 289.761 137.18 289.576 137.9C289.413 138.536 290.068 139.181 290.729 138.913C291.282 138.91 290.736 138.971 295.33 138.938Z" fill="#FCFCFC"/>
<path d="M297.571 141.65C296.271 141.53 294.841 141.541 293.461 141.551C292.756 141.556 291.468 141.011 291.022 141.913C290.861 142.237 290.982 142.747 291.24 143C291.529 143.287 291.974 143.319 292.3 143.098C292.571 143.136 293.174 143.233 293.472 143.23C297.245 143.203 297.026 143.33 297.5 143.327C298.558 143.319 298.624 141.748 297.57 141.65L297.571 141.65Z" fill="#FCFCFC"/>
<path d="M304.655 138.715C302.945 140.287 301.814 141.324 302.242 142.442C302.737 143.733 304.198 143.529 310.083 143.486C310.546 143.482 310.92 143.103 310.916 142.64C310.913 142.176 310.534 141.803 310.07 141.806C304.807 141.845 304.528 141.876 303.975 141.769C305.403 139.817 312.068 135.732 309.141 132.183C308.284 131.143 306.864 130.632 305.236 130.784C300.164 131.254 299.182 136.807 301.595 137.593C302.659 137.942 303.18 136.355 302.132 136.013C301.501 135.099 302.619 132.713 305.391 132.457C306.452 132.362 307.349 132.649 307.846 133.252C308.946 134.584 307.05 136.514 304.655 138.715Z" fill="#FCFCFC"/>
<path d="M321.096 142.678C320.975 141.975 320.96 141.042 320.834 140.337C320.617 138.465 321.436 135.696 318.074 134.988C316.267 134.612 314.073 135.372 312.855 136.805C310.862 139.149 312.156 142.43 313.83 142.839C315.796 143.325 317.858 140.564 319.058 139.998C319.243 140.564 319.304 142.179 319.441 142.966C319.513 143.377 319.869 143.665 320.274 143.662C320.795 143.658 321.184 143.188 321.096 142.678ZM316.567 139.774C314.626 141.413 314.171 141.616 313.74 140.559C313.351 139.556 313.484 138.658 314.135 137.893C314.959 136.922 316.5 136.375 317.728 136.632C321.299 137.385 317.345 139.117 316.567 139.774Z" fill="#FCFCFC"/>
<path d="M312.836 198.099C312 198.817 308.011 202.549 307.923 202.731C307.817 202.878 307.462 203.243 307.113 203.563C306.764 196.946 306.171 170.444 306.199 169.948C306.322 167.791 306.461 165.348 305.876 163.448C305.738 163.004 305.271 162.758 304.825 162.894C304.381 163.031 304.133 163.5 304.271 163.944C304.985 166.259 304.405 169.903 304.424 172.526C304.424 172.526 305.411 203.203 305.432 203.575C304.181 202.461 302.926 200.988 302.373 200.451C301.384 199.598 300.403 198.632 299.538 197.657C299.228 197.309 298.697 197.279 298.352 197.587C298.005 197.895 297.973 198.426 298.281 198.773C299.196 199.803 300.231 200.823 301.235 201.687C301.739 202.184 303.92 204.682 305.129 205.48C306.61 206.46 308.095 205.148 309.202 203.785C311.357 201.767 312.388 200.698 313.929 199.377C314.281 199.074 314.321 198.544 314.019 198.192C313.718 197.84 313.187 197.8 312.835 198.102L312.836 198.099Z" fill="#FCFCFC"/>
<path d="M274.799 170.208C269.068 170.885 273.725 160.906 273.725 160.906C273.725 160.906 267.759 164.468 264.523 158.456C263.372 155.949 263.225 153.055 264.086 150.407L264.455 149.273C263.334 150.665 261.708 152.06 261.333 152.441C256.713 157.13 250.08 162.296 243.039 162.515C239.177 162.636 236.224 159.676 236.196 155.897C236.195 155.771 236.185 154.388 236.06 154.515C232.554 156.93 229.335 164 224.699 166.551L224.7 166.677C224.072 166.934 223.447 167.442 222.946 167.822L223.073 167.947C224.232 171.588 225.519 175.352 226.679 179.118C230.584 192.417 233.815 202.01 247.728 204.543C249.303 207.082 250.067 211.604 250.087 214.301C258.154 220.166 269.169 215.232 275.122 209.062C273.816 203.65 272.334 192.744 271.886 187.577C272.244 186.659 272.716 185.759 273.399 185.065C274.398 184.178 277.051 185.416 278.307 185.281C280.319 185.014 282.071 183.744 283.065 182.101C288.463 174.18 279.7 164.147 274.799 170.21L274.799 170.208Z" fill="#FFF2F0"/>
<path d="M138.254 199.116C136.638 196.142 133.52 191.893 130.262 190.646C128.368 189.78 125.983 190.425 124.864 192.195C124.359 192.031 124.696 192.117 123.352 191.828C122.472 191.835 121.592 192.093 120.715 192.478C118.915 193.851 119.636 194.017 119.089 193.749C116.937 192.129 115.314 193.777 114.45 196.049C114.199 196.05 113.064 195.681 112.812 195.683C112.308 195.687 111.808 195.942 111.305 196.072C109.801 196.837 109.95 199.981 110.088 201.616C110.206 203.472 111.94 206.049 114.109 204.463C116.29 210.106 124.056 220.489 129.62 222.861L130 223.109C132.501 221.077 140.519 216.489 143.788 216.087C143.771 213.763 141.721 205.497 138.255 199.116L138.254 199.116Z" fill="#FFF2F0"/>
<path d="M302.558 215.046C298.133 212.185 287.769 205.845 277.456 206.297L277.079 206.426C270.599 214.643 258.477 220.024 250.084 213.921C248.556 212.794 247.529 211.528 247.17 211.175C237.69 205.206 222.164 215.258 217.288 219.573C212.913 223.38 208.791 227.562 203.907 230.617C193.136 237.365 178.057 239.992 166.196 235.172C160.392 232.825 155.907 228.39 151.768 223.579C150.023 221.549 147.564 216.689 144.793 216.207L144.039 216.213C140.209 216.683 130.172 222.757 129.626 223.867C128.506 225.385 136.024 238.415 139.2 242.543C150.382 257.56 166.35 273.169 185.231 274.414L228.741 277.303C238.443 277.345 247.346 287.235 252.466 292.326C252.913 295.936 256.445 308.613 257.582 309.74C258.345 310.74 270.052 311.66 273.825 311.382C291.68 309.867 313.903 303.537 322.045 281.711C331.052 257.74 321.264 226.988 302.556 215.046L302.558 215.046Z" fill="#FCFCFC"/>
<path d="M248.413 192.042C249.169 192.162 249.925 192.409 249.806 193.289C249.685 193.92 249.562 194.423 249.189 195.056C248.943 195.813 248.443 196.445 247.819 196.954C245.35 197.796 242.439 193.898 240.734 191.846C241.342 191.842 241.197 191.969 244.007 191.948C245.515 191.685 246.899 191.801 248.411 192.042L248.413 192.042Z" fill="#FCFCFC"/>
<path d="M258.681 185.424C256.794 185.438 255.421 186.958 255.434 188.719C255.448 190.607 256.968 191.98 258.729 191.967C260.617 191.953 261.99 190.433 261.977 188.671C261.964 186.909 260.443 185.411 258.681 185.424Z" fill="#FFF2F0"/>
<path d="M234.014 184.599C232.127 184.613 230.754 186.133 230.767 187.895C230.781 189.783 232.301 191.155 234.062 191.142C235.95 191.128 237.323 189.608 237.31 187.847C237.423 186.084 235.902 184.585 234.014 184.599Z" fill="#FFF2F0"/>
<path d="M244.059 284.297L231.619 234.942L178.232 246.407L195.345 314.977L239.813 305.339C250.743 303.246 244.061 284.297 244.061 284.297L244.059 284.297Z" fill="#FFE7AE"/>
<path d="M252.291 291.786C246.943 286.994 236.928 277.738 229.787 276.979C227.893 276.778 223.114 276.399 221.492 278.298C220.868 279.058 223.135 279.292 223.388 279.416C228.804 280.051 234.919 282.038 234.735 282.604C233.092 282.288 231.617 281.797 230.199 281.631C227.174 280.898 224.028 280.797 221.012 281.195C220.133 281.327 218.498 281.465 217.876 282.476C217.151 283.954 222.341 283.41 229.601 285.661C229.979 285.784 231.995 286.273 231.999 286.901C232.004 287.506 226.417 285.443 219.916 286.11C217.179 286.13 215.419 287.579 219.811 289.004C222.2 289.637 224.693 290.339 227.111 291.07C225.567 290.9 220.584 290.863 220.34 292.398C220.22 293.154 220.979 293.651 221.483 293.899C222.999 294.768 224.639 295.385 226.279 296.003C232.776 298.605 233.298 300.858 240.314 305.462C251.911 312.88 256.474 309.748 257.582 309.74C255.673 306.858 252.057 293.927 252.291 291.786Z" fill="#FFF2F0"/>
<path d="M276.009 180.728C275.391 180.732 274.973 180.08 275.249 179.517C276.495 176.977 277.517 175.527 280.337 173.959C280.744 173.734 281.254 173.882 281.48 174.285C281.705 174.691 281.559 175.201 281.154 175.428C278.751 176.762 277.919 177.887 276.758 180.257C276.614 180.552 276.318 180.724 276.009 180.726L276.009 180.728Z" fill="#181A21"/>
<path d="M238.818 187.669C238.457 187.671 238.121 187.439 238.009 187.077L236.849 183.31C236.642 182.715 236.134 181.251 237.258 180.678C237.93 180.217 238.746 180.385 239.402 180.523C240.246 180.7 240.417 180.695 240.676 180.233C241.603 178.34 241.044 176.808 241.039 176.117C241.035 175.654 241.409 175.275 241.872 175.272C242.336 175.268 242.715 175.642 242.718 176.105C242.721 176.515 243.343 178.61 242.162 181.015C240.956 183.165 238.976 181.94 238.236 182.073C238.266 182.256 238.322 182.387 239.613 186.583C239.778 187.121 239.377 187.666 238.816 187.67L238.818 187.669Z" fill="#181A21"/>
<path d="M240.069 192.229C239.65 191.68 240.04 190.886 240.731 190.881C241.03 190.879 242.266 190.995 242.493 190.994C245.16 190.983 245.72 190.762 248.546 191.213C250.482 191.519 250.753 192.574 250.64 193.403C250.509 194.087 250.372 194.679 249.959 195.405C249.548 196.585 248.509 197.607 248.092 197.748C245.177 198.743 242.055 194.84 240.069 192.229ZM242.564 192.673C243.561 193.87 245.902 196.568 247.414 196.198C248.277 195.447 248.344 194.834 248.467 194.628C248.781 194.097 248.875 193.689 248.982 193.131C248.973 193.077 248.863 192.962 248.281 192.871C245.702 192.46 245.176 192.649 242.564 192.673Z" fill="#181A21"/>
<path d="M273.604 169.523C273.528 169.532 268.466 170.626 268.202 170.712C264.561 159.803 249.556 159.787 245.668 170.223C243.079 168.445 240.78 169.081 237.848 169.969C235.327 165.623 229.88 163.447 224.635 165.894C223.781 166.194 223.195 166.62 222.522 167.185C215.491 173.101 219.414 185.088 229.249 185.016C236.235 184.964 240.885 177.657 238.583 171.502C241.225 170.702 243.018 170.182 245.171 171.946C243.725 178.855 249.239 186.291 257.053 186.233C264.639 186.177 270.002 179.122 268.643 172.312C268.811 172.257 273.919 171.281 274.266 170.931C274.796 170.396 274.404 169.433 273.605 169.523L273.604 169.523ZM237.396 175.911C236.853 180.402 232.829 183.715 228.345 183.296L228.071 183.305C219.792 182.329 217.791 171.037 225.308 167.432C231.726 164.409 238.24 169.674 237.396 175.911ZM267.087 175.568C266.431 181.155 261.345 185.145 255.76 184.485C246.402 183.386 242.999 170.607 251.689 165.505C258.804 161.331 267.874 166.994 267.087 175.57L267.087 175.568Z" fill="#181A21"/>
<path d="M127.169 215.164C126.827 215.167 126.503 214.957 126.376 214.617C125.907 213.354 125.423 211.825 125.41 210.06C125.379 205.774 128.134 207.48 127.296 208.652C127.152 209.091 127.082 208.925 127.09 210.047C127.101 211.552 127.531 212.908 127.949 214.031C128.154 214.579 127.747 215.16 127.168 215.164L127.169 215.164Z" fill="#181A21"/>
<path d="M193.504 248.261C192.354 248.08 191.877 246.763 191.526 245.365C191.334 244.616 191.329 243.852 191.482 243.211C191.61 241.203 192.789 238.703 194.678 238.296C195.461 238.125 196.965 238.217 198.305 240.707C198.524 241.116 198.372 241.624 197.964 241.845C197.554 242.067 197.047 241.912 196.826 241.504C196.542 240.977 195.786 239.77 195.031 239.939C194.238 240.109 193.265 241.601 193.134 243.469C193.024 243.976 193.027 244.471 193.123 244.836C193.482 246.27 193.725 246.565 193.813 246.632C197.069 246.932 208.723 244.56 209.802 243.73C210.15 243.156 209.273 241.203 208.942 239.828C208.59 238.633 208.842 237.244 209.593 236.329C210.355 235.332 212.091 235.095 213.4 235.389C216.008 235.971 216.815 238.606 215.462 238.904C215.011 239.003 214.563 238.715 214.464 238.263C214.12 236.688 211.418 236.707 210.909 237.374C209.362 239.261 212.647 242.424 211.126 244.746C210.112 246.396 196.497 248.56 193.504 248.264L193.504 248.261Z" fill="#181A21"/>
<path d="M251.102 171.65C248.089 170.116 248.675 176.233 250.433 177.156C251.3 177.611 252.634 176.956 252.696 175.122C252.74 173.837 252.155 172.187 251.102 171.65Z" fill="#181A21"/>
<path d="M228.069 171.82C227.389 172.451 228.004 176.382 229.297 177.059C230.194 177.531 231.511 176.855 231.481 174.873C231.443 172.445 229.694 170.31 228.069 171.82Z" fill="#181A21"/>
<path d="M302.888 214.592C293.274 208.375 284.639 205.376 277.294 205.71C276.267 205.765 276.651 205.673 275.452 207.049C274.119 201.831 273.122 192.35 272.738 187.45C273.019 186.771 273.423 186.012 274.08 185.44C274.387 185.169 275.645 185.44 276.401 185.602C282.141 186.836 290.61 177.996 291.607 173.596C292.043 172.101 291.748 170.339 290.733 168.867C290.687 168.822 290.587 168.723 289.489 167.966C290.067 167.335 291.147 166.444 291.438 166.033C293.402 163.272 294.96 158.635 293.159 154.813C291.777 152.398 289.352 150.604 286.755 150.168C286.437 150.115 285.721 149.994 285.281 149.866C285.79 148.748 287.786 146.273 288.078 145.572C290.746 140.133 292.78 130.266 287.061 125.789C283.547 123.039 278.262 123.603 274.982 127.935C274.873 127.014 274.753 125.619 274.499 125C272.614 120.402 267.966 117.425 262.901 117.872C259.439 118.165 256.107 119.555 253.596 121.728C253.191 122.001 251.888 123.571 250.824 124.662C250.166 123.442 249.418 121.401 248.923 120.677C245.65 116.649 240.451 114.842 235.331 115.954C230.8 117.056 226.853 120.163 224.807 124.205C224.198 125.195 223.159 129.676 222.416 130.819C221.381 130.368 219.343 128.905 218.546 128.778C208.732 126.894 201.386 137.787 203.99 147.89C204.362 149.446 206.787 153.341 206.46 154.437C205.344 157.515 200.149 158.604 201.724 164.034C202.408 166.581 204.716 168.578 208.54 169.953C209.418 170.321 210.439 170.588 211.517 170.729C209.558 172.739 203.284 175.698 206.911 180.169C210.261 184.203 221.261 180.439 221.429 180.302C222.803 182.289 224.938 183.742 227.448 184.186C230.79 194.931 235.388 203.314 247.057 205.293C248.455 207.243 248.92 209.72 249.128 212.23C248.242 211.365 247.638 210.602 246.516 210.031C236.958 205.161 222.109 214.056 216.601 219.073C212.15 223.077 208.268 227.022 203.336 230.03C191.958 236.971 177.199 238.893 166.386 234.519C161.456 232.525 156.847 228.814 152.29 223.168C150.765 221.32 147.731 215.413 144.616 215.493C144.58 215.153 144.464 215.298 144.088 212.808C143.358 208.347 137.494 196.057 136.294 194.571C134.754 192.662 133.298 190.859 130.736 189.88C128.602 188.905 125.998 189.545 124.576 191.329C123.866 191.177 122.897 190.784 120.504 191.831C120.248 191.942 119.57 192.537 119.318 192.804C117.591 191.753 115.513 192.167 114.081 195.089C113.144 194.876 112.592 194.786 111.05 195.57C109.355 196.434 109.201 199.016 109.323 201.175C109.518 204.619 111.825 205.993 113.592 205.521C115.425 208.393 121.724 219.784 128.872 223.44C126.848 225.661 136.662 240.908 138.402 243.172C153.679 263.515 169.374 274.351 185.05 275.375C185.499 275.407 185.911 275.065 185.943 274.593C185.973 274.131 185.622 273.731 185.16 273.7C169.995 272.707 154.714 262.097 139.739 242.156C136.287 237.669 130.034 226.331 130.222 224.449C131.389 223.11 140.42 217.615 143.918 217.178L144.565 217.166C146.336 217.385 148.181 220.149 149.527 222.168C153.334 227.874 159.394 233.504 165.754 236.077C177.044 240.644 192.411 238.664 204.219 231.46C209.304 228.358 213.233 224.362 217.727 220.319C222.213 216.234 236.925 206.871 245.874 211.591C247.27 212.328 247.068 212.957 249.465 214.725C252.164 216.715 255.249 217.534 258.391 217.511C264.277 217.467 271.482 214.398 277.353 207.386C286.314 207.32 294.208 210.975 301.982 216.003C320.742 228.134 329.709 258.685 321.136 281.667C313.144 303.087 290.892 309.328 273.639 310.794C269.789 311.082 259.143 310.124 258.08 309.42C256.264 305.897 253.282 294.505 253.135 292.086C255.168 291.324 268.548 290.117 271.695 289.444C288.279 285.852 301.065 281.311 302.332 258.757C302.359 258.295 302.003 257.898 301.541 257.871C301.079 257.86 300.682 258.2 300.655 258.662C299.451 280.077 287.745 284.249 271.342 287.802C267.13 288.701 253.669 289.558 251.903 290.849C246.837 285.888 236.867 276.801 229.713 276.266C226.972 276.061 222.542 275.756 220.72 277.891C220.429 278.232 220.35 278.656 220.484 279.041C220.734 279.76 221.599 280.019 222.386 280.197C221.5 280.263 221.082 280.32 220.517 280.401C219.504 280.544 217.808 280.78 216.996 282.106C216.811 282.485 216.811 282.892 216.998 283.251C217.652 284.508 220.137 284.469 223.8 285.154C222.404 285.089 221.015 285.131 219.659 285.271C218.548 285.279 217.516 285.656 216.412 286.457C216.078 286.697 215.793 287.279 215.967 287.859C216.387 289.249 219.098 289.758 221.428 290.356C220.655 290.53 219.327 290.927 219.132 292.139C219.044 292.694 219.134 293.742 220.688 294.503C222.265 295.406 223.962 296.047 225.589 296.658C231.395 298.84 232.78 301.645 239.477 306.039C244.458 309.309 251.199 312.421 256.836 310.548C258.336 312.166 271.327 312.646 273.772 312.467C299.218 310.306 316.141 299.859 322.709 282.255C331.536 258.596 322.254 227.112 302.89 214.59L302.888 214.592ZM130.227 222.226L130.199 222.211C124.338 219.715 118.181 210.297 114.802 204.087C114.597 203.61 114.013 203.431 113.577 203.711C113.15 203.985 112.741 204.011 112.324 203.791C111.306 203.256 111.044 202.047 110.992 200.944C110.849 197.917 111.504 197.226 111.813 197.067C112.507 196.715 112.835 196.543 113.52 196.687C113.154 198.028 113.17 199.286 113.263 200.165C113.382 201.269 115.052 201.089 114.933 199.985C114.648 197.33 116.093 192.895 118.38 194.201C117.645 195.609 117.263 197.183 117.275 198.794C117.279 199.257 117.657 199.631 118.121 199.627C118.584 199.624 118.958 199.245 118.954 198.781C118.943 197.237 119.365 195.735 120.187 194.423C120.459 193.962 120.831 193.664 121.265 193.332C121.776 193.115 122.876 192.684 123.714 192.864C123.204 194.162 123.104 195.595 123.453 196.94C123.552 197.32 123.896 197.571 124.271 197.568C124.82 197.564 125.214 197.046 125.077 196.518C124.742 195.219 124.968 193.805 125.695 192.643C126.58 191.242 128.484 190.698 130.085 191.428C132.274 192.265 133.531 193.823 134.985 195.626C135.862 196.712 141.571 207.851 142.427 213.086C142.554 213.926 142.687 214.794 142.932 215.672C139.311 216.57 132.937 220.253 130.225 222.224L130.227 222.226ZM244.963 203.09C233.755 199.774 230.87 189.973 227.606 178.868C226.914 176.621 224.488 169.225 224.028 167.782C228.896 166.193 232.174 159.621 235.49 156.241C235.731 160.482 238.988 163.36 243.167 163.226C251.39 162.964 257.609 157.1 262.954 152.059C262.6 154.356 262.918 156.703 263.908 158.852C265.409 161.637 268.7 163.287 272.511 162.231C268.601 168.411 271.111 169.953 272.936 171.621C272.419 172.634 272.065 173.748 271.866 174.997C271.691 176.09 273.35 176.363 273.523 175.26C274.019 172.142 276.3 168.336 279.497 169.433C281.912 170.26 284.046 173.411 284.066 176.177C284.08 178.019 283.521 179.864 282.467 181.41C281.327 183.294 279.419 184.53 276.75 183.959C275.416 183.673 273.902 183.349 272.968 184.177C270.513 186.314 270.143 190.977 268.935 193.264C264.431 202.124 254.468 205.986 244.96 203.089L244.963 203.09ZM250.907 213.683C250.761 210.905 250.472 208.037 249.191 205.573C259.983 206.583 268.915 199.841 271.409 191.446C271.959 197.004 272.912 204.478 274.105 208.485C267.825 214.721 258.091 218.467 250.907 213.685L250.907 213.683ZM240.397 304.635C233.235 299.937 232.497 297.462 226.195 295.092C225.635 294.881 220.696 293.026 220.787 292.414C220.817 292.359 220.993 292.161 221.956 291.958C223.538 291.736 225.282 291.881 227.198 292.371C227.855 292.628 228.39 292.762 229.021 292.886C230.469 293.455 231.192 292.647 230.946 291.928C230.735 291.312 230.043 291.023 228.2 290.503C227.066 290.182 226.84 290.009 221.986 288.767C220.616 288.416 218.675 287.955 217.847 287.516C218.483 287.132 219.072 286.953 219.749 286.944C227.361 286.161 232.604 289.241 232.587 286.895C232.579 285.812 231.207 285.33 229.803 284.921C222.955 282.914 220.911 283.258 218.815 282.583C218.997 282.469 219.248 282.279 220.996 282.026C229.608 280.786 234.768 284.965 235.41 282.987C235.835 281.675 233.689 281.251 232.355 280.693C227.363 278.997 224.3 278.944 222.575 278.513C224.213 277.588 227.605 277.811 229.162 277.912C236.33 278.379 246.523 287.879 251.535 292.841C252.026 296.383 254.511 305.398 256.019 309.042C250.965 310.536 244.779 307.51 240.395 304.633L240.397 304.635Z" fill="#181A21"/>
<path d="M111.111 201.677C111.046 202.539 112.638 205.37 113.094 205.631C123.703 204.375 141.846 201.476 151.155 199.883C151.55 199.045 150.589 195.952 149.933 195.591C137.087 196.898 123.676 198.71 111.11 201.677L111.111 201.677Z" fill="#FCFCFC"/>
<path d="M151.696 195.803C150.798 193.865 148.478 194.443 146.963 194.593C140.662 195.088 112.215 200.082 110.286 200.817C100.159 204.676 100.84 205.051 100.843 205.457C100.855 206.987 103.103 206.216 113.751 206.138C114.007 206.136 124.86 204.901 146.909 201.8C149.227 201.474 151.497 201.408 152.28 199.945C152.857 198.868 152.125 196.675 151.694 195.801L151.696 195.803ZM150.8 199.153C150.499 199.718 148.448 199.889 146.638 200.143C124.739 203.209 113.963 204.953 113.148 204.843C112.712 204.216 112.095 202.805 111.924 202.16C114.057 201.471 140.45 196.786 147.111 196.265C148.392 196.136 149.826 195.763 150.181 196.526C150.759 197.701 150.871 199.022 150.8 199.153Z" fill="#181A21"/>
<path d="M125.547 198.044C122.334 197.28 118.287 198.214 120.57 200.996C121.605 202.257 123.086 202.921 127.347 205.012L136.281 205.199C133.065 201.126 128.004 198.629 125.546 198.044L125.547 198.044Z" fill="#FFF2F0"/>
<path d="M136.289 206.037C136.038 206.038 135.791 205.929 135.623 205.717C132.66 201.966 127.835 199.448 125.353 198.859C123.266 198.363 121.187 198.713 120.792 199.344C120.602 199.651 121.027 200.227 121.219 200.461C122.246 201.711 124.41 202.636 127.717 204.257C128.134 204.461 128.305 204.965 128.102 205.381C127.897 205.798 127.394 205.969 126.978 205.766C123.556 204.093 121.196 203.079 119.922 201.529C117.197 198.212 121.266 196.163 125.741 197.227C128.271 197.828 133.548 200.382 136.94 204.676C137.376 205.229 136.977 206.031 136.289 206.037Z" fill="#181A21"/>
<path d="M69.6515 262.356C67.444 262.014 63.8621 261.359 60.3941 260.674C61.3051 256.899 62.2599 253.142 62.949 249.56C63.0363 249.104 62.7375 248.664 62.2834 248.577C61.8293 248.485 61.3865 248.787 61.3009 249.243C60.6183 252.791 59.6684 256.531 58.7476 260.347C54.9364 259.574 51.5671 258.823 50.7417 258.49C50.0967 257.784 48.9736 258.521 49.3378 259.405C49.6114 260.068 53.8426 261.092 58.3501 262.007C57.7735 264.442 57.2256 266.894 56.7915 269.291C56.7092 269.746 57.0113 270.184 57.467 270.266C57.9261 270.349 58.3605 270.043 58.4428 269.591C58.8737 267.213 59.4217 264.767 59.9983 262.336C64.746 263.262 69.3026 264.004 69.3968 264.019C69.8558 264.089 70.2834 263.775 70.3556 263.316C70.4261 262.859 70.1122 262.43 69.6532 262.358L69.6515 262.356Z" fill="#ADD2FF"/>
<path d="M129.12 287.492C128.955 287.06 128.472 286.841 128.036 287.007C126.162 287.719 122.82 288.83 119.472 289.883C118.667 286.085 117.837 281.955 116.873 278.354C116.754 277.905 116.296 277.643 115.845 277.761C115.397 277.88 115.132 278.34 115.251 278.789C116.221 282.412 117.015 286.403 117.86 290.385C117.157 290.602 110.101 292.786 109.41 292.645C108.554 292.475 108.044 293.576 108.72 294.145C109.489 294.794 117.186 292.362 118.215 292.042C118.74 294.459 119.299 296.869 119.93 299.145C120.034 299.518 120.375 299.763 120.744 299.76C121.298 299.756 121.696 299.227 121.547 298.696C120.914 296.412 120.352 293.979 119.822 291.536C124.346 290.094 128.542 288.61 128.629 288.578C129.063 288.413 129.281 287.928 129.115 287.494L129.12 287.492Z" fill="#ADD2FF"/>
<path d="M183.115 21.16L153.173 21.3804C150.406 21.4007 148.124 19.1521 148.103 16.3848L148.096 15.3789L188.103 15.0845L188.111 16.0903C188.131 18.8577 185.883 21.1396 183.115 21.16Z" fill="#FFE7AE"/>
<path d="M153.038 3.26497L182.98 3.04462C185.748 3.02426 188.03 5.27286 188.05 8.04022L188.101 14.9603L148.093 15.2547L148.043 8.33463C148.022 5.56727 150.271 3.28533 153.038 3.26497Z" fill="#FCFCFC"/>
<path d="M188.109 15.7981L148.101 16.0925C147.638 16.0959 147.259 15.7225 147.255 15.2591L147.204 8.339C147.181 5.1015 149.796 2.44741 153.033 2.42358L182.976 2.20324C186.213 2.17942 188.867 4.79473 188.891 8.03223L188.942 14.9523C188.946 15.4158 188.572 15.7947 188.109 15.7981ZM148.928 14.4071L187.257 14.1251L187.212 8.04459C187.195 5.73234 185.3 3.86545 182.988 3.88246L153.046 4.10281C150.734 4.11982 148.867 6.01439 148.884 8.32665L148.928 14.4071Z" fill="#181A21"/>
<path d="M240.967 64.5621C240.86 63.5033 240.469 62.4527 239.843 61.5818C238.799 59.4397 236.301 58.6536 234.155 59.3723C233.247 59.4438 232.387 59.6633 231.751 60.086C228.555 62.2036 228.41 68.1876 231.498 70.3838C233.268 71.6416 235.229 71.6161 236.783 70.8024C239.384 70.0897 241.27 67.5485 240.967 64.5621Z" fill="#FCFCFC"/>
<path d="M244.292 50.3959C243.729 46.0061 242.938 41.6317 241.856 37.339C241.804 37.1317 241.753 36.9194 241.702 36.7081C242.587 36.3069 243.056 35.4075 243.114 34.4081C243.125 34.3754 243.147 34.3499 243.157 34.3172C243.59 32.9339 242.863 31.8375 241.712 31.5731C241.389 31.2924 240.97 31.1198 240.535 31.1107C240.024 31.0994 239.617 31.2719 239.282 31.5415C239.105 31.3904 238.928 31.2403 238.721 31.1107C235.187 28.9076 231.214 31.5884 229.37 34.6408C225.721 40.6854 225.136 49.5924 224.712 56.5098C224.197 64.9054 224.78 73.3316 225.905 81.6558C226.559 86.4886 227.223 91.3458 229.194 95.7029C227.234 96.1552 227.019 99.0973 227.714 100.71C228.592 102.746 231.997 103.849 233.79 102.402C234.248 102.032 234.584 101.507 234.81 100.922C242.85 101.552 244.411 79.7314 244.805 75.2059C245.522 66.9471 245.347 58.6169 244.292 50.3959ZM242.57 82.5633C242.054 85.8965 240.396 99.1616 235.123 99.4352C235.163 98.2755 234.767 97.1199 233.855 96.4737C233.84 96.4635 233.821 96.4532 233.806 96.443C233.669 96.2021 233.491 95.9959 233.248 95.8622C232.866 95.6508 232.373 95.6805 231.928 95.6988C231.436 95.5988 230.928 95.562 230.451 95.6039C226.486 87.4227 226.264 76.5994 225.904 68.0425C225.663 62.3114 225.825 56.5721 226.555 50.8797C227.032 47.1566 228.799 31.3832 234.542 31.8712C235.563 31.958 236.779 32.5776 237.835 33.377C237.648 34.6184 238.139 36.2068 239.085 36.5988C239.271 36.6764 239.474 36.6989 239.683 36.6897C239.929 36.8163 240.195 36.9031 240.485 36.9245C240.714 37.7922 240.84 38.761 241.017 39.54C241.583 42.0064 242.066 44.4942 242.467 46.9933C243.411 52.8694 243.876 58.8251 243.892 64.7758C243.909 70.7244 243.48 76.6821 242.57 82.5633Z" fill="#FCFCFC"/>
<path d="M257.058 43.2932C250.014 43.7863 242.393 48.4332 236.492 52.0675C233.111 54.1491 229.86 56.4389 226.725 58.8747C224.175 60.8551 221.703 62.9336 219.29 65.0795C216.93 67.1794 214.797 69.5437 212.515 71.7274C212.231 71.9989 211.947 72.2735 211.666 72.5512C211.201 72.3317 210.616 72.3338 210.084 72.4277C209.308 72.5655 208.599 73.2168 208.685 74.0335C208.579 74.5256 208.714 75.0217 209.007 75.4188C208.116 76.4917 207.301 77.6239 206.633 78.851C206.618 78.8785 206.603 78.9051 206.589 78.9326C205.657 80.6701 204.864 83.1774 205.59 85.1191C205.945 86.0685 206.577 86.875 207.459 87.3854C209.936 88.8177 213.337 88.0061 215.896 87.2619C219.396 86.2431 222.742 84.6975 225.977 83.0334C228.281 81.8482 230.526 80.5589 232.766 79.2573C239.932 75.0932 246.644 70.1563 252.76 64.5629C256.026 61.5759 259.148 58.4122 262.037 55.0576C263.564 53.2844 265.469 51.4427 265.327 48.91C265.093 44.752 260.615 43.0441 257.058 43.2932ZM262.244 52.7709C261.703 53.7897 260.525 54.7789 259.753 55.6375C258.062 57.52 256.305 59.3453 254.492 61.1114C250.229 65.2653 245.626 69.0711 240.768 72.5093C235.912 75.9466 230.792 79.0235 225.459 81.6635C221.944 83.403 206.543 91.6261 206.526 82.373C206.526 82.2546 206.499 82.1575 206.457 82.0749C207.296 79.9739 208.47 77.9802 209.854 76.0763C210.573 76.3529 211.39 76.1293 211.919 75.5597C212.482 74.9533 212.702 74.0049 212.349 73.2413C212.323 73.1852 212.288 73.1413 212.257 73.0912C216.843 67.9022 222.804 63.4737 227.745 59.6781C232.294 56.1837 237.081 53.0118 242.156 50.3341C245.475 48.5823 259.392 40.9503 262.297 45.928C263.307 47.6574 263.096 51.1681 262.244 52.7709Z" fill="#FCFCFC"/>
<path d="M264.165 77.1792C260.929 70.903 253.649 65.7384 247.979 61.7529C241.098 56.9161 233.616 52.997 225.936 49.5934C220.72 47.2821 215.47 44.9586 209.811 44.8494C209.764 44.6207 209.707 44.3941 209.656 44.1746C209.426 43.1803 208.998 42.773 207.965 42.7179C207.169 42.676 206.265 42.7699 205.674 43.3651C204.915 44.1287 204.965 45.4048 205.507 46.3409C198.673 52.5774 217.736 66.258 221.529 69.0705C228.186 74.0084 235.373 78.2236 242.927 81.6323C246.276 83.1442 249.703 84.505 253.186 85.6872C253.171 86.2711 253.3 87.0316 253.454 87.5267C253.556 87.8534 253.758 88.0668 254.015 88.226C254.183 88.911 254.547 89.4327 255.464 89.5368C256.597 89.6655 257.757 89.447 258.267 88.3261C258.403 88.0249 258.52 87.6911 258.608 87.345C259.84 87.5798 261.079 87.5859 262.271 86.9918C266.001 85.1379 265.799 80.349 264.165 77.1792ZM258.747 85.6116C258.706 85.3094 258.627 85.0185 258.497 84.749C258.038 83.7934 257.082 83.2023 256.015 83.4167C255.402 83.5402 254.872 83.8965 254.349 84.2232C254.192 84.3212 254.028 84.4202 253.87 84.5244C251.48 83.7159 249.115 82.8267 246.784 81.862C241.284 79.5875 235.969 76.8628 230.891 73.7593C225.814 70.6559 220.965 67.1686 216.433 63.3128C213.709 60.9944 202.132 51.726 206.561 47.3291C206.724 47.4026 206.891 47.4669 207.075 47.4914C207.177 47.5047 207.27 47.4873 207.368 47.4863C207.582 47.5169 207.797 47.4996 208.006 47.4394C208.557 47.3934 209.083 47.2209 209.482 46.784C209.692 46.5543 209.801 46.3011 209.856 46.0377C219.457 46.3205 229.554 52.2681 237.534 56.7272C242.541 59.5254 247.345 62.6686 251.811 66.2733C254.731 68.6315 267.241 78.4002 263.816 83.0359C262.862 84.3243 260.559 85.3329 258.747 85.6116Z" fill="#FCFCFC"/>
<path d="M49.1757 160.232C49.3047 158.52 49.4341 156.81 49.5641 155.098C49.6459 154.013 50.1002 152.512 49.6999 151.472C49.228 150.243 48.3844 149.937 47.1005 150.161C44.0274 150.699 42.4285 153.733 41.5114 156.716C41.3312 155.465 41.1521 154.214 40.9722 152.964C40.9189 152.59 40.4766 152.38 40.1408 152.454C36.9287 153.164 34.3428 155.104 32.8033 157.744C32.842 156.724 32.892 155.703 32.9229 154.682C32.9475 153.875 31.7163 153.846 31.669 154.651C31.5085 157.411 31.3901 160.174 31.2636 162.935C31.224 163.795 32.5495 163.826 32.5993 162.968C32.8541 158.65 35.6586 155.183 39.7305 153.986C40.0405 156.171 40.3509 158.357 40.661 160.542C40.7556 161.212 41.8727 161.248 42.0041 160.581C42.4813 158.151 43.0156 154.901 44.9404 153.157C45.6688 152.063 46.8017 151.842 48.3404 152.495C48.274 153.35 48.2079 154.207 48.1416 155.062C48.0092 156.773 47.8768 158.485 47.7443 160.196C47.6749 161.115 49.1073 161.15 49.1757 160.232Z" fill="#FCFCFC"/>
<path d="M61.4765 151.23C59.0644 151.481 56.7074 152.116 54.435 152.95C53.7455 153.203 53.9946 154.328 54.7064 154.079C56.9634 153.292 59.2502 152.819 61.6049 152.434C62.2759 152.324 62.1688 151.159 61.4765 151.23Z" fill="#FCFCFC"/>
<path d="M63.8539 156.229C61.3875 156.793 58.8906 157.751 56.5162 158.624C55.7955 158.89 56.0242 160.043 56.8028 159.819C59.2886 159.103 61.9062 158.379 64.281 157.352C64.9256 157.074 64.5086 156.079 63.8539 156.229Z" fill="#FCFCFC"/>
<path d="M75.7804 146.653C75.9877 145.77 74.6598 145.351 74.4189 146.242C73.449 149.835 72.3665 153.362 71.0556 156.836C69.8569 154.48 69.4221 151.984 69.6663 149.257C69.7373 148.461 68.56 148.471 68.446 149.227C67.9347 152.63 68.7175 155.922 70.5667 158.807C70.9078 159.339 71.622 159.253 71.8538 158.678C73.4374 154.77 74.8164 150.764 75.7804 146.653Z" fill="#FCFCFC"/>
<path d="M86.7912 146.464C86.7446 146.19 86.43 145.928 86.1475 145.943C83.505 146.09 81.2145 146.956 79.1378 148.599C78.537 149.074 79.343 149.91 79.939 149.462C80.0273 149.396 80.1221 149.351 80.2112 149.288C78.8404 154.297 78.0636 159.535 78.4137 164.733C78.4688 165.554 79.7152 165.619 79.718 164.764C79.7293 161.91 79.8585 159.121 80.1814 156.351C80.2002 156.355 80.2129 156.365 80.2326 156.368C85.7304 157.122 87.5007 150.664 86.7912 146.464ZM81.5519 149.056C81.6112 148.836 81.5504 148.655 81.437 148.519C82.7045 147.851 84.0732 147.482 85.5354 147.363C85.8763 150.974 84.5563 154.891 80.3511 154.991C80.6313 153.011 81.0203 151.038 81.5519 149.056Z" fill="#FCFCFC"/>
<path d="M134.692 83.1776C134.665 84.575 135.044 85.8635 135.724 87.0515C137.777 90.6322 142.248 91.5677 145.511 89.1059C148.342 86.9697 149.471 82.9262 147.863 79.5081C145.815 75.1547 140.448 74.1479 137.045 77.5046C135.48 79.0483 134.725 80.9635 134.692 83.1776ZM176.265 73.9094C174.614 73.8812 173.104 74.3451 171.735 75.2572C168.31 77.5379 167.537 82.0575 169.994 85.3565C172.682 88.966 178.066 89.662 181.546 86.8493C184.711 84.2917 185.126 79.8528 182.463 76.7598C180.827 74.8595 178.729 73.9555 176.265 73.9094ZM152.642 38.8994C152.996 39.084 153.372 38.932 153.737 38.9629C154.342 39.0141 154.6 38.7043 154.939 38.1804C155.873 36.7338 156.971 35.3968 158.007 34.0191C158.071 33.9342 158.157 33.8657 158.24 33.7982C158.544 33.5491 158.961 33.5209 159.28 33.7242C159.589 33.9203 159.782 34.335 159.669 34.7113C159.577 35.0154 159.439 35.3208 159.257 35.5777C158.758 36.2808 158.22 36.9547 157.707 37.6483C157.49 37.9425 157.183 38.1885 157.158 38.6069C157.381 38.9408 157.721 38.7878 158.01 38.8068C158.531 38.8414 158.853 38.6402 159.116 38.1098C159.812 36.7036 160.7 35.4107 161.636 34.1565C161.827 33.9 162.041 33.6523 162.282 33.4456C162.579 33.1904 163.006 33.2206 163.316 33.4639C163.635 33.7144 163.805 34.1328 163.656 34.467C163.504 34.8084 163.297 35.1273 163.09 35.4402C162.584 36.2051 162.054 36.953 161.558 37.7243C161.391 37.9842 161.146 38.2431 161.292 38.6585C161.469 38.6792 161.676 38.708 161.884 38.7267C162.353 38.7688 162.654 38.5726 162.931 38.1586C163.768 36.9028 164.662 35.6859 165.538 34.4561C165.725 34.1938 165.903 33.9163 166.128 33.6923C166.485 33.3391 167.102 33.3363 167.441 33.6434C167.747 33.9217 167.846 34.4202 167.582 34.8308C167 35.7378 166.368 36.6119 165.767 37.5071C165.592 37.767 165.242 38.0334 165.4 38.3534C165.612 38.781 166.063 38.5095 166.409 38.5214C166.781 38.534 166.957 38.2486 167.139 37.9751C168.07 36.5784 169.191 35.3432 170.326 34.1216C170.545 33.8861 170.776 33.6567 171.03 33.4643C171.421 33.1697 171.888 33.2071 172.196 33.5165C172.489 33.8111 172.579 34.3547 172.34 34.7188C172.135 35.0323 171.874 35.3099 171.625 35.5919C171.056 36.2373 170.471 36.8685 169.909 37.521C169.743 37.7145 169.517 37.8977 169.554 38.2095C170.255 38.424 170.709 38.479 171.021 38.4332C171.315 38.3901 171.487 38.1926 171.652 37.9798C172.576 36.7884 173.495 35.5922 174.423 34.4039C174.686 34.0666 174.952 33.7239 175.263 33.4344C175.517 33.1976 175.855 33.2135 176.162 33.3689C176.48 33.5294 176.737 33.9963 176.64 34.3194C176.549 34.6248 176.415 34.9322 176.234 35.1915C175.741 35.899 175.209 36.578 174.703 37.276C174.487 37.5743 174.182 37.8264 174.151 38.2435C174.574 38.462 174.994 38.2859 175.404 38.3022C175.759 38.3164 175.98 38.1339 176.157 37.8169C176.953 36.3985 177.972 35.1426 178.966 33.8694C179.196 33.5739 179.444 33.2814 179.728 33.0421C180.124 32.7086 180.705 32.7679 181.03 33.1215C181.329 33.448 181.37 33.8864 181.063 34.3089C180.494 35.0941 179.882 35.8471 179.302 36.6248C178.988 37.0463 178.63 37.4481 178.444 38.0473C179.416 38.3073 180.103 38.195 180.644 37.2815C181.191 36.3571 181.875 35.5145 182.527 34.6587C182.787 34.3194 183.098 34.0099 183.43 33.7435C183.927 33.3435 184.513 33.3984 184.853 33.8209C185.171 34.2156 185.138 34.6282 184.722 35.1348C184.176 35.7996 183.605 36.4433 183.069 37.1165C182.879 37.3544 182.634 37.5977 182.715 37.9757C183.217 38.1719 183.633 38.0952 183.973 37.6272C184.607 36.7555 185.251 35.8912 185.91 35.0391C186.138 34.7442 186.395 34.4568 186.69 34.2366C187.013 33.9943 187.392 34.015 187.736 34.2525C188.024 34.4514 188.17 34.9041 188.04 35.2695C187.97 35.4701 187.868 35.6676 187.742 35.8376C186.91 36.9645 186.055 38.0741 185.233 39.2089C184.819 39.7793 184.312 40.0345 183.609 40.0508C178.822 40.1607 174.035 40.2988 169.248 40.4281C168.504 40.4481 167.758 40.459 167.014 40.4926C166.223 40.5286 166.096 40.7077 166.372 41.5225C167.639 45.265 168.922 49.0021 170.201 52.7409C172.197 58.5792 174.194 64.4175 176.192 70.2554C176.297 70.5625 176.427 70.8632 176.505 71.177C176.642 71.719 176.946 71.9663 177.51 72.0288C178.9 72.1825 180.207 72.6453 181.417 73.361C183.529 74.6104 185.017 76.4045 185.742 78.79C186.806 82.2903 185.665 85.9639 182.846 88.3006C178.723 91.7198 172.338 91.1483 168.857 87.0491C165.152 82.6843 166.221 76.2233 171.127 73.3291C172.056 72.7814 173.052 72.4194 174.093 72.1615C174.591 72.0379 174.685 71.8299 174.515 71.325C173.878 69.4264 173.229 67.5316 172.581 65.6367C169.954 57.9548 167.337 50.2692 164.69 42.5941C163.93 40.3888 164.382 40.6165 162.084 40.6904C159.159 40.7848 156.235 40.8889 153.31 40.9561C151.808 40.9907 152.032 40.9931 151.663 42.3688C150.991 44.8799 150.371 47.4055 149.73 49.9254C147.862 57.2751 145.995 64.6251 144.127 71.9752C144.114 72.0274 144.093 72.078 144.079 72.1306C143.705 73.6074 143.711 73.5935 145.082 74.226C148.264 75.6946 150.004 78.2403 150.436 81.7507C150.936 85.8058 148.745 89.771 145.39 91.4819C141.138 93.6492 136.124 92.0085 133.889 87.7149C131.388 82.9113 133.256 76.8518 137.967 74.4689C138.786 74.0553 139.645 73.6644 140.542 73.6681C141.597 73.6722 141.867 73.1252 142.077 72.2266C142.645 69.8004 143.302 67.3958 143.918 64.9814C145.806 57.5809 147.692 50.1796 149.574 42.7777C149.706 42.2585 149.805 41.7308 149.915 41.2273C149.461 40.9487 149.029 41.0525 148.616 41.0637C143.617 41.2015 138.618 41.3426 133.619 41.5001C131.794 41.5578 131.491 41.1421 132.154 39.459C132.318 39.0443 132.546 38.6934 132.829 38.3677C134.1 36.9024 135.266 35.353 136.373 33.7568C136.526 33.5369 136.692 33.3197 136.883 33.1348C137.203 32.825 137.72 32.8036 138.057 33.0547C138.408 33.3167 138.558 33.8043 138.326 34.2105C137.978 34.8179 137.595 35.4087 137.183 35.9726C136.392 37.0531 135.57 38.1094 134.75 39.1909C135.403 39.4461 135.932 39.5201 136.25 39.4335C136.477 39.3714 136.571 39.1841 136.701 39.0124C137.836 37.5071 138.98 36.0079 140.124 34.5098C140.353 34.2101 140.585 33.9119 140.834 33.6292C141.491 32.8813 141.978 32.734 142.451 33.1222C142.945 33.5274 142.92 34.0754 142.359 34.8294C142.134 35.1321 141.883 35.4148 141.653 35.7134C140.865 36.7382 140.075 37.7623 139.297 38.7956C139.084 39.0783 139.197 39.348 139.515 39.3694C139.727 39.3836 139.941 39.3884 140.153 39.3816C140.416 39.3731 140.678 39.3483 140.99 39.327C141.12 38.6432 141.5 38.1335 141.915 37.6344C142.947 36.3924 143.954 35.128 144.985 33.885C145.222 33.5986 145.496 33.3336 145.791 33.1114C146.071 32.9003 146.394 32.9437 146.685 33.1433C147.025 33.3757 147.175 33.7598 147.093 34.1243C147.004 34.5152 146.738 34.785 146.502 35.0758C145.62 36.1627 144.733 37.2465 143.852 38.3348C143.718 38.501 143.574 38.6717 143.492 38.8658C143.425 39.0243 143.543 39.2201 143.701 39.2211C144.178 39.2238 144.656 39.1872 145.131 39.1441C145.492 39.1115 145.651 38.8007 145.84 38.5431C146.829 37.197 147.814 35.8478 148.807 34.5043C148.999 34.2451 149.197 33.9848 149.427 33.7625C149.801 33.4005 150.38 33.3801 150.737 33.6804C151.041 33.9363 151.134 34.4514 150.901 34.8722C150.72 35.2007 150.484 35.4993 150.258 35.8006C149.645 36.6204 149.024 37.4335 148.409 38.2523C148.249 38.4654 148.071 38.6788 148.185 38.9863C148.473 39.1563 148.796 39.0932 149.109 39.1017C149.557 39.1142 149.865 38.9632 150.167 38.554C151.188 37.1661 152.282 35.8325 153.361 34.4887C153.594 34.1979 153.852 33.9119 154.148 33.6937C154.417 33.4952 154.751 33.5152 155.051 33.7011C155.373 33.9003 155.535 34.3038 155.472 34.6798C155.414 35.0198 155.209 35.2685 155.01 35.5206C154.311 36.4094 153.604 37.2926 152.901 38.1783C152.735 38.387 152.541 38.5865 152.642 38.8994Z" fill="#FCFCFC"/>
<path d="M151.251 70.2987C151.51 70.7057 151.674 70.9108 151.78 71.1425C151.923 71.452 151.859 71.749 151.627 72.0081C151.393 72.2682 151.102 72.3137 150.776 72.2692C150.445 72.224 150.208 72.0143 149.986 71.7974C149.129 70.9589 148.265 70.1263 147.437 69.2603C146.693 68.4836 146.793 67.6625 147.746 67.2404C149.028 66.6718 150.357 66.2066 151.676 65.726C152.071 65.582 152.536 65.8349 152.723 66.2069C152.904 66.5684 152.775 67.07 152.376 67.2967C151.972 67.526 151.525 67.6798 151.105 67.8843C151.035 67.9183 150.963 68.0456 150.972 68.1202C150.981 68.199 151.077 68.3168 151.152 68.3308C151.867 68.465 152.581 68.641 153.304 68.6924C157.628 69.0009 161.815 68.4169 165.806 66.6519C166.082 66.5298 166.428 66.4925 166.506 66.0682C166.077 65.9275 165.636 65.8019 165.21 65.639C164.652 65.4257 164.364 65.0177 164.438 64.6048C164.53 64.0974 165.038 63.7729 165.642 63.926C166.902 64.2449 168.168 64.5574 169.396 64.9745C170.545 65.3645 170.755 66.183 170.048 67.1799C169.415 68.073 168.76 68.9508 168.11 69.8315C167.987 69.9987 167.853 70.1626 167.7 70.3007C167.413 70.5582 167.006 70.5735 166.69 70.3619C166.352 70.1351 166.195 69.8181 166.31 69.4219C166.381 69.1752 166.518 68.9466 166.635 68.7146C166.764 68.4604 166.507 68.427 166.424 68.4473C166.073 68.5337 165.73 68.658 165.392 68.7872C161.842 70.1423 158.16 70.7041 154.375 70.5814C153.393 70.5496 152.415 70.4073 151.251 70.2987Z" fill="#FCFCFC"/>
<path d="M178.865 79.8406C179.144 79.8587 179.487 79.8528 179.817 79.9095C180.162 79.9689 180.504 80.3902 180.531 80.7104C180.556 81.0165 180.255 81.4548 179.906 81.5661C179.697 81.6327 179.47 81.6599 179.248 81.6802C176.888 81.8954 174.527 82.1084 172.166 82.3157C171.83 82.3449 171.484 82.384 171.156 82.3403C170.8 82.2938 170.562 82.0513 170.481 81.7209C170.4 81.3889 170.514 81.0953 170.797 80.8813C171.111 80.6432 171.497 80.5352 171.892 80.4971C174.196 80.274 176.5 80.0621 178.865 79.8406Z" fill="#FCFCFC"/>
<path d="M142.197 79.4678C142.197 79.8489 142.193 80.2304 142.198 80.6119C142.207 81.2763 142.242 81.3115 142.894 81.3758C143.546 81.4405 144.199 81.5034 144.851 81.5732C145.051 81.5948 145.255 81.6153 145.447 81.6731C145.845 81.7932 146.148 82.2602 146.103 82.6482C146.055 83.0584 145.684 83.4546 145.282 83.4731C145.033 83.4844 144.783 83.4166 144.532 83.4002C143.929 83.3609 143.325 83.3277 142.721 83.2979C142.422 83.2832 142.245 83.4419 142.247 83.7697C142.25 84.4238 142.273 85.0776 142.282 85.7315C142.286 86.0575 142.302 86.387 142.268 86.7093C142.232 87.0469 141.833 87.412 141.517 87.3973C141.207 87.3829 140.923 87.2608 140.761 86.9426C140.561 86.5492 140.527 86.1136 140.509 85.6754C140.483 85.0219 140.46 84.3684 140.426 83.7153C140.413 83.4673 140.276 83.3119 140.044 83.3102C139.338 83.3058 138.633 83.3188 137.928 83.3181C137.525 83.3177 137.12 83.3297 136.721 83.29C136.376 83.2558 136.077 82.8856 136.035 82.5237C135.989 82.1224 136.294 81.653 136.685 81.5551C136.879 81.5062 137.082 81.4898 137.282 81.4757C137.735 81.4436 138.189 81.4319 138.641 81.3936C139.186 81.3471 139.835 81.5787 140.25 81.1989C140.698 80.7887 140.363 80.0658 140.446 79.4873C140.493 79.1653 140.466 78.8301 140.522 78.5109C140.567 78.2495 140.661 77.9884 140.777 77.753C140.95 77.4051 141.318 77.259 141.684 77.3449C142.032 77.4263 142.277 77.7404 142.296 78.1622C142.305 78.3788 142.28 78.5971 142.269 78.8143C142.257 79.0323 142.243 79.2498 142.23 79.4674C142.219 79.4674 142.208 79.4678 142.197 79.4678Z" fill="#FCFCFC"/>
<path d="M122.212 151.461C120.281 151.461 118.631 151.457 116.981 151.466C116.778 151.467 116.575 151.537 116.372 151.575C116.027 151.64 115.921 151.846 115.819 152.196C115.569 153.051 115.002 153.235 114.304 152.773C113.597 152.303 113.061 151.669 112.64 150.931C112.468 150.629 112.49 150.329 112.658 150.036C113.269 148.975 114.109 148.123 115.111 147.45C115.616 147.112 116.326 147.606 116.288 148.226C116.278 148.38 116.229 148.533 116.187 148.683C116.098 149.003 115.482 149.16 115.804 149.564C116.031 149.849 116.485 149.675 116.836 149.67C119.014 149.637 121.193 149.592 123.371 149.549C123.724 149.542 123.964 149.402 123.956 148.997C123.911 146.793 123.868 144.59 123.817 142.386C123.813 142.245 123.796 142.073 123.517 141.987C123.209 142.171 123.071 142.578 122.816 142.874C122.646 143.072 122.493 143.288 122.299 143.457C122.065 143.659 121.525 143.628 121.268 143.437C120.988 143.229 120.849 142.768 120.989 142.449C121.073 142.258 121.181 142.076 121.296 141.902C121.789 141.163 122.286 140.426 122.786 139.692C123.111 139.214 123.493 138.793 123.947 138.43C124.361 138.098 124.795 138.046 125.255 138.254C126.359 138.755 127.254 139.553 128.109 140.395C128.352 140.635 128.349 140.965 128.182 141.271C128.006 141.594 127.594 141.806 127.266 141.714C127.07 141.66 126.883 141.56 126.707 141.456C126.528 141.35 126.374 141.204 126.197 141.096C126.073 141.021 125.929 140.98 125.789 140.922C125.539 142.026 125.557 145.716 125.816 148.077C126.121 148.282 126.295 148.018 126.471 147.866C127.14 147.285 127.802 146.695 128.447 146.088C130.995 143.69 132.301 140.677 132.692 137.222C132.816 136.128 132.911 135.03 133.002 133.931C133.046 133.402 133.146 132.89 133.37 132.412C133.563 131.999 134.023 131.806 134.406 131.941C134.757 132.064 134.984 132.392 134.988 132.784C134.988 132.836 134.985 132.889 134.978 132.941C134.759 134.763 134.57 136.59 134.313 138.406C133.801 142.021 132.184 145.059 129.546 147.546C128.948 148.11 128.344 148.669 127.768 149.208C127.881 149.546 128.108 149.494 128.301 149.494C129.39 149.489 130.479 149.47 131.568 149.472C131.938 149.472 132.063 149.31 132.189 148.954C132.469 148.163 132.912 147.942 133.604 148.256C134.453 148.64 135.275 149.094 136.073 149.578C136.533 149.857 136.736 150.382 136.851 150.894C136.922 151.208 136.789 151.521 136.507 151.717C135.866 152.161 135.22 152.599 134.572 153.033C134.235 153.259 133.896 153.264 133.563 153.01C133.225 152.753 133.169 152.411 133.282 152.03C133.338 151.844 133.437 151.671 133.508 151.511C133.455 151.282 133.276 151.281 133.134 151.282C130.903 151.306 128.673 151.334 126.442 151.373C125.917 151.382 125.818 151.483 125.824 152.032C125.857 154.971 125.903 157.91 125.947 160.849C125.949 161.007 126.006 161.159 126.172 161.193C126.257 161.211 126.378 161.168 126.452 161.112C126.74 160.892 127.007 160.643 127.299 160.429C127.597 160.211 127.901 160.322 128.166 160.505C128.481 160.721 128.597 161.149 128.456 161.476C128.394 161.619 128.334 161.777 128.229 161.885C127.429 162.707 126.622 163.523 125.809 164.333C125.426 164.714 124.985 164.716 124.518 164.495C124.134 164.313 123.818 164.05 123.549 163.723C122.885 162.918 122.212 162.12 121.562 161.303C121.371 161.062 121.227 160.782 121.319 160.434C121.473 159.848 122.184 159.578 122.694 159.967C123.063 160.249 123.379 160.605 123.711 160.937C123.8 161.026 123.879 161.054 123.976 160.958C124.041 160.893 124.128 160.815 124.138 160.734C124.17 160.475 124.187 160.212 124.181 159.951C124.131 157.853 124.075 155.754 124.019 153.656C124.011 153.355 123.99 153.056 123.978 152.818C123.624 152.618 123.504 152.854 123.374 152.982C121.874 154.449 120.543 156.055 119.613 157.959C119.27 158.66 118.965 159.396 118.763 160.148C118.532 161.01 118.429 161.908 118.892 162.757C118.94 162.846 118.969 162.951 118.988 163.052C119.062 163.437 118.884 163.816 118.561 163.977C118.241 164.137 117.776 164.094 117.544 163.844C117.103 163.369 116.865 162.791 116.812 162.147C116.747 161.358 116.788 160.581 116.988 159.805C117.563 157.575 118.702 155.655 120.119 153.887C120.733 153.121 121.4 152.398 122.212 151.461Z" fill="#FCFCFC"/>
<path d="M135.765 116.265C135.786 115.825 135.81 115.53 135.814 115.234C135.832 113.907 135.85 112.58 135.852 111.253C135.852 111.021 135.986 110.705 135.668 110.583C135.39 110.476 135.179 110.719 134.975 110.856C134.388 111.247 133.915 111.745 133.621 112.39C133.19 113.334 133.278 114.222 133.923 115.045C134.357 115.599 134.913 115.983 135.765 116.265ZM137.361 116.378C137.561 116.396 137.7 116.445 137.816 116.413C139.625 115.931 140.779 113.936 140.291 112.169C140.206 111.863 140.045 111.612 139.788 111.442C139.093 110.982 138.347 110.66 137.382 110.706C137.35 112.621 137.33 114.494 137.361 116.378ZM137.426 118.086C137.426 118.612 137.446 119.043 137.42 119.472C137.396 119.88 137.133 120.12 136.756 120.142C136.367 120.164 136.064 119.957 136.001 119.571C135.933 119.147 135.915 118.714 135.869 118.286C135.839 118.007 135.712 117.828 135.405 117.743C134.809 117.579 134.261 117.299 133.758 116.943C131.565 115.396 131.201 112.782 132.894 110.722C133.426 110.074 134.053 109.496 134.85 109.227C135.66 108.953 136.164 108.587 136.012 107.674C135.992 107.553 136.029 107.416 136.063 107.293C136.154 106.96 136.534 106.681 136.84 106.71C137.168 106.74 137.484 107.042 137.535 107.388C137.554 107.515 137.571 107.653 137.54 107.773C137.308 108.674 137.98 108.985 138.6 109.288C139.148 109.557 139.757 109.707 140.299 109.985C141.166 110.43 141.708 111.151 141.846 112.111C141.951 112.84 141.935 113.572 141.725 114.29C141.188 116.124 140.079 117.403 138.124 117.871C137.914 117.922 137.71 117.998 137.426 118.086Z" fill="#FCFCFC"/>
<path d="M162.322 110.583C162.967 110.378 163.344 110.065 163.691 109.731C164.033 109.403 164.606 109.067 164.374 108.556C164.194 108.161 163.578 108.22 163.141 108.246C161.956 108.316 161.799 108.283 162.125 109.431C162.22 109.764 162.244 110.117 162.322 110.583ZM162.537 112.244C162.589 112.666 162.628 113.058 162.688 113.447C162.744 113.816 162.681 114.216 162.925 114.653C163.906 114.229 164.723 113.734 165.328 112.94C165.548 112.652 165.436 112.306 165.081 112.216C164.246 112.004 163.409 111.999 162.537 112.244ZM166.693 113.751C165.471 115.261 163.801 116.081 161.995 116.689C161.868 116.732 161.737 116.774 161.605 116.783C161.082 116.821 160.584 116.209 160.896 115.811C161.38 115.194 161.215 114.591 161.157 113.947C161.008 112.277 160.763 110.62 160.478 108.969C160.44 108.753 160.374 108.534 160.38 108.318C160.396 107.747 160.631 107.27 161.198 107.064C162.415 106.621 163.665 106.575 164.882 107.019C165.96 107.413 166.33 108.352 165.871 109.386C165.697 109.777 165.433 110.13 165.211 110.499C166.499 111.237 166.499 111.237 167.081 112.127C167.175 112.72 166.86 113.218 166.693 113.751Z" fill="#FCFCFC"/>
<path d="M147.923 111.926C148.051 111.813 148.172 111.687 148.31 111.586C149.16 110.968 149.903 111.126 150.444 112.04C150.738 112.538 150.893 113.099 150.977 113.663C151.08 114.361 151.103 115.073 151.143 115.78C151.153 115.952 151.111 116.132 151.065 116.301C150.99 116.575 150.637 116.826 150.378 116.779C150.119 116.733 149.883 116.592 149.806 116.32C149.734 116.07 149.739 115.797 149.707 115.534C149.626 114.876 149.553 114.217 149.454 113.561C149.429 113.398 149.32 113.248 149.205 112.993C148.69 113.547 148.66 114.208 148.519 114.815C148.44 115.157 148.431 115.517 148.341 115.855C148.239 116.239 147.918 116.42 147.557 116.36C147.254 116.31 147.027 116.089 146.984 115.743C146.891 114.997 146.822 114.249 146.736 113.503C146.721 113.372 146.679 113.244 146.64 113.119C146.631 113.091 146.576 113.062 146.545 113.063C146.47 113.067 146.367 113.062 146.326 113.11C146.006 113.483 145.903 113.969 145.758 114.426C145.625 114.845 145.558 115.286 145.444 115.712C145.388 115.921 145.306 116.127 145.209 116.321C145.076 116.586 144.822 116.668 144.565 116.655C144.304 116.642 144.052 116.52 143.963 116.244C143.857 115.911 143.759 115.562 143.739 115.215C143.669 113.978 143.627 112.738 143.589 111.499C143.581 111.236 143.611 110.966 143.663 110.708C143.751 110.272 144.109 110.015 144.493 110.076C144.824 110.128 145.062 110.427 145.075 110.833C145.085 111.178 144.919 111.525 145.089 111.868C146.615 110.852 146.688 110.854 147.923 111.926Z" fill="#FCFCFC"/>
<path d="M170.737 112.015C170.815 111.725 170.678 111.489 170.574 111.268C170.265 110.611 170.131 109.86 169.627 109.311C169.487 109.159 169.226 110.062 169.088 111.456C169.076 111.586 169.055 111.718 169.067 111.846C169.083 112.023 169.138 112.207 169.363 112.171C169.82 112.095 170.3 112.219 170.737 112.015ZM167.517 111.793C167.695 110.805 167.86 109.815 168.057 108.832C168.151 108.364 168.257 107.886 168.445 107.453C168.832 106.565 169.684 106.458 170.273 107.201C170.459 107.436 170.614 107.705 170.743 107.978C171.505 109.589 172.178 111.24 172.788 112.918C172.941 113.339 173.012 113.76 172.957 114.2C172.904 114.628 172.581 114.933 172.196 114.943C171.857 114.953 171.619 114.75 171.489 114.316C171.452 114.193 171.475 114.054 171.449 113.927C171.434 113.848 171.379 113.778 171.322 113.664C170.749 113.664 170.154 113.637 169.562 113.672C168.859 113.713 168.761 113.825 168.649 114.508C168.607 114.766 168.605 115.033 168.546 115.286C168.449 115.71 168.049 116.006 167.713 115.935C167.354 115.859 167.075 115.485 167.098 115.05C167.12 114.659 167.189 114.271 167.237 113.882C167.36 113.19 167.563 112.509 167.517 111.793Z" fill="#FCFCFC"/>
<path d="M185.79 114.023C185.754 114.1 185.673 114.211 185.693 114.245C185.828 114.472 186.037 114.561 186.271 114.55C186.317 114.547 186.364 114.444 186.401 114.38C186.412 114.361 186.4 114.307 186.383 114.287C186.222 114.093 186.016 114.028 185.79 114.023ZM188.089 111.327C188.089 111.327 188.211 111.251 188.256 111.412C188.374 111.831 188.321 112.203 187.95 112.428C187.615 112.632 187.378 112.419 187.129 112.177C186.587 111.651 186.579 111.661 185.844 112.123C185.919 112.416 186.162 112.442 186.357 112.546C186.705 112.732 187.076 112.883 187.389 113.128C187.866 113.5 188.144 114.04 187.994 114.717C187.843 115.405 187.448 115.882 186.82 116.031C186.11 116.199 185.435 116.02 184.806 115.64C184.557 115.489 184.405 115.204 184.47 114.866C184.531 114.546 184.717 114.316 185.022 114.28C185.173 114.262 185.33 114.309 185.481 114.293C185.534 114.287 185.608 114.189 185.62 114.121C185.633 114.049 185.606 113.936 185.559 113.887C185.475 113.799 185.37 113.727 185.264 113.682C184.889 113.524 184.687 113.113 184.357 112.897C184.207 112.799 184.417 112.803 184.357 112.897C184.354 112.813 184.308 112.868 184.309 112.784C184.31 112.796 184.374 112.767 184.309 112.784C184.235 111.669 184.699 110.931 185.56 110.487C186.362 110.074 187.134 110.113 187.852 110.748C187.895 110.785 187.917 110.826 187.954 110.826L187.927 110.818C188.042 110.959 187.981 110.89 188.071 111.012C188.189 111.171 188.089 111.282 188.089 111.327Z" fill="#FCFCFC"/>
<path d="M176.893 110.067C177.988 110.086 178.625 110.518 178.814 111.263C178.868 111.477 178.862 111.721 178.816 111.939C178.744 112.275 178.504 112.507 178.152 112.586C177.844 112.654 177.616 112.498 177.404 112.29C177.216 112.106 177.261 111.704 176.906 111.704C176.505 111.704 176.203 111.951 175.941 112.229C175.878 112.297 175.82 112.37 175.767 112.446C175.277 113.145 175.44 113.791 176.225 114.139C176.567 114.291 176.952 114.352 177.302 114.49C177.466 114.555 177.629 114.679 177.733 114.818C178.058 115.251 177.73 115.943 177.173 115.945C175.963 115.949 174.926 115.532 174.244 114.536C173.598 113.592 173.728 112.604 174.314 111.685C174.946 110.693 175.851 110.078 176.893 110.067Z" fill="#FCFCFC"/>
<path d="M190.755 109.719C190.733 109.64 190.737 109.531 190.687 109.487C190.434 109.265 189.985 109.24 189.707 109.431C189.646 109.472 189.595 109.575 189.593 109.652C189.587 109.927 189.935 110.259 190.211 110.229C190.504 110.198 190.675 110.002 190.755 109.719ZM188.197 110.869C188.429 110.603 188.187 110.362 188.139 110.123C187.984 109.352 188.19 108.694 188.654 108.091C189.022 107.613 189.427 107.383 190.038 107.683C190.306 107.814 190.644 107.792 190.945 107.863C191.859 108.078 192.312 108.678 192.286 109.615C192.241 111.239 190.701 112.204 189.243 111.53C188.966 111.401 188.791 111.079 188.439 111.101C188.439 111.101 188.492 111.125 188.492 111.125C188.483 110.929 188.495 110.711 188.188 110.824L188.197 110.869Z" fill="#FCFCFC"/>
<path d="M155.391 113.415C155.037 113.415 154.681 113.445 154.33 113.407C153.959 113.366 153.651 112.941 153.663 112.563C153.676 112.161 153.98 111.769 154.355 111.758C155.024 111.739 155.695 111.741 156.363 111.786C156.764 111.813 157.028 112.195 157.022 112.613C157.015 113.045 156.751 113.368 156.336 113.401C156.023 113.426 155.706 113.406 155.391 113.406C155.391 113.409 155.391 113.412 155.391 113.415Z" fill="#FCFCFC"/>
<path d="M155.801 114.277C156.247 114.301 156.759 114.303 157.263 114.366C157.65 114.414 157.894 114.801 157.858 115.205C157.828 115.546 157.59 115.85 157.246 115.887C156.276 115.992 155.303 115.941 154.336 115.846C153.946 115.808 153.665 115.427 153.663 115.055C153.661 114.672 153.942 114.319 154.353 114.285C154.812 114.247 155.277 114.277 155.801 114.277Z" fill="#FCFCFC"/>
<path d="M181.754 113.698C181.762 113.564 181.682 113.469 181.58 113.429C181.301 113.319 181.016 113.217 180.726 113.141C180.523 113.089 180.366 113.191 180.267 113.378C180.072 113.748 180.084 114.038 180.316 114.317C180.554 114.603 181.043 114.728 181.343 114.564C181.687 114.375 181.715 114.029 181.754 113.698ZM183.022 113.452C183.021 113.523 183.022 113.594 183.025 113.665C183.099 114.01 183.002 114.327 182.873 114.643C182.46 115.652 181.69 116.087 180.629 115.904C179.595 115.726 178.867 114.9 178.852 113.886C178.842 113.174 179.081 112.564 179.646 112.108C180.049 111.783 180.497 111.636 181.016 111.84C181.437 112.006 181.884 112.116 182.283 112.322C182.722 112.549 183.114 112.861 183.022 113.452Z" fill="#FCFCFC"/>
</svg>
