<svg width="24" height="24" viewBox="0 0 24 24" fill="none" xmlns="http://www.w3.org/2000/svg">
<rect x="0.5" y="0.5" width="23" height="23" rx="11.5" fill="#181A21"/>
<rect x="0.5" y="0.5" width="23" height="23" rx="11.5" stroke="#181A21"/>
<path d="M19.875 6.09375H4.125C3.82673 6.09408 3.54078 6.21272 3.32987 6.42362C3.11897 6.63453 3.00033 6.92048 3 7.21875V15.375C3.00034 15.6733 3.11897 15.9592 3.32988 16.1701C3.54078 16.381 3.82674 16.4997 4.125 16.5H19.875C20.1733 16.4997 20.4592 16.381 20.6701 16.1701C20.881 15.9592 20.9997 15.6733 21 15.375V7.21875C20.9997 6.92048 20.881 6.63453 20.6701 6.42362C20.4592 6.21272 20.1733 6.09408 19.875 6.09375ZM20.4375 15.375C20.4375 15.5242 20.3782 15.6673 20.2727 15.7727C20.1673 15.8782 20.0242 15.9375 19.875 15.9375H4.125C3.97582 15.9375 3.83274 15.8782 3.72725 15.7727C3.62176 15.6673 3.5625 15.5242 3.5625 15.375V7.21875C3.5625 7.06957 3.62176 6.92649 3.72725 6.821C3.83274 6.71551 3.97582 6.65625 4.125 6.65625H19.875C20.0242 6.65625 20.1673 6.71551 20.2727 6.821C20.3782 6.92649 20.4375 7.06957 20.4375 7.21875V15.375Z" fill="#FCFCFC"/>
<path d="M19.5937 8.625H13.8999C13.8253 8.625 13.7538 8.65464 13.701 8.70738C13.6483 8.76012 13.6186 8.83166 13.6186 8.90625V13.0476L12.2599 11.8004C12.2049 11.7499 12.1322 11.7234 12.0576 11.7266C11.9831 11.7298 11.9129 11.7625 11.8625 11.8174C11.812 11.8724 11.7855 11.9451 11.7887 12.0197C11.7919 12.0942 11.8245 12.1644 11.8795 12.2149L13.7097 13.8947C13.7499 13.9317 13.8 13.9561 13.8539 13.965C13.9077 13.9739 13.9631 13.967 14.013 13.945C14.063 13.923 14.1055 13.887 14.1354 13.8412C14.1652 13.7955 14.1811 13.7421 14.1811 13.6875V9.1875H19.5937C19.6683 9.1875 19.7399 9.15787 19.7926 9.10512C19.8454 9.05238 19.875 8.98084 19.875 8.90625C19.875 8.83166 19.8454 8.76012 19.7926 8.70738C19.7399 8.65463 19.6683 8.625 19.5937 8.625Z" fill="#FCFCFC"/>
<path d="M7.19554 8.90625C7.19554 8.83166 7.16591 8.76012 7.11316 8.70738C7.06042 8.65464 6.98888 8.625 6.91429 8.625H4.53822C4.48979 8.625 4.44219 8.6375 4.40001 8.66129C4.35783 8.68509 4.32251 8.71938 4.29748 8.76083C4.27244 8.80228 4.25854 8.8495 4.25711 8.8979C4.25567 8.94631 4.26677 8.99426 4.28931 9.03712L5.40683 11.1626L4.16001 13.4224C4.13639 13.4652 4.12433 13.5134 4.12505 13.5623C4.12576 13.6112 4.13921 13.6591 4.16407 13.7012C4.18893 13.7434 4.22434 13.7783 4.26681 13.8025C4.30928 13.8268 4.35734 13.8395 4.40625 13.8395H6.91429C6.98888 13.8395 7.06042 13.8099 7.11317 13.7571C7.16591 13.7044 7.19554 13.6329 7.19554 13.5583C7.19554 13.4837 7.16591 13.4121 7.11317 13.3594C7.06042 13.3067 6.98888 13.277 6.91429 13.277H4.88264L5.97248 11.3017C5.99499 11.2609 6.00701 11.2152 6.00748 11.1686C6.00794 11.1221 5.99684 11.0761 5.97516 11.0349L5.00383 9.1875H6.91429C6.98888 9.1875 7.06042 9.15786 7.11316 9.10512C7.16591 9.05238 7.19554 8.98084 7.19554 8.90625Z" fill="#FCFCFC"/>
<path d="M18.6852 10.0071C18.6602 9.98001 18.63 9.9581 18.5964 9.94267C18.5628 9.92724 18.5266 9.91858 18.4896 9.91719C18.4527 9.9158 18.4159 9.92171 18.3813 9.93457C18.3466 9.94743 18.3149 9.967 18.2878 9.99215L17.016 11.1716L15.7443 9.99215C15.6896 9.94144 15.617 9.91452 15.5425 9.91733C15.4679 9.92014 15.3976 9.95244 15.3468 10.0071C15.2961 10.0618 15.2692 10.1344 15.272 10.2089C15.2748 10.2835 15.3071 10.3538 15.3618 10.4046L16.6025 11.5552L15.3618 12.7058C15.3071 12.7566 15.2748 12.8269 15.272 12.9015C15.2692 12.976 15.2961 13.0486 15.3468 13.1033C15.3976 13.158 15.4679 13.1903 15.5425 13.1931C15.617 13.1959 15.6896 13.169 15.7443 13.1182L17.0161 11.9388L18.2878 13.1182C18.3425 13.169 18.4151 13.1959 18.4896 13.1931C18.5642 13.1903 18.6345 13.158 18.6853 13.1033C18.736 13.0486 18.7629 12.976 18.7601 12.9015C18.7573 12.8269 18.725 12.7566 18.6703 12.7058L17.4296 11.5552L18.6703 10.4046C18.6974 10.3794 18.7192 10.3492 18.7347 10.3157C18.7501 10.2821 18.7587 10.2458 18.7601 10.2089C18.7615 10.172 18.7556 10.1352 18.7428 10.1006C18.7299 10.066 18.7104 10.0342 18.6852 10.0071Z" fill="#FCFCFC"/>
<path d="M10.8157 10.0464H8.58627C8.51168 10.0464 8.44014 10.076 8.3874 10.1288C8.33466 10.1815 8.30502 10.253 8.30502 10.3276C8.30502 10.4022 8.33466 10.4738 8.3874 10.5265C8.44014 10.5793 8.51168 10.6089 8.58627 10.6089H10.8157C10.8903 10.6089 10.9618 10.5793 11.0145 10.5265C11.0673 10.4738 11.0969 10.4022 11.0969 10.3276C11.0969 10.253 11.0673 10.1815 11.0145 10.1288C10.9618 10.076 10.8903 10.0464 10.8157 10.0464Z" fill="#FCFCFC"/>
<path d="M10.8157 11.0803H8.58627C8.51168 11.0803 8.44014 11.11 8.3874 11.1627C8.33466 11.2154 8.30502 11.287 8.30502 11.3616C8.30502 11.4362 8.33466 11.5077 8.3874 11.5604C8.44014 11.6132 8.51168 11.6428 8.58627 11.6428H10.8157C10.8903 11.6428 10.9618 11.6132 11.0145 11.5604C11.0673 11.5077 11.0969 11.4362 11.0969 11.3616C11.0969 11.287 11.0673 11.2154 11.0145 11.1627C10.9618 11.11 10.8903 11.0803 10.8157 11.0803Z" fill="#FCFCFC"/>
<path d="M18.75 17.3438C18.75 17.2692 18.7204 17.1976 18.6676 17.1449C18.6149 17.0921 18.5433 17.0625 18.4688 17.0625H5.53125C5.45666 17.0625 5.38512 17.0921 5.33238 17.1449C5.27963 17.1976 5.25 17.2692 5.25 17.3438C5.25 17.4183 5.27963 17.4899 5.33238 17.5426C5.38512 17.5954 5.45666 17.625 5.53125 17.625H18.4688C18.5433 17.625 18.6149 17.5954 18.6676 17.5426C18.7204 17.4899 18.75 17.4183 18.75 17.3438Z" fill="#FCFCFC"/>
</svg>
