<svg width="343" height="340" viewBox="0 0 343 340" fill="none" xmlns="http://www.w3.org/2000/svg">
<path d="M320.593 281.369C320.785 307.466 254.601 324.36 170.802 324.976C95.7413 325.529 20.5417 304.881 20.3495 278.767C20.1744 254.965 86.3667 239.176 170.166 238.559C261.53 237.751 320.455 262.599 320.593 281.369Z" fill="#FCFCFC"/>
<path d="M176.843 325.663C137.843 326.103 79.3505 320.821 43.2201 304.543C36.4301 301.779 30.2055 297.79 24.8561 292.777C20.8304 288.675 18.1273 284.087 18.5431 278.202C19.0146 274.145 20.8942 270.383 23.8545 267.57C55.4192 234.082 201.439 225.458 281.692 251.306C294.099 255.295 311.202 261.987 319.048 272.403C324.028 279.031 323.895 286.411 318.553 292.962C302.933 312.085 253.363 320.101 228.866 322.832C211.585 324.669 194.221 325.614 176.843 325.663ZM162.165 239.468C133.57 239.831 105.072 241.86 77.2158 247.914C65.2838 250.289 53.6546 253.991 42.5445 258.949C16.6031 271.041 16.349 285.019 34.8122 296.41C55.8028 309.313 87.659 315.438 111.996 318.693C146.681 323.158 181.739 323.977 216.595 321.137C242.083 319.079 277.511 313.888 300.5 302.565C314.561 295.661 325.878 285.597 315.774 273.413C311.752 268.898 306.84 265.264 301.346 262.74C265.678 244.572 201.504 238.94 162.165 239.468Z" fill="#181A21"/>
<path d="M321.861 278.095C321.051 278.917 320.174 279.808 319.278 280.562C317.588 281.884 315.897 283.205 314.088 284.511C290.853 299.372 249.088 298.37 243.203 298.09C242.794 298.057 242.399 297.921 242.055 297.694C241.712 297.468 241.431 297.159 241.239 296.796C239.253 292.73 236.957 274.146 237.448 269.246C237.591 267.783 237.926 267.117 239.557 266.952C245.248 266.383 268.567 265.191 283.029 255.054C284.01 254.361 284.932 253.586 285.783 252.738C290.213 248.912 293.124 243.624 293.988 237.835C294.141 237.282 294.194 236.705 294.145 236.133C294.213 235.757 294.13 235.369 293.915 235.052C293.699 234.736 293.369 234.517 292.993 234.442C292.006 234.279 291.689 235.114 291.542 235.932C288.953 244.452 287.595 247.097 285.538 249.407C284.828 250.24 284.03 250.993 283.157 251.652C256.502 242.973 233.124 240.68 208.994 237.831C211.561 233.256 216.571 225.551 216.889 224.885C217.03 224.74 217.138 224.566 217.205 224.376C217.273 224.185 217.299 223.983 217.281 223.781C217.264 223.58 217.203 223.384 217.103 223.209C217.004 223.033 216.867 222.88 216.704 222.762C215.883 222.121 215.24 222.619 214.599 223.27C211.446 227.834 208.59 232.598 206.05 237.53C184.446 236.074 186.286 236.536 186.624 236.211C196.457 219.186 211.16 205.494 228.84 196.897C233.72 194.583 244.618 192.258 250.904 191.634C253.334 191.395 252.861 191.925 254.315 193.071C268.644 204.153 281.092 195.152 284.488 192.203C284.906 191.786 285.437 191.499 286.016 191.377C286.594 191.255 287.195 191.303 287.747 191.516C294.557 192.775 326.156 207.895 332.296 238.182C335.354 254.023 332.19 267.699 321.861 278.095Z" fill="#E4DDFD"/>
<path d="M281.575 101.365C293.344 104.202 306.439 116.195 308.696 129.389C310.045 137.217 306.498 147.342 302.868 157.655C300.12 165.496 297.591 170.752 291.258 176.443C288.268 179.151 283.784 179.762 282.99 182.71C281.88 186.781 284.025 191.662 283.534 192.006C277.969 195.872 272.325 198.328 266.456 197.827C263.189 197.562 256.15 195.132 254.52 193.188C253.867 192.224 255.636 190.086 256.761 185.827C256.908 185.01 245.991 182.506 242.341 178.588C239.4 175.657 237.188 172.077 235.88 168.136C234.573 164.195 234.207 160.003 234.812 155.895C236.161 145.139 240.45 136.522 241.218 116.028C241.026 113.088 247.408 93.1149 281.575 101.365Z" fill="#FFF2F0"/>
<path d="M274.918 160.156C274.359 160.204 273.797 160.142 273.263 159.972C272.73 159.802 272.234 159.528 271.807 159.166C271.379 158.804 271.027 158.362 270.771 157.863C270.515 157.365 270.36 156.821 270.315 156.262C270.283 155.143 270.688 154.055 271.443 153.227C272.198 152.4 273.245 151.899 274.363 151.829C274.931 151.752 275.509 151.793 276.061 151.949C276.613 152.104 277.126 152.372 277.57 152.734C278.014 153.097 278.379 153.547 278.642 154.056C278.905 154.566 279.06 155.124 279.098 155.696C279.136 156.268 279.056 156.842 278.863 157.381C278.67 157.921 278.368 158.416 277.976 158.834C277.584 159.252 277.111 159.585 276.584 159.813C276.058 160.04 275.491 160.157 274.918 160.156Z" fill="#FFF2F0"/>
<path d="M243.237 147.825C243.283 148.993 242.869 150.134 242.084 151.001C241.298 151.868 240.205 152.393 239.037 152.463C238.002 152.542 236.977 152.215 236.179 151.551C235.38 150.888 234.872 149.939 234.761 148.907C234.799 147.694 235.283 146.538 236.12 145.66C236.958 144.782 238.09 144.243 239.299 144.147C239.808 144.091 240.322 144.146 240.808 144.307C241.293 144.469 241.738 144.733 242.112 145.082C242.486 145.432 242.78 145.857 242.974 146.331C243.168 146.804 243.258 147.313 243.237 147.825Z" fill="#FFF2F0"/>
<path d="M251.148 164.735C249.819 163.235 248.76 161.518 248.016 159.657C247.918 159.52 247.849 159.364 247.811 159.2C247.774 159.035 247.769 158.865 247.798 158.698C247.827 158.532 247.888 158.373 247.979 158.231C248.07 158.089 248.188 157.966 248.326 157.869C248.553 157.662 248.84 157.533 249.146 157.5C249.451 157.467 249.759 157.533 250.025 157.687C253.799 159.937 257.413 158.84 260.953 157.113C261.614 156.837 262.221 156.447 262.747 155.961C263.391 155.633 264.052 155.305 264.701 155.777C265.022 155.982 265.273 156.28 265.421 156.631C265.569 156.982 265.608 157.37 265.532 157.743C265.234 161.145 261.837 166.271 258.103 167.098C256.838 167.394 255.516 167.33 254.287 166.912C253.058 166.494 251.97 165.74 251.148 164.735ZM262.535 159.431C259.12 160.99 255.349 161.605 251.615 161.212C252.095 162.135 252.795 162.925 253.654 163.512C254.512 164.099 255.503 164.464 256.537 164.576C259.341 164.436 261.462 161.547 262.586 159.431L262.535 159.431Z" fill="#181A21"/>
<path d="M260.896 130.879C260.952 138.394 257.587 143.281 250.891 145.966C250.077 146.295 249.927 146.619 250.256 147.433C250.664 148.55 251.246 149.595 251.979 150.532C252.477 151.174 252.636 151.989 251.823 152.488C251.676 152.602 251.508 152.684 251.328 152.731C251.148 152.777 250.961 152.786 250.778 152.757C250.594 152.728 250.419 152.662 250.262 152.562C250.105 152.463 249.97 152.333 249.866 152.179C248.525 150.607 247.662 148.684 247.377 146.638C247.287 145.999 247.432 145.35 247.784 144.81C248.137 144.269 248.673 143.875 249.293 143.699C261.587 139.256 257.496 126.331 257.321 125.533C257.145 124.735 257.157 124.055 257.97 123.726C258.784 123.397 259.434 123.868 259.763 124.699C260.593 126.65 260.98 128.761 260.896 130.879Z" fill="#181A21"/>
<path d="M283.434 132.193C283.596 132.311 283.731 132.463 283.829 132.638C283.927 132.813 283.986 133.008 284.002 133.208C284.018 133.408 283.99 133.609 283.921 133.797C283.852 133.986 283.744 134.157 283.603 134.3C282.961 134.968 282.126 134.651 281.475 133.992C280.527 132.877 279.307 132.026 277.933 131.521C276.559 131.015 275.078 130.874 273.633 131.109C273.446 131.163 273.249 131.176 273.057 131.147C272.864 131.118 272.681 131.048 272.518 130.94C272.356 130.833 272.218 130.692 272.116 130.527C272.013 130.361 271.948 130.175 271.924 129.982C271.881 129.822 271.871 129.655 271.897 129.491C271.923 129.328 271.983 129.171 272.073 129.032C272.164 128.894 272.283 128.775 272.422 128.686C272.562 128.596 272.719 128.537 272.883 128.513C274.809 128.163 276.794 128.318 278.643 128.963C280.492 129.608 282.143 130.721 283.434 132.193Z" fill="#181A21"/>
<path d="M251.572 127.531C250.593 127.184 249.554 127.038 248.518 127.101C247.481 127.164 246.468 127.435 245.538 127.898C244.743 128.397 243.843 128.557 243.412 127.744C243.25 127.372 243.227 126.955 243.346 126.568C243.464 126.18 243.718 125.848 244.06 125.631C245.316 124.835 246.753 124.367 248.237 124.27C249.722 124.173 251.207 124.449 252.557 125.075C252.833 125.25 253.047 125.509 253.165 125.814C253.284 126.119 253.301 126.455 253.215 126.77C253.082 127.077 252.841 127.324 252.538 127.464C252.235 127.604 251.891 127.628 251.572 127.531Z" fill="#181A21"/>
<path d="M245.625 139.646C244.316 139.656 243.338 138.524 243.156 136.893C243.131 136.117 243.387 135.358 243.876 134.755C244.364 134.152 245.054 133.745 245.818 133.609C249.321 133.583 248.787 139.623 245.625 139.646Z" fill="#181A21"/>
<path d="M275.168 141.061C275.852 141.12 276.488 141.438 276.947 141.949C277.405 142.461 277.652 143.127 277.637 143.814C277.686 144.623 277.431 145.422 276.924 146.054C276.416 146.687 275.691 147.107 274.89 147.235C274.529 147.23 274.173 147.147 273.847 146.993C273.52 146.839 273.23 146.617 272.996 146.342C272.762 146.067 272.59 145.745 272.491 145.397C272.391 145.05 272.368 144.686 272.421 144.328C272.371 143.535 272.629 142.753 273.141 142.145C273.652 141.537 274.378 141.148 275.168 141.061Z" fill="#181A21"/>
<path d="M114.85 193.638C115.462 193.612 116.066 193.788 116.569 194.137C117.072 194.486 117.446 194.991 117.636 195.573C123.467 207.091 138.381 242.108 141.348 247.935C141.442 248.2 141.623 248.425 141.863 248.572C142.102 248.718 142.385 248.778 142.663 248.742C155.229 248.887 191.78 250.658 197.172 250.942C198.634 250.931 199.623 251.417 199.135 252.084C196.705 254.55 162.416 269.067 155.076 271.977C153.372 272.441 151.593 272.564 149.842 272.339C137.121 271.956 58.4504 269.39 43.4495 268.718C42.4487 268.779 41.4579 268.49 40.647 267.9C39.8361 267.311 39.2556 266.457 39.0052 265.486C30.5199 242.222 13.2081 195.525 12.9858 195.357C11.2616 192.105 12.8054 191.635 15.5765 191.597C22.6484 191.46 98.3408 193.59 114.85 193.638Z" fill="#FCFCFC"/>
<path d="M15.6143 189.812C18.8785 189.788 109.614 191.449 116.625 192.163C117.935 192.306 118.331 192.984 118.934 194.101C121.856 200.643 137.127 233.48 139.322 238.344C141.517 243.207 143.793 247.424 144.49 247.436C166.374 247.768 182.197 249.233 199.664 249.971C203.422 250.131 202.946 252.396 202.304 252.893C198.072 255.526 183.767 261.531 175.19 265.164C170.8 266.999 157.312 273.168 155.021 273.814C153.07 274.355 146.368 273.878 144.821 273.889C141.726 273.912 42.324 270.58 41.0816 270.402C40.5236 270.365 39.9898 270.16 39.5503 269.815C39.1107 269.469 38.7861 268.998 38.619 268.465C37.0416 264.362 9.93416 194.24 9.91739 191.962C9.90063 189.684 11.857 189.84 15.6143 189.812ZM148.829 271.071C150.14 271.215 150.136 270.722 149.635 269.586C144.621 258.317 122.26 209.43 116.01 196.401C115.682 195.74 115.677 195.094 114.691 195.102C112.889 195.115 18.7312 192.866 13.8348 192.902C12.8657 192.91 12.8682 193.25 13.196 193.893C13.8546 195.589 39.6574 264.02 39.9877 265.003C40.318 265.987 41.1448 267.443 42.132 267.589C45.7063 268.107 148.047 271.06 148.863 271.054L148.829 271.071ZM195.843 252.941C194.142 252.783 150.309 250.335 145.583 250.369C144.92 250.374 144.58 250.377 144.926 251.19C147.744 257.613 150.63 263.917 153.72 270.219C154.031 270.863 154.218 270.862 154.861 270.534C159.454 268.528 193.999 254.23 195.877 252.924L195.843 252.941Z" fill="#181A21"/>
<path d="M233.601 146.093C231.207 144.961 229.249 143.077 228.025 140.729C226.802 138.38 226.38 135.696 226.823 133.085C227.227 130.309 228.516 127.738 230.499 125.753C232.481 123.769 235.052 122.478 237.828 122.072C239.953 122.056 235.562 146.912 233.601 146.093Z" fill="#FCFCFC"/>
<path d="M303.924 146.392C305.238 144.767 304.712 142.629 304.373 140.353C299.309 106.114 268.519 99.3014 264.734 97.8671C261.648 96.7166 258.192 96.113 258.186 95.2969C258.18 94.4808 264.233 94.4363 266.343 94.7438C277.206 96.1777 287.314 101.083 295.163 108.729C303.058 116.508 306.955 123.944 309.555 135.214C309.92 138.464 310.109 141.732 310.12 145.003C310.127 145.989 322.098 155.422 313.687 167.658C310.49 172.272 303.62 174.414 298.245 174.13C295.303 173.982 293.975 173.686 293.981 172.206C294.031 165.235 298.146 153.728 303.924 146.392Z" fill="#FCFCFC"/>
<path d="M321.867 124.072C320.004 101.983 302.25 96.8088 299.317 95.6743C302.972 95.4003 306.634 96.1071 309.925 97.7215C310.589 97.8866 311.406 98.0336 311.723 97.2152C312.04 96.3967 311.561 95.9072 310.895 95.5211C307.014 93.5509 302.632 92.7895 298.314 93.3354C297.498 93.3414 296.829 90.2519 296.328 89.1164C296 88.4558 295.671 87.6421 294.619 87.9728C293.567 88.3036 293.981 89.1337 294.31 89.9474C294.877 90.8766 295.168 91.9475 295.149 93.0356C294.663 92.1898 293.989 91.4675 293.179 90.9248C283.464 80.88 266.32 77.7418 253.801 83.8697C248.107 86.5299 243.888 90.7435 242.643 97.1795C240.014 98.6739 237.715 100.686 235.886 103.095C232.388 108.357 232.463 116.212 238.952 120.075C238.539 120.087 238.128 120.147 237.729 120.254C235.047 120.825 232.555 122.069 230.486 123.869C228.417 125.669 226.84 127.965 225.903 130.542C224.962 133.527 225.057 136.743 226.174 139.668C227.292 142.592 229.365 145.052 232.058 146.649C232.721 147.066 233.514 147.229 234.288 147.108C233.911 148.947 233.55 150.803 233.241 152.693C231.945 159.95 233.202 167.433 236.798 173.868C238.499 176.951 240.873 179.61 243.743 181.649C246.613 183.689 249.906 185.055 253.376 185.648C254.67 185.791 254.843 186.283 254.528 187.34C254.146 188.63 253.666 189.89 253.093 191.108C252.855 191.461 252.757 191.89 252.82 192.312C252.883 192.733 253.102 193.116 253.433 193.383C261.811 201.976 277.466 201.538 285.237 192.333C285.521 192.069 285.707 191.716 285.763 191.332C285.818 190.948 285.741 190.557 285.544 190.223C283.828 188.11 283.038 182.403 285.156 181.402C288.698 179.794 291.918 177.558 294.663 174.803C296.341 175.142 298.059 175.244 299.766 175.105C311.512 174.764 317.006 168.177 317.757 159.297C318.024 156.178 317.287 153.055 315.651 150.386C320.504 142.514 322.685 133.284 321.867 124.072ZM233.269 144.957C232.283 144.964 224.248 138.987 228.056 129.693C230.146 124.781 237.304 122.603 237.648 123.094C237.788 123.456 237.844 123.845 237.809 124.232C237.813 124.725 237.033 129.627 236.723 131.414C236.284 134.172 234.58 145.117 233.269 144.957ZM292.883 173.235C290.268 176.14 286.971 178.349 283.29 179.664C280.356 180.672 281.558 189.147 282.708 190.601C282.857 190.795 282.926 191.04 282.899 191.285C282.873 191.529 282.752 191.753 282.564 191.911C279.135 195.2 274.619 197.118 269.871 197.304C265.123 197.489 260.472 195.928 256.796 192.917C256.128 192.276 255.972 191.784 256.29 191.118C256.781 190.039 257.1 188.889 257.234 187.711C257.227 186.725 257.719 186.568 258.705 186.561C261.103 186.672 263.506 186.541 265.877 186.168C266.862 186.008 268.154 185.998 267.989 184.452C267.825 182.906 266.501 183.171 265.533 183.331C258.519 184.369 251.657 183.11 248.516 181.348C238.192 176.187 234.533 166.438 235.588 155.005C236.205 146.499 240.732 135.601 241.801 121.329C243.784 121.929 245.84 122.251 247.911 122.287C253.014 122.572 264.047 120.043 264.047 120.043C265.052 122.637 269.328 128.318 281.556 126.596C283.895 126.146 286.173 125.422 288.341 124.438C287.725 126.459 287.302 128.535 287.078 130.636C286.519 140.127 291.473 147.997 299.13 151.137C295.345 158.901 293.477 163.862 292.776 172.538C292.781 172.774 292.817 173.008 292.883 173.235ZM308.678 170.84C304.949 172.882 300.641 173.602 296.451 172.885C295.481 172.722 295.138 172.402 295.301 171.415C296.191 162.69 299.335 154.347 304.423 147.204C305.47 145.493 305.859 143.46 305.52 141.484C305.306 133.154 302.008 126.343 297.537 119.439C287.624 103.19 267.18 97.56 262.118 95.897C259.34 94.9313 271.249 95.9828 277.147 98.0647C293.673 104.965 304.493 117.45 308.244 135.037C309.922 143.61 307.654 144.953 310.459 147.262C312.283 148.715 313.723 150.591 314.655 152.728C315.588 154.865 315.983 157.198 315.807 159.522C315.632 161.847 314.89 164.094 313.647 166.066C312.405 168.039 310.699 169.678 308.678 170.84Z" fill="#181A21"/>
<path d="M74.8092 230.47C74.8308 233.412 73.1487 235.872 70.1225 235.895C68.6547 235.933 67.2302 235.395 66.1548 234.395C65.0794 233.396 64.4388 232.014 64.3704 230.547C64.3173 223.339 74.76 223.789 74.8092 230.47Z" fill="#181A21"/>
<path d="M146.734 300.602C146.643 301.603 146.184 302.533 145.445 303.213C136.205 311.442 117.049 309.866 109.562 304.463C107.562 303.033 106.141 301.717 106.122 299.099L105.909 270.197C105.835 260.132 139.142 260.074 145.37 267.628C146.201 268.813 146.563 270.265 146.386 271.701C146.458 276.937 146.698 295.706 146.734 300.602Z" fill="#FFE7AE"/>
<path d="M147.772 300.595C147.77 301.124 147.654 301.646 147.431 302.126C147.209 302.606 146.885 303.032 146.483 303.376C141.874 307.393 136.013 309.684 129.902 309.857C123.104 310.162 110.633 309.012 105.682 301.721C105.276 300.402 105.099 299.023 105.159 297.644C105.136 294.533 105.136 294.516 102.205 293.585C92.8321 290.628 90.9477 281.767 97.1862 276.977C99.0757 275.63 101.241 274.72 103.525 274.312C104.663 274.151 105.221 273.653 104.974 272.516L104.941 267.943C104.922 265.342 112.076 260.222 125.289 260.618C143.401 261.148 146.937 265.678 147.062 271.22C147.181 275.793 147.647 295.206 147.772 300.595ZM108.058 268.736C108.059 268.906 107.889 268.907 107.89 269.06C107.966 279.346 107.889 289.616 107.963 299.664C107.955 300.046 108.041 300.425 108.212 300.767C108.383 301.11 108.635 301.405 108.946 301.629C112.49 304.414 116.744 306.149 121.225 306.639C129.208 307.974 136.956 307.254 143.701 301.9C144.125 301.633 144.47 301.259 144.703 300.815C144.936 300.372 145.047 299.874 145.025 299.374C144.954 289.751 144.713 280.113 144.643 270.473C144.632 269.011 143.989 269.509 143.174 269.668C132.1 273.569 119.983 273.295 109.096 268.898C108.952 268.784 108.78 268.709 108.598 268.681C108.417 268.653 108.23 268.672 108.058 268.736ZM105.183 277.734C105.174 276.595 99.7799 278.25 98.0263 280.235C97.3835 280.857 96.9246 281.644 96.7 282.509C96.4754 283.375 96.4938 284.285 96.7533 285.141C98.0644 290.028 105.301 291.437 105.292 290.298C105.091 288.344 105.198 279.859 105.183 277.734Z" fill="#181A21"/>
<path d="M218.197 270.867C217.708 269.17 210.008 264.721 209.339 263.91C208.842 263.421 206.183 260.278 210.631 261.622C211.773 261.971 226.981 267.725 233.86 269.119C237.776 269.924 237.985 270.551 237.639 274.311C236.963 281.831 239.751 293.389 239.48 293.544C234.626 296.98 227.616 298.528 221.742 299.71C204.968 303.115 190.859 294.259 189.887 293.756C182.616 290.018 191.176 291.094 193.457 291.434C196.249 291.873 203.098 293.812 204.901 293.969C205.394 293.965 206.197 292.157 205.209 291.841C198.666 290.067 192.432 287.31 186.718 283.663C185.01 282.57 180.619 277.366 188.16 280.881C194.132 283.789 200.426 285.985 206.91 287.425C207.388 287.591 208.695 285.1 207.043 284.653C204.453 283.958 190.852 279.382 185.099 273.882C179.688 268.702 186.063 270.933 186.78 271.251C191.046 273.345 201.164 278.286 207.245 279.754C209.357 280.266 210.471 276.823 207.216 275.844C202.104 274.301 191.005 267.785 190.508 267.313C186.485 263.5 190.982 264.708 191.629 264.856C208.25 270.77 218.2 271.36 218.197 270.867Z" fill="#FFF2F0"/>
<path d="M213.955 269.759C212.639 268.782 211.493 267.822 210.348 267.014C209.228 266.063 208.181 265.031 207.213 263.926C202.936 257.921 211.441 260.8 212.752 261.113C219.944 263.339 226.799 266.111 234.006 268.132C239.236 269.607 238.097 269.581 238.129 273.984C238.233 279.865 238.989 285.715 240.383 291.429C240.717 292.889 240.895 294.027 239.423 295.024C226.439 302.617 214.388 303.114 201.123 300.406C197.207 299.602 190.285 297.085 186.878 293.829C185.046 292.142 182.13 288.576 189.143 289.732C209.809 293.133 190.021 291.256 182.883 282.433C181.425 280.624 179.546 277.17 184.165 278.666C186.755 279.514 198.555 284.12 201.332 284.916C195.419 282.563 189.854 279.418 184.788 275.567C180.361 272.335 178.344 266.331 187.043 270.008C193.865 272.899 198.815 275.634 205.705 278.508C206.029 278.505 207.308 279.142 207.404 278.342C207.501 277.542 207.228 277.527 206.75 277.208C205.608 276.876 204.466 276.391 203.34 275.924C197.969 273.753 189.231 269.363 186.794 266.252C186.296 265.61 183.483 262.264 188.557 263.298C190.26 263.642 191.846 264.226 193.669 264.739C200.075 266.545 206.261 268.557 212.799 269.818C212.986 269.886 213.185 269.916 213.383 269.906C213.582 269.896 213.776 269.846 213.955 269.759ZM185.328 281.871C187.047 284.46 199.905 289.755 205.459 291.193C206.446 291.339 207.267 291.996 206.956 293.63C206.638 296.574 204.196 295.215 201.404 294.64C198.611 294.066 186.498 290.72 188.499 292.287C193.355 296.111 201.105 297.907 205.361 298.692C215.723 300.921 226.541 299.338 235.83 294.234C236.321 293.907 238.423 293.076 237.762 291.108C236.25 286.563 235.892 279.544 235.843 272.862C235.834 271.706 234.847 271.577 233.875 271.176C232.546 270.71 224.69 268.371 222.098 267.335C203.069 259.808 213.899 266.784 215.728 268.045C216.702 268.701 217.879 269.322 218.853 269.978C223.313 272.988 218.215 273.383 214.15 273.107C206.954 272.548 189.099 265.317 189.942 266.603C190.784 267.889 203.047 273.035 208.607 275.443C209.92 275.909 209.613 278.037 209.45 279.024C208.969 280.728 208.178 281.788 206.374 281.495C199.564 280.355 181.788 269.944 184.203 272.358C190.538 278.314 198.344 282.476 206.82 284.416C208.27 285.103 207.952 285.717 207.807 286.857C207.486 289.478 206.346 289.35 205.052 289.003C198.544 287.316 184.175 280.077 185.328 281.871Z" fill="#181A21"/>
<path d="M115.052 66.2053C131.851 66.4047 148.502 67.0983 165.322 67.7906C163.719 67.1563 162.013 66.3188 160.41 65.7015C160.228 65.6552 160.058 65.5709 159.911 65.4541C159.764 65.3374 159.644 65.1908 159.558 65.024C159.472 64.8573 159.423 64.6742 159.413 64.4869C159.403 64.2995 159.432 64.1122 159.5 63.9373C159.568 63.7624 159.672 63.6038 159.806 63.4721C159.939 63.3404 160.099 63.2385 160.275 63.1732C160.451 63.1078 160.639 63.0806 160.826 63.0932C161.013 63.1057 161.195 63.1579 161.361 63.2462C164.974 64.4777 173.142 67.7331 173.638 68.0525C174.936 68.876 175.114 69.9968 173.983 70.9913C173.492 71.3179 166.819 74.9205 164.075 76.2839C163.912 76.3868 163.73 76.454 163.539 76.4811C163.349 76.5082 163.154 76.4945 162.97 76.441C162.785 76.3874 162.613 76.2952 162.467 76.1705C162.32 76.0457 162.201 75.8913 162.119 75.7174C162.036 75.5434 161.992 75.3539 161.988 75.1615C161.984 74.969 162.021 74.7779 162.097 74.6008C162.172 74.4238 162.285 74.2647 162.426 74.1343C162.568 74.0038 162.735 73.9049 162.918 73.8441C164.611 72.8455 166.492 72.0155 168.44 71.0321C165.664 70.3894 110.822 69.0078 110.62 69.3323C110.418 69.6568 110.43 78.1408 110.373 81.8987C110.38 82.8848 110.233 83.702 109.094 83.7104C107.955 83.7188 107.777 82.7339 107.77 81.7479C107.743 78.0076 108.003 69.5216 107.848 69.1997C107.692 68.8778 60.6934 70.5158 59.7256 70.693C58.7578 70.8701 58.0242 70.5355 57.9151 69.5671C57.8059 68.5988 58.5502 68.0833 59.6043 68.0755C62.0514 67.9045 92.389 66.3721 105.106 66.2785C106.092 66.2712 105.767 65.9506 105.597 65.9518C98.3944 62.2473 94.3024 56.0717 91.8671 48.5916C89.513 40.8237 88.3529 32.7433 88.4263 24.6268C88.5637 22.5005 90.9973 22.8057 91.0275 24.6077C91.064 31.9878 92.1251 39.3271 94.1804 46.4153C96.0099 52.4376 98.7717 58.062 104.086 61.6444C105.31 62.4905 106.627 63.1938 108.012 63.7408C108.18 63.5695 108.454 47.5854 108.653 39.933C108.838 32.7397 108.716 25.4126 108.663 18.2211C108.65 16.521 106.236 21.1803 105.112 23.1439C104.136 24.6302 102.173 23.4885 102.977 21.8504C104.458 18.5795 106.239 15.453 108.298 12.5111C109.543 10.8017 110.223 10.7967 111.392 12.4883C113.988 16.4137 115.471 19.2591 117.505 23.0527C117.591 23.2026 117.646 23.3683 117.666 23.5399C117.686 23.7116 117.671 23.8854 117.621 24.051C117.572 24.2165 117.489 24.3704 117.379 24.5031C117.268 24.6358 117.132 24.7447 116.978 24.8231C116.824 24.9015 116.656 24.9477 116.483 24.9591C116.311 24.9705 116.138 24.9468 115.975 24.8893C115.812 24.8318 115.663 24.7418 115.535 24.6248C115.408 24.5078 115.306 24.3662 115.236 24.2085C114.234 22.1076 111.228 15.6009 111.264 18.202C111.541 32.7368 110.783 63.7374 110.956 64.1102C111.114 64.7551 116.984 63.0967 121.504 55.8715C127.335 46.5284 129.122 35.0898 128.769 24.1599C128.75 21.5587 131.388 21.8624 131.539 23.9865C132.556 37.3428 130.022 48.8039 122.499 59.2986C120.5 62.0726 117.968 64.4205 115.052 66.2053Z" fill="#181A21"/>
<path d="M47.3313 133.114C53.0413 132.732 68.221 132.297 72.3013 132.267C73.2704 132.26 74.5784 132.098 74.5879 133.39C74.5974 134.682 73.286 134.385 72.47 134.391C66.2815 134.437 46.9728 135.225 46.5333 135.568C42.9615 137.703 35.0046 142.335 34.8354 142.455C34.0218 142.784 33.0598 143.761 32.4043 142.473C32.0582 141.66 33.2107 141.158 33.8531 140.66C37.4247 138.509 41.9777 135.704 45.5509 133.773C45.704 133.772 45.5675 124.473 45.4974 105.703C45.4914 104.887 45.16 103.75 46.468 103.588C47.7759 103.425 47.4624 104.72 47.4684 105.536C47.4484 125.921 47.1783 133.115 47.3313 133.114Z" fill="#181A21"/>
<path d="M32.8987 144.969C32.3407 144.96 31.8078 144.735 31.4119 144.342C31.0159 143.949 30.7876 143.417 30.7749 142.859C30.5989 142.044 30.0563 123.771 29.9089 115.288C29.8336 114.536 29.975 113.778 30.3165 113.104C30.658 112.429 31.1853 111.867 31.8361 111.482C35.711 108.955 39.5181 106.444 43.2046 103.731C44.5019 102.835 46.0227 102.318 47.5971 102.236C55.5854 101.854 63.5918 101.643 71.5859 102.06C74.5284 102.208 75.5374 103 75.525 105.941C75.5034 114.562 75.719 123.061 75.7829 131.749C75.8483 132.564 75.7062 133.383 75.3698 134.129C75.0334 134.874 74.5137 135.523 73.8591 136.013C71.1059 138.482 68.5741 141 65.9225 143.417C64.8878 144.321 63.5483 144.799 62.1749 144.754C57.3829 145.112 37.9674 145.255 32.8987 144.969ZM32.5307 115.762C32.6769 124.075 32.8807 142.521 33.3737 142.517C41.7043 142.456 52.9433 142.526 61.2728 142.312C61.9188 142.307 61.107 119.785 61.0759 115.552C60.9163 114.669 32.5065 114.776 32.5307 115.762ZM64.0391 141.628C64.8516 141.129 73.1318 134.217 72.9532 133.062C72.7244 125.072 72.7636 107.288 72.4393 107.12C69.2563 109.398 66.2194 111.874 63.3467 114.532C63.4951 123.151 63.7125 141.138 64.0391 141.628ZM34.9196 112.31C34.9209 112.48 53.8409 112.018 61.682 112.436C65.2423 110.087 68.6009 107.447 71.7232 104.541C63.729 104.107 46.4423 104.727 46.2224 104.882C42.9047 106.878 38.0322 110.162 34.9536 112.31L34.9196 112.31Z" fill="#181A21"/>
<path d="M159.391 128.724C158.806 128.988 158.174 129.132 157.533 129.146C156.891 129.161 156.253 129.045 155.657 128.806C155.062 128.568 154.52 128.211 154.066 127.758C153.612 127.305 153.254 126.764 153.013 126.169C152.838 125.508 152.332 123.726 152.172 122.775C151.997 122.13 151.835 120.839 152.973 120.644C154.11 120.449 154.436 120.803 154.444 121.942C154.453 123.081 154.97 126.342 157.248 126.325C158.948 126.313 159.334 123.369 159.514 122.398C159.694 121.428 159.825 120.696 160.964 120.687C162.103 120.679 162.28 121.647 162.286 122.463C162.361 125.852 162.113 129.242 161.545 132.584C160.582 135.856 158.644 138.165 153.744 137.742C153.424 137.711 153.128 137.559 152.915 137.318C152.702 137.076 152.588 136.764 152.596 136.442C152.59 135.626 152.909 135.13 153.725 135.124C156.173 135.106 158.945 135.086 159.397 129.54L159.391 128.724Z" fill="#181A21"/>
<path d="M126.456 130.768C125.479 132.068 124.774 133.229 123.864 134.375C123.393 135.024 122.734 135.692 121.743 135.037C120.753 134.381 121.087 133.579 121.574 132.76C122.381 131.614 124.467 128.488 124.467 128.488C124.467 128.488 122.487 125.238 121.832 123.95C121.333 123.138 120.833 122.156 121.814 121.502C122.795 120.849 123.515 121.643 123.946 122.456C124.587 123.534 125.299 124.568 126.077 125.551C126.077 125.551 128.824 122.267 129.801 120.95C130.289 120.284 130.93 119.633 131.921 120.272C132.912 120.911 132.578 121.746 132.091 122.566C130.964 124.274 128.22 127.967 128.22 127.967C128.22 127.967 130.39 131.709 131.199 133.046C131.698 133.858 131.858 134.741 131.045 135.172C129.809 135.895 129.086 134.66 126.456 130.768Z" fill="#181A21"/>
<path d="M140.599 122.958C140.576 122.795 140.588 122.629 140.634 122.472C140.68 122.314 140.759 122.168 140.866 122.044C140.972 121.919 141.105 121.819 141.253 121.749C141.402 121.679 141.564 121.642 141.728 121.64C142.544 121.634 142.886 121.955 143.045 122.77C143.18 124.125 143.241 125.487 143.229 126.849C144.588 126.927 145.951 126.916 147.309 126.819C147.485 126.802 147.662 126.824 147.828 126.883C147.995 126.942 148.146 127.037 148.272 127.16C148.397 127.284 148.494 127.434 148.556 127.6C148.617 127.765 148.642 127.942 148.628 128.118C148.634 128.934 148.143 129.261 147.327 129.267C146.021 129.224 144.713 129.29 143.418 129.466L143.442 132.764C143.448 133.58 143.283 134.227 142.144 134.236C141.005 134.244 140.828 133.276 140.822 132.545L140.8 129.485C140.797 129.162 137.704 129.338 137.397 129.187C136.58 129.023 136.084 128.704 136.078 127.887C136.072 127.071 136.717 126.897 137.379 126.739C137.702 126.736 140.78 126.867 140.778 126.544C140.634 125.354 140.574 124.156 140.599 122.958Z" fill="#181A21"/>
<path d="M177.191 130.356C178.007 130.35 179.147 130.512 179.155 131.651C179.164 132.79 178.195 132.797 177.209 132.805C174.606 132.654 172.107 132.672 169.539 132.538C168.723 132.544 168.075 132.379 167.83 131.411C167.585 130.444 168.637 130.096 169.521 130.09C170.405 130.083 175.404 130.2 177.191 130.356Z" fill="#181A21"/>
<path d="M169.503 127.642C168.687 127.648 168.192 127.481 168.032 126.513C167.872 125.545 168.516 125.201 169.332 125.195C172.102 125.004 174.873 124.984 177.644 124.963C177.805 124.973 177.962 125.015 178.107 125.086C178.252 125.156 178.381 125.255 178.488 125.376C178.595 125.497 178.676 125.637 178.729 125.79C178.781 125.942 178.803 126.103 178.793 126.264C178.783 126.425 178.741 126.582 178.671 126.727C178.6 126.872 178.501 127.001 178.38 127.108C178.26 127.214 178.119 127.296 177.967 127.349C177.814 127.401 177.653 127.423 177.492 127.413C176.201 127.592 170.812 127.632 169.503 127.642Z" fill="#181A21"/>
<path d="M129.25 66.4238C129.256 67.2399 129.091 67.8872 128.121 67.7413C127.15 67.5954 126.943 67.0869 126.954 66.2707C127.008 62.0367 127.615 45.2171 127.587 41.4768C127.585 41.1368 110.292 40.941 109.799 40.9446C109.69 40.953 109.58 40.9379 109.478 40.9003C109.375 40.8627 109.282 40.8035 109.204 40.7268C109.126 40.65 109.065 40.5574 109.026 40.4553C108.987 40.3531 108.97 40.2438 108.977 40.1346C108.974 39.6586 109.295 39.4862 109.634 39.3136C109.973 39.1411 129.866 39.1648 129.869 39.6578C130.03 40.6428 129.212 61.2044 129.25 66.4238Z" fill="#181A21"/>
</svg>
