<svg width="38" height="38" viewBox="0 0 38 38" fill="none" xmlns="http://www.w3.org/2000/svg">
<rect x="1" y="1" width="36" height="36" rx="7" fill="#D0C3FF"/>
<rect x="1" y="1" width="36" height="36" rx="7" stroke="#181A21" stroke-width="0.8"/>
<path d="M22.6858 19.8497C22.6939 19.4586 22.6993 19.0628 22.6993 18.6629C22.6993 18.0003 22.6865 17.3484 22.6635 16.7101C22.6189 15.5219 22.5352 14.3838 22.417 13.3145C22.2319 11.6521 21.9671 10.16 21.6375 8.91304" stroke="#181A21" stroke-width="0.8" stroke-miterlimit="10" stroke-linecap="round" stroke-linejoin="round"/>
<path d="M22.6183 21.5789C22.5622 22.5766 22.4771 23.5344 22.3663 24.4369C21.8023 29.097 20.5763 32.3258 19.1537 32.3258C17.6893 32.3258 16.4315 28.8998 15.8918 24.0107C15.7743 22.9427 15.6905 21.8032 15.6466 20.6143C15.623 19.9774 15.6108 19.3255 15.6108 18.6629C15.6108 18.2339 15.6156 17.8091 15.6257 17.3896" stroke="#181A21" stroke-width="0.8" stroke-miterlimit="10" stroke-linecap="round" stroke-linejoin="round"/>
<path d="M15.6973 15.6611C15.752 14.6945 15.8357 13.7657 15.9425 12.8876C16.5058 8.22748 17.7318 5.00004 19.1537 5.00004C19.8819 5.00004 20.5587 5.84372 21.1193 7.29262" stroke="#181A21" stroke-width="0.8" stroke-miterlimit="10" stroke-linecap="round" stroke-linejoin="round"/>
<path d="M12.792 11.6103C13.7586 11.9379 14.8205 12.3668 15.9424 12.8876C17.0205 13.3888 18.1546 13.9751 19.3151 14.6358C19.8798 14.9566 20.4499 15.2964 21.0234 15.6517C21.5874 16.0002 22.1339 16.3549 22.6635 16.7102C23.7564 17.4464 24.7703 18.1915 25.6883 18.9244C29.3912 21.8809 31.519 24.6511 30.7638 25.867C30.2768 26.6519 28.6732 26.6485 26.4407 26.0048" stroke="#181A21" stroke-width="0.8" stroke-miterlimit="10" stroke-linecap="round" stroke-linejoin="round"/>
<path d="M24.8008 25.459C24.0334 25.1753 23.2181 24.8321 22.3664 24.437C21.289 23.9365 20.1548 23.3508 18.9937 22.6902C18.4283 22.368 17.8589 22.0296 17.2854 21.6743C16.7241 21.3251 16.1749 20.9711 15.6467 20.6145C14.5551 19.8795 13.5392 19.1351 12.6219 18.4009C8.91757 15.4443 6.78981 12.6742 7.54499 11.4583C7.97798 10.7619 9.28773 10.6863 11.1365 11.1273" stroke="#181A21" stroke-width="0.8" stroke-miterlimit="10" stroke-linecap="round" stroke-linejoin="round"/>
<path d="M23.4722 20.324C24.2557 19.8613 24.9967 19.3918 25.6884 18.9244C29.6163 16.2731 31.9576 13.6813 31.3023 12.4087C30.9268 11.6778 29.6197 11.4995 27.7331 11.794" stroke="#181A21" stroke-width="0.8" stroke-miterlimit="10" stroke-linecap="round" stroke-linejoin="round"/>
<path d="M14.8746 16.979C14.0775 17.4504 13.3237 17.928 12.6219 18.4008C8.69259 21.0521 6.35137 23.6439 7.00659 24.9172C7.46861 25.8142 9.33497 25.8784 11.9558 25.2556" stroke="#181A21" stroke-width="0.8" stroke-miterlimit="10" stroke-linecap="round" stroke-linejoin="round"/>
<path d="M13.6228 24.7983C14.3429 24.5754 15.1041 24.3133 15.8917 24.0107C16.8867 23.6304 17.927 23.1887 18.9935 22.6902C19.5812 22.4146 20.1763 22.1221 20.7755 21.8141C21.1801 21.6047 21.5786 21.3946 21.967 21.1811" stroke="#181A21" stroke-width="0.8" stroke-miterlimit="10" stroke-linecap="round" stroke-linejoin="round"/>
<path d="M16.3801 16.1232C16.757 15.9171 17.1407 15.7132 17.5318 15.5119C18.1316 15.2032 18.7274 14.9107 19.3151 14.6358C20.381 14.1373 21.4233 13.6948 22.4169 13.3145C23.7172 12.8174 24.9391 12.4249 26.0381 12.1473" stroke="#181A21" stroke-width="0.8" stroke-miterlimit="10" stroke-linecap="round" stroke-linejoin="round"/>
<path d="M22.4054 8.05255C22.4054 8.53147 22.017 8.91919 21.5381 8.91919C21.0599 8.91919 20.6721 8.53147 20.6721 8.05255C20.6721 7.57499 21.0599 7.18591 21.5381 7.18591C22.017 7.18591 22.4054 7.57499 22.4054 8.05255Z" stroke="#181A21" stroke-width="0.8" stroke-miterlimit="10" stroke-linecap="round" stroke-linejoin="round"/>
<path d="M16.4781 16.5223C16.4781 17.0012 16.0897 17.3896 15.6108 17.3896C15.1312 17.3896 14.7441 17.0012 14.7441 16.5223C14.7441 16.0441 15.1312 15.6557 15.6108 15.6557C16.0897 15.6557 16.4781 16.0441 16.4781 16.5223Z" stroke="#181A21" stroke-width="0.8" stroke-miterlimit="10" stroke-linecap="round" stroke-linejoin="round"/>
<path d="M12.807 11.4521C12.807 11.9304 12.4186 12.3195 11.9403 12.3195C11.4614 12.3195 11.073 11.9304 11.073 11.4521C11.073 10.9732 11.4614 10.5862 11.9403 10.5862C12.4186 10.5862 12.807 10.9732 12.807 11.4521Z" stroke="#181A21" stroke-width="0.8" stroke-miterlimit="10" stroke-linecap="round" stroke-linejoin="round"/>
<path d="M13.6735 25.0935C13.6735 25.5724 13.2851 25.9608 12.8068 25.9608C12.3279 25.9608 11.9402 25.5724 11.9402 25.0935C11.9402 24.6153 12.3279 24.2269 12.8068 24.2269C13.2851 24.2269 13.6735 24.6153 13.6735 25.0935Z" stroke="#181A21" stroke-width="0.8" stroke-miterlimit="10" stroke-linecap="round" stroke-linejoin="round"/>
<path d="M23.5646 20.7157C23.5646 21.1953 23.1775 21.5837 22.6986 21.5837C22.219 21.5837 21.8313 21.1953 21.8313 20.7157C21.8313 20.2382 22.219 19.8498 22.6986 19.8498C23.1775 19.8498 23.5646 20.2382 23.5646 20.7157Z" stroke="#181A21" stroke-width="0.8" stroke-miterlimit="10" stroke-linecap="round" stroke-linejoin="round"/>
<path d="M26.5091 25.6664C26.5091 26.1453 26.1207 26.5337 25.6425 26.5337C25.1635 26.5337 24.7751 26.1453 24.7751 25.6664C24.7751 25.1881 25.1635 24.7997 25.6425 24.7997C26.1207 24.7997 26.5091 25.1881 26.5091 25.6664Z" stroke="#181A21" stroke-width="0.8" stroke-miterlimit="10" stroke-linecap="round" stroke-linejoin="round"/>
<path d="M27.7608 12.0075C27.7608 12.4857 27.3717 12.8741 26.8935 12.8741C26.4152 12.8741 26.0269 12.4857 26.0269 12.0075C26.0269 11.5286 26.4152 11.1395 26.8935 11.1395C27.3717 11.1395 27.7608 11.5286 27.7608 12.0075Z" stroke="#181A21" stroke-width="0.8" stroke-miterlimit="10" stroke-linecap="round" stroke-linejoin="round"/>
</svg>
