<svg width="310" height="310" viewBox="0 0 310 310" fill="none" xmlns="http://www.w3.org/2000/svg">
<path d="M233.693 162.978C233.693 162.978 173.019 208.125 132.595 230.344C123.502 219.021 70.3358 118.67 63.6367 105.564C48.5397 76.0291 25.5486 27.8102 53.5617 13.1922C73.7303 2.66922 87.8198 5.75682 119.593 38.3176C154.045 73.6251 196.588 121.196 233.692 162.976L233.693 162.978Z" fill="#FCFCFC"/>
<path d="M291.836 152.297C288.123 143.778 280.767 136.423 273.628 130.448C249.517 110.269 203.591 86.0218 163.534 84.2021L163.17 84.5664C192.787 116.854 222.647 150.355 233.693 162.979C244.982 161.281 261.857 163.68 273.022 164.921C278.364 165.515 286.615 167.347 291.35 163.829C295.112 161.036 293.313 155.687 291.836 152.297Z" fill="#E4DDFD"/>
<path d="M80.7519 138.823C65.9432 173.295 71.0954 221.345 80.9952 250.858C83.9247 259.592 88.0958 269.125 95.0754 276.227C97.8437 279.043 102.359 283.024 106.728 281.082C112.191 278.654 113.779 270.889 115.467 266.152C119.034 256.144 125.248 237.387 131.854 229.13C128.213 224.882 101.144 175.722 81.237 138.458L80.7519 138.823Z" fill="#E4DDFD"/>
<path d="M234.079 162.243C204.442 128.43 152.08 70.4986 120.15 37.6572C90.0224 6.72083 75.006 1.07727 53.2037 12.5054C23.2794 28.1789 50.0712 80.6836 62.947 105.915C73.4638 126.621 122.686 218.026 130.701 229.171C133.216 232.667 135.169 237.22 139.825 237.217C142.628 237.217 145.45 235.484 148.059 233.881C158.412 227.518 233.887 179.648 237.553 173.753C240.149 169.74 237.271 165.881 234.079 162.242L234.079 162.243ZM64.3281 105.212C51.6785 80.4232 25.3564 28.8423 53.9229 13.8787C60.2113 10.5834 65.9509 8.53588 72.0316 8.53588C84.0596 8.53588 97.4252 16.5447 119.04 38.7376C150.861 71.4673 202.766 128.889 232.643 162.95C202.162 185.361 136.535 226.852 132.252 228.664C126.478 221.597 76.2801 128.741 64.3296 105.212L64.3281 105.212Z" fill="#181A21"/>
<path d="M159.487 140.118C142.185 140.118 128.157 154.146 128.157 171.449C128.157 188.751 142.185 202.779 159.487 202.779C176.79 202.779 190.817 188.751 190.817 171.449C190.817 154.146 176.79 140.118 159.487 140.118Z" fill="#FFF2F0"/>
<path d="M166.813 168.682C166.093 168.373 165.287 168.414 164.469 168.581C162.228 166.284 160.623 161.969 160.623 158.973C160.623 157.88 161.332 155.583 160.867 154.482C160.518 153.656 158.436 153.509 155.769 150.84C155.181 151.78 148.154 157.633 148 157.759C146.818 158.731 144.139 155.927 143.631 156.181C143.387 156.302 143.752 157.151 143.752 157.395C144.237 158.487 144.237 159.701 144.116 160.915C143.146 163.706 140.596 166.134 140.96 169.289C141.236 171.225 143.186 172.623 144.844 173.659C146.881 175.015 147.217 175.252 146.301 177.543C147.754 178.124 150.172 181.063 155.769 181.063C156.739 179.121 158.196 177.543 160.138 176.45C161.231 176.086 162.445 175.843 163.658 175.843C167.882 174.997 169.948 169.801 166.814 168.68L166.813 168.682Z" fill="#FFF2F0"/>
<path d="M154.795 183.128C159.99 183.128 164.123 188.127 158.923 195.994C156.612 199.49 155.178 200.616 153.022 202.1C144.04 200.279 136.394 194.559 132.024 186.547C133.905 185.701 137.088 183.749 144.237 181.55L144.358 181.55C145.086 180.215 146.019 178.473 146.625 177.018C148.13 178.991 151.548 180.821 155.767 180.821C155.583 181.128 155.217 181.866 154.797 183.128L154.795 183.128Z" fill="#FCFCFC"/>
<path d="M151.032 159.868C150.424 159.868 150.042 159.183 150.387 158.664C150.634 158.292 150.914 157.872 151.333 157.454C151.846 155.707 153.935 157.525 152.632 158.278C152.551 158.433 151.505 159.868 151.03 159.868L151.032 159.868Z" fill="#181A21"/>
<path d="M162.685 173.22C162 173.22 161.648 172.386 162.136 171.897C162.325 171.707 162.539 171.579 162.711 171.477C162.82 171.411 162.933 171.343 162.986 171.289C163.658 170.616 166.605 170.151 166.361 171.602C166.29 172.024 165.893 172.315 165.469 172.239C164.943 172.151 164.424 172.231 163.996 172.465C163.832 172.61 163.661 172.713 163.508 172.805C163.122 173.037 163.052 173.22 162.683 173.22L162.685 173.22Z" fill="#181A21"/>
<path d="M156.739 158.168C156.263 158.168 155.905 157.748 155.97 157.283C156.156 155.98 155.755 155.14 155.115 154.409C154.448 153.997 154.757 152.966 155.53 152.966C156.29 152.966 157.869 154.949 157.505 157.502C157.451 157.888 157.119 158.167 156.739 158.167L156.739 158.168Z" fill="#181A21"/>
<path d="M177.776 164.204C178.506 162.894 179.225 161.071 179.582 159.881C180.642 155.49 177.094 150.967 175.522 149.228C172.537 145.892 167.857 142.152 163.426 142.787C162.167 142.967 161.05 143.888 160.778 144.423C160.707 144.567 160.58 144.978 160.493 145.201C160.087 144.933 159.68 144.523 159.267 144.319C155.862 142.561 150.969 146.383 154.797 150.914C152.391 152.679 149.631 155.487 147.614 157.168C147.293 157.438 145.695 156.296 145.389 156.116C144.891 155.622 143.871 154.96 143.201 155.631C142.282 156.548 143.735 157.832 143.493 160.687C142.585 163.672 138.389 167.705 141.228 171.535C137.426 173.848 134.808 179.168 136.89 183.638C135.217 184.383 133.641 185.127 131.992 185.952C131.262 186.316 131.524 187.42 132.339 187.42C132.767 187.42 132.764 187.153 138.232 184.726C139.128 184.501 141.665 183.191 144.331 182.562C144.655 182.584 144.919 182.371 145.035 182.159C145.711 180.921 146.303 179.732 146.801 178.61C148.817 180.319 151.646 181.443 154.586 181.714C154.478 181.978 154.394 182.201 154.335 182.356C152.957 182.393 151.499 182.602 149.994 182.979C146.489 183.855 145.258 184.98 145.413 184.887C145.046 185.107 144.928 185.583 145.148 185.95C145.368 186.318 145.844 186.437 146.212 186.215C147.326 185.546 147.537 185.191 150.37 184.481C153.545 183.689 157.131 183.336 159.3 185.806C163.018 190.042 157.72 197.8 153.03 200.928C152.674 201.165 152.577 201.647 152.815 202.002C153.052 202.359 153.532 202.455 153.889 202.218C155.88 200.889 157.657 199.128 159.18 196.977C159.766 197.665 163.361 198.226 166.407 196.19C169.62 194.041 170.413 190.067 167.98 187.615C167.871 187.507 167.707 187.341 167.741 187.293C171.094 183.7 176.1 181.897 178.78 177.301C182.224 170.942 180.095 165.046 177.774 164.199L177.776 164.204ZM163.655 175.068C162.445 175.068 161.178 175.285 159.755 175.775C157.861 176.839 156.37 178.348 155.336 180.217C152.331 180.073 149.299 178.875 147.411 177.075C148.36 174.091 146.672 174.318 142.84 171.047C141.173 169.378 141.786 167.352 142.913 165.28C143.716 165.867 145.371 166.255 147.214 165.793C147.63 165.689 147.882 165.269 147.779 164.853C147.675 164.438 147.253 164.187 146.839 164.291C145.218 164.694 144.006 164.257 143.69 163.909C144.192 163.023 144.686 162.093 145.007 160.992C145.127 159.802 145.027 158.611 144.722 157.523C145.694 158.196 147.436 159.366 148.617 158.356C150.669 156.645 153.617 153.657 155.922 152.019C156.739 152.724 157.579 153.408 158.458 153.888C160.118 155.132 160.766 153.839 160.158 157.517C160.062 158.103 159.962 158.658 159.971 159.126C160.025 161.822 160.72 165.501 163.158 168.066C162.69 168.311 162.277 168.645 161.953 169.06C161.691 169.398 161.752 169.885 162.09 170.148C162.428 170.41 162.914 170.35 163.178 170.012C163.768 169.251 165.103 168.795 166.554 169.417C168.961 170.275 166.738 174.425 163.658 175.072L163.655 175.068Z" fill="#181A21"/>
<path d="M120.915 84.3092C103.613 84.3092 89.5853 98.3367 89.5853 115.639C89.5853 132.942 103.613 146.97 120.915 146.97C138.218 146.97 152.246 132.942 152.246 115.639C152.246 98.3367 138.218 84.3092 120.915 84.3092Z" fill="#FFF2F0"/>
<path d="M128.334 112.846C127.495 112.66 126.123 112.781 125.035 113.068C122.749 112.029 119.719 110.053 121.171 106.656C121.641 105.557 122.506 104.713 123.478 104.106C123.963 103.862 124.448 103.621 124.935 103.256C124.57 102.892 123.113 102.892 122.628 102.649C119.767 101.754 117.281 99.0683 117.651 96.0939L116.681 96.0939C114.254 97.6718 111.704 100.22 109.52 102.041C108.32 102.898 105.705 100.186 105.15 100.463C104.907 100.586 105.271 101.434 105.271 101.677C105.756 102.77 105.756 103.983 105.636 105.197C104.138 109.391 102.278 110.338 102.601 113.572C102.965 115.636 104.907 116.85 106.485 117.941C107.213 118.305 108.306 118.911 108.427 119.762C108.576 121.095 105.803 126.076 105.522 126.542C109.557 125.921 113.725 126.837 115.963 128.215C116.952 125.483 119.277 121.971 121.656 120.612C122.749 120.248 123.963 120.004 125.176 120.004C129.391 119.161 131.469 113.964 128.332 112.843L128.334 112.846Z" fill="#FCFCFC"/>
<path d="M142.657 105.443C142.293 105.2 140.108 105.2 139.987 104.958C139.622 104.351 140.472 102.287 140.472 101.559C140.472 94.708 133.39 90.7772 128.09 93.4261C127.97 93.547 127.241 94.0337 127.12 93.7904C126.756 93.547 126.748 91.8513 126.513 91.3631C124.274 86.7069 119.167 85.5242 115.467 88.8133C115.103 89.2985 114.374 91.1197 113.768 91.3631C113.162 91.6064 111.949 90.8733 111.341 90.7555C107.686 90.0471 103.693 92.7953 103.693 96.8253C103.693 97.3104 104.179 98.2823 104.058 98.6465C104.058 98.8899 103.087 98.8899 102.965 98.8899C96.9184 99.561 96.8192 108.832 101.995 109.571L103.329 110.056C104.179 108.599 105.028 107.021 105.636 105.322C105.756 104.109 105.756 102.895 105.271 101.802C105.271 101.559 104.907 100.71 105.15 100.589C105.747 100.29 108.312 103.186 109.52 102.167C111.691 100.331 114.254 97.7971 116.681 96.2192L117.651 96.2192C117.302 99.0108 119.886 101.86 122.628 102.774C123.113 103.018 124.57 103.018 124.935 103.382C124.449 103.746 123.964 103.989 123.478 104.231C122.507 104.839 121.65 105.685 121.171 106.781C119.559 110.473 124.78 113.093 124.935 113.093C126.027 112.607 127.12 112.607 128.211 112.849C131.353 113.971 129.262 119.169 125.056 120.01C123.842 120.01 122.628 120.254 121.535 120.618C118.986 122.075 117.166 124.381 116.317 127.173C118.338 129.271 122.779 132.587 126.513 128.751C127.351 127.889 127.605 126.565 127.241 125.474C126.909 124.48 126.74 124.367 126.998 124.625C127.241 124.868 127.605 124.989 127.968 125.11C128.817 125.474 129.541 125.736 130.395 125.959C132.93 126.622 136.916 126.187 138.164 123.288C139.109 121.092 137.435 120.012 136.465 118.434C136.344 118.313 136.829 118.555 136.95 118.555L137.921 118.555C138.77 118.434 139.622 118.319 140.47 118.07C143.27 117.243 145.325 115.157 146.297 112.486C146.904 109.816 145.447 106.781 142.656 105.446L142.657 105.443Z" fill="#ADD2FF"/>
<path d="M116.802 106.096C116.439 106.096 116.117 105.842 116.042 105.473C115.842 104.472 115.148 103.655 114.274 103.393C114.013 103.272 113.654 103.148 113.435 103.106C113.249 103.27 112.987 103.345 112.73 103.28C111.55 102.985 112.104 100.592 114.844 101.958C116.135 102.333 117.251 103.613 117.563 105.168C117.659 105.648 117.292 106.094 116.802 106.094L116.802 106.096Z" fill="#181A21"/>
<path d="M124.085 117.628C123.397 117.628 123.05 116.793 123.538 116.305C124.44 115.404 125.689 115.108 126.999 115.108C127.427 115.108 127.774 115.455 127.774 115.883C127.774 116.311 127.427 116.658 126.999 116.658C126.353 116.658 125.722 116.768 125.223 116.966C124.696 117.244 124.563 117.628 124.087 117.628L124.085 117.628Z" fill="#181A21"/>
<path d="M142.902 104.709C142.574 104.599 141.414 104.507 140.724 104.391C140.817 103.6 141.247 102.199 141.247 101.557C141.241 93.9113 133.078 89.7573 127.577 92.8046C127.466 92.1365 127.415 91.4313 127.226 91.0561C124.708 85.1786 117.735 85.0918 114.92 88.2646C114.35 88.835 113.889 90.1277 113.463 90.6377C113.063 90.6346 112.08 90.1091 111.433 89.9851C106.945 89.455 102.799 92.228 102.799 96.8237C102.799 97.1554 102.909 97.5134 103.025 97.8917C103.139 98.2621 103.115 98.0343 102.678 98.1304C101.282 98.4419 100.28 98.9054 99.4371 99.6261C96.0194 102.556 96.844 109.492 101.745 110.332L102.421 110.448C99.8742 116.915 107.39 118.682 107.795 120.044C107.851 120.739 106.221 124.178 105.219 125.885C101.215 126.568 97.3865 128.264 94.1175 130.806C93.5704 131.232 93.8184 132.105 94.5019 132.187C100.028 141.056 109.672 146.566 120.167 146.824C120.285 147.63 121.407 147.727 121.667 146.962C123.324 142.102 123.521 135.18 119.285 130.294C120.551 130.885 122.101 131.19 123.352 131.19C125.998 131.19 128.514 128.999 128.148 126.207C129.955 126.922 131.152 127.094 132.458 127.094C134.889 127.094 137.688 126.302 138.756 123.845C139.602 121.941 138.778 120.625 137.967 119.568C138.869 119.541 139.729 119.294 140.549 119.06C143.51 118.215 145.97 115.946 146.938 112.885C147.624 109.596 146.007 106.251 142.905 104.71L142.902 104.709ZM115.506 127.295C112.89 126.002 110.016 125.44 107.119 125.646C107.94 124.105 109.58 120.824 109.294 119.675C108.962 118.511 107.742 117.977 107.048 117.429C104.871 115.941 103.286 115.025 103.486 112.609C104.594 112.361 105.798 112.113 106.851 111.64C107.189 111.527 108.213 111.184 108.463 110.183C108.672 108.928 107.161 108.06 106.786 107.681C106.676 107.573 106.477 107.375 106.235 107.207C106.149 107.072 106.026 106.959 105.888 106.88C106.522 105.522 106.51 105.578 106.528 105.398C106.649 104.206 106.549 103.016 106.243 101.929C107.213 102.602 108.956 103.774 110.137 102.76C112.223 101.021 114.59 98.6713 116.853 97.1166C116.899 98.0311 117.175 98.8852 117.465 99.6354C118.567 101.564 120.319 102.983 122.283 103.586C122.464 103.678 122.679 103.737 122.921 103.785C118.928 106.403 119.176 110.932 123.554 113.1C122.673 113.874 123.476 115.049 124.31 114.632C124.498 114.537 124.631 114.377 124.696 114.193C125.803 113.616 126.63 113.413 127.952 113.697C130.35 114.554 128.148 118.702 125.057 119.354C123.862 119.354 122.56 119.578 121.153 120.063C118.466 121.599 116.507 124.011 115.506 127.294L115.506 127.295ZM103.889 110.932C104.095 110.433 104.259 110.262 105.186 108.356C105.24 108.404 106.917 109.807 106.95 109.856C106.815 110.092 105.113 110.653 103.887 110.932L103.889 110.932ZM145.438 112.491C144.649 114.974 142.608 116.856 140.137 117.564C139.319 117.798 138.545 118.014 137.801 118.02C136.797 118.029 137.012 118.054 136.817 117.981C135.735 117.581 135.329 118.502 135.69 119.088C136.724 120.762 138.094 121.509 137.335 123.22C136.318 125.559 132.689 125.908 130.479 125.33C128.245 124.744 127.779 124.284 127.311 124.079C126.584 123.352 125.472 124.432 126.232 125.193C126.323 125.404 126.413 125.682 126.506 125.959C126.793 126.818 126.57 127.838 125.95 128.458C123.608 130.931 119.954 129.082 119.135 128.434C117.42 127.083 117.817 127.397 117.281 126.86C118.149 124.53 119.731 122.659 121.782 121.47C122.895 121.1 124.026 120.904 125.209 120.889C129.089 120.112 131.214 116.261 130.271 113.916C129.557 112.136 127.427 111.741 125.567 112.183C123.178 111.437 120.847 109.535 121.881 107.213C122.264 106.352 122.958 105.589 123.834 105.039C124.339 104.786 124.862 104.524 125.4 104.12C125.776 103.837 125.817 103.285 125.482 102.952C124.862 102.332 123.488 102.427 122.859 102.154C121.154 101.621 119.716 100.454 118.862 98.9798C118.239 97.3197 118.05 95.7108 119.396 93.9562C119.948 93.9237 120.292 93.3347 120.043 92.8356C119.917 92.5845 119.559 92.3396 119.279 92.3256C118.507 92.29 117.49 93.6524 117.101 95.0505C114.46 96.647 111.409 99.6802 109.135 101.574C108.819 101.849 107.196 100.689 106.911 100.523C106.301 99.908 105.336 99.4246 104.723 100.037C103.811 100.947 105.247 102.176 104.997 105.115C104.414 106.376 103.814 107.671 103.157 108.945L102.004 108.804C98.4653 108.202 97.9817 102.855 100.435 100.81C101.077 100.262 101.827 99.9142 102.934 99.66C105.817 99.6228 104.357 97.4592 104.348 96.8222C104.293 93.0634 107.888 91.1337 111.189 91.5134C111.735 91.6219 113.113 92.462 113.958 92.1133C114.951 91.8653 115.487 89.9262 116.048 89.3264C117.69 87.5733 120.427 87.3377 122.67 88.3018C124.065 88.9017 125.135 90.0998 125.82 91.701C126.049 92.2388 125.88 93.8942 126.776 94.4801C127.735 94.9606 128.106 93.7082 131.268 93.3486C135.606 93.22 139.698 96.5321 139.698 101.556C139.698 102.317 138.88 104.276 139.294 105.3C139.545 105.803 140.084 105.89 141.611 106.069C141.968 106.111 142.287 106.141 142.312 106.135C144.646 107.302 145.953 110.006 145.44 112.489L145.438 112.491Z" fill="#181A21"/>
<path d="M85.5941 26.8958C68.2914 26.8958 54.2639 40.9233 54.2639 58.2259C54.2639 75.5286 68.2914 89.556 85.5941 89.556C102.897 89.556 116.924 75.5286 116.924 58.2259C116.924 40.9233 102.897 26.8958 85.5941 26.8958Z" fill="#FFF2F0"/>
<path d="M105.15 48.0299C103.816 41.4749 99.3239 38.9252 94.226 35.5276C89.4923 32.3718 84.8795 29.4578 79.4173 32.8569C77.3542 34.3139 75.8972 36.6203 75.533 39.1685C75.4121 39.7761 76.0181 42.6886 75.6539 43.1737L75.7748 43.2946C77.596 41.7167 79.4157 40.1388 81.3579 38.8043C81.7919 38.9484 81.7888 38.9252 81.5997 38.9252C81.1145 40.7464 80.386 43.7813 81.3579 45.4801C82.0864 46.8147 83.5434 45.4801 84.1494 44.7516C84.2703 44.6292 84.8779 43.7813 85.1197 44.0231C85.3631 44.2665 85.2406 44.8725 85.2406 45.2368C84.7803 48.9118 87.0293 53.1728 90.0968 55.4327C90.9462 55.1893 91.918 55.1893 92.7674 55.4327C95.8488 56.3131 93.9733 61.721 89.6116 62.5937C88.398 62.5937 87.1843 62.837 86.0916 63.2013C83.6643 64.5885 81.4555 68.1892 80.5178 70.9404C85.3848 74.1489 86.803 79.3399 86.4558 84.2007L86.941 84.2007C88.398 83.4722 89.9759 82.987 91.6747 82.7452C93.6168 82.7452 95.3156 86.5086 97.2578 84.2007C100.414 80.4373 97.2578 74.369 97.7429 70.1205C98.7597 63.2602 107.24 58.4939 105.147 48.0299L105.15 48.0299Z" fill="#FFE7AE"/>
<path d="M92.8899 55.4326C92.0405 55.1893 91.0687 55.1893 90.2193 55.4326C87.792 53.6114 86.0932 50.9423 85.4856 48.0283C85.2128 45.8521 85.5491 44.33 85.2438 44.0231C85.0004 43.7813 84.3944 44.6307 84.2719 44.7516C83.6659 45.4801 82.1841 46.827 81.4804 45.4801C80.4062 43.4248 81.7222 39.5777 81.7222 38.8042L81.3579 38.6833C76.3111 42.1522 76.3375 42.9334 74.0745 44.6307C73.2251 45.3592 71.6472 44.0231 70.7978 43.5379C70.6769 43.5379 69.9484 42.9303 69.705 43.0528C69.4617 43.1752 69.8259 44.0231 69.8259 44.2664C70.3111 45.3592 70.3111 46.5728 70.1902 47.7865C69.2199 50.578 66.6701 53.0054 67.0344 56.1611C67.3986 58.2257 69.3408 59.4394 70.9187 60.5306C71.6472 61.0157 72.7399 61.6233 72.8608 62.4727C72.9817 63.5655 70.7978 67.814 70.3111 68.6634L70.432 69.1486C75.6508 68.4681 78.3106 69.8352 80.2884 71.1062C81.1378 68.3147 83.6628 64.6583 86.2125 63.2013C87.3053 62.837 88.5189 62.5936 89.7326 62.5936C93.947 61.7504 96.0256 56.5533 92.8884 55.4326L92.8899 55.4326Z" fill="#FCFCFC"/>
<path d="M85.4855 89.4212L85.4855 89.5419C74.4402 89.5419 64.2443 83.7155 58.6597 74.2481C59.8749 73.6405 63.6445 70.1144 70.4335 69.2712C81.7965 67.8622 89.2613 76.2028 85.4855 89.4212Z" fill="#ADD2FF"/>
<path d="M106.031 47.9957C104.67 41.3121 100.355 38.7097 94.7762 35.0036C90.2549 31.9982 85.1399 28.5789 79.0918 32.3438C76.8102 33.9558 75.2773 36.4467 74.8944 39.1375C74.7596 39.8117 75.1904 42.0468 75.1129 42.8373C74.6293 43.2388 74.3937 43.479 73.5722 44.1641C73.2622 44.423 71.7975 43.3736 71.348 43.1132C70.7404 42.501 69.7716 42.0127 69.1594 42.6265C68.2449 43.5395 69.6926 44.8415 69.4508 47.6826C68.6153 50.4261 65.861 52.8612 66.2671 56.3735C66.6856 59.9338 71.7851 61.49 72.106 62.7533C72.185 63.7391 69.6709 68.3255 69.6027 68.4805C65.7153 69.0742 61.9504 70.7218 58.6721 73.2716C58.3342 73.5335 58.2737 74.0202 58.5357 74.3597C58.7976 74.696 59.2859 74.758 59.6238 74.4945C62.8881 71.9556 66.6577 70.3731 70.5373 69.9174C80.8479 68.5751 88.4879 76.1003 84.7431 89.2071C84.6021 89.7 84.9725 90.1945 85.4886 90.1945C85.8265 90.1945 86.1365 89.9728 86.2326 89.6318C86.7085 87.9656 87.017 86.4714 87.1673 85.0888C87.5595 85.0392 88.9808 84.0565 91.8003 83.6395C93.1798 83.6395 95.5605 87.6897 97.977 84.8191C100.226 82.1391 99.6076 78.461 99.0605 75.2184C98.2545 70.4366 98.101 69.2834 101.86 63.4306C104.943 58.6349 107.252 54.0934 106.032 47.9957L106.031 47.9957ZM71.4798 68.2651C72.3152 66.6918 73.89 63.5143 73.6141 62.4061C73.3738 61.4451 72.8391 61.0235 70.9155 59.7106C67.9426 57.6817 66.5988 56.3843 68.9548 52.1187C69.2911 52.3838 69.7298 52.5419 70.1995 52.5651C71.1946 52.8302 72.2749 52.8007 73.2932 52.545C73.7086 52.4411 73.9613 52.0211 73.8575 51.6057C73.7536 51.1903 73.332 50.9407 72.9181 51.043C72.0765 51.2523 71.2488 51.2554 70.528 51.0492C70.3312 50.9934 70.1018 51.0167 69.9639 50.9361C69.8709 50.7935 69.8522 50.8105 69.7732 50.6819C70.232 49.8619 70.6707 48.997 70.9652 47.988C71.0845 46.796 70.9853 45.6056 70.6799 44.5191C73.5273 46.4891 74.1504 45.756 75.4431 44.6059C75.6338 44.4369 79.2949 41.2904 80.6945 40.2426C80.3272 42.1336 79.9893 44.4183 80.803 45.9761C81.1874 46.7108 81.7562 46.903 82.153 46.9417C83.1481 47.0425 84.0921 46.221 84.5912 45.6862C84.5912 46.5573 84.6067 47.3494 84.7292 48.3119C85.2996 51.0492 86.6511 53.3665 88.7529 55.2187C88.4398 55.4016 88.1438 55.6388 88.0043 55.8635C87.8633 56.0914 87.8292 56.5145 87.9501 56.7548C88.2585 57.3717 89.1606 57.3035 89.3776 56.6556C89.9743 56.2495 91.4593 55.8015 92.7519 56.1673C95.1498 57.0229 92.9473 61.1738 89.8566 61.8233C88.6631 61.8233 87.361 62.0465 85.9521 62.5332C83.345 64.0243 81.1021 67.2514 80.0745 69.874C78.6981 68.9672 75.2773 67.9969 71.4813 68.2682L71.4798 68.2651ZM97.0966 70.1545C96.596 74.5271 99.6448 80.4186 96.7882 83.824C96.1805 84.5447 95.852 84.4827 94.4523 83.3791C93.6912 82.7793 92.8279 82.0988 91.7073 82.0988C91.2128 82.0988 89.0738 82.5545 87.2773 83.3636C87.3967 77.934 85.2902 73.4219 81.4121 70.711C82.2848 68.2837 84.4037 65.1976 86.5814 63.9359C87.6959 63.5655 88.8274 63.3686 90.0084 63.3547C94.8987 62.3782 97.3307 56.1487 93.2262 54.6886C92.3815 54.4468 91.4314 54.4143 90.4704 54.6204C88.226 52.9061 86.8046 50.6788 86.2559 48.0546C85.9273 45.4274 86.5023 44.3083 85.7909 43.5968C85.6359 43.4434 85.3011 43.3225 85.0934 43.3287C84.757 43.3442 84.4749 43.5271 84.2099 43.7813C84.0549 43.9301 82.5126 45.8986 82.1747 45.2553C81.485 43.9487 82.0414 41.3679 82.3886 39.6691C82.4196 39.5141 82.7281 37.4712 83.3496 36.6094C84.2052 36.2669 83.8534 34.999 82.9172 35.1059C82.6583 35.1385 82.3359 35.2671 81.8616 36.0716C81.5656 36.752 81.2959 37.3333 81.1192 38.0323C79.549 39.0941 78.0487 40.3232 76.6056 41.557C76.5296 40.7572 76.3824 39.6846 76.4212 39.3994C76.7513 37.0868 78.0502 34.9757 79.9474 33.635C85.3166 30.2978 89.7884 33.5637 94.9576 36.983C99.6339 40.0768 103.331 42.5134 104.51 48.3026C106.528 58.3947 98.1475 63.0416 97.095 70.1545L97.0966 70.1545Z" fill="#181A21"/>
<path d="M77.534 44.082C77.3852 44.2324 77.3108 44.3781 77.2922 44.4463C76.8722 44.8663 76.5932 45.2864 76.3452 45.6568C75.9995 46.1761 76.3793 46.8612 76.99 46.8612C77.6503 46.8612 77.6425 46.2877 78.3881 45.5421C78.5167 45.4135 78.5896 45.2864 78.619 45.212C79.6715 44.4835 78.4392 43.1768 77.5356 44.082L77.534 44.082Z" fill="#181A21"/>
<path d="M88.7639 60.2127C89.249 60.2127 89.3358 59.8484 89.9016 59.5508C90.4007 59.3524 91.0315 59.2424 91.6779 59.2424C92.1057 59.2424 92.4529 58.8952 92.4529 58.4674C92.4529 58.0396 92.1057 57.6924 91.6779 57.6924C90.3852 57.6924 89.1328 57.9776 88.2167 58.889C87.7285 59.3757 88.0772 60.2127 88.7639 60.2127Z" fill="#181A21"/>
<path d="M34.7479 193.734C34.3992 193.734 34.083 193.499 33.9962 193.145L15.6674 118.739C15.5651 118.324 15.8193 117.903 16.2347 117.801C16.6501 117.696 17.0702 117.953 17.1725 118.368L35.5012 192.775C35.6221 193.263 35.2517 193.736 34.7479 193.736L34.7479 193.734Z" fill="#181A21"/>
<path d="M54.1694 200.531C53.8423 200.531 53.5385 200.322 53.4316 199.995L30.0049 127.53C29.8731 127.123 30.0963 126.687 30.504 126.556C30.9116 126.424 31.3472 126.649 31.4805 127.055L54.9072 199.519C55.0699 200.021 54.6917 200.533 54.1694 200.533L54.1694 200.531Z" fill="#181A21"/>
<path d="M227.259 64.827C226.869 64.827 227.115 64.9401 169.522 24.3875C169.172 24.141 169.088 23.6574 169.334 23.3071C169.581 22.9568 170.064 22.8716 170.415 23.118L227.707 63.418C228.324 63.8536 228.016 64.827 227.261 64.827L227.259 64.827Z" fill="#181A21"/>
<path d="M226.531 85.0963C226.091 85.0963 226.396 85.2482 172.025 40.6159C171.695 40.3447 171.645 39.8565 171.918 39.5248C172.19 39.1946 172.678 39.145 173.009 39.4162L227.024 83.7199C227.588 84.1834 227.253 85.0947 226.532 85.0947L226.531 85.0963Z" fill="#181A21"/>
<path d="M270.836 246.368C268.773 244.061 262.648 240.775 262.218 237.627C261.902 235.315 266.952 232.286 268.409 230.466C272.293 225.368 272.293 219.178 268.045 214.444C256.358 201.553 226.043 201.757 217.282 217.665C211.755 210.836 204.733 202.577 201.77 198.665L190.845 206.798C194.486 211.896 210.388 233.988 214.151 239.328C213.058 239.692 211.958 240.035 210.873 240.42C206.348 242.029 202.983 237.629 199.22 235.687C192.544 232.289 183.077 232.774 177.371 237.993C169.482 245.156 173.208 255.982 179.313 262.392C180.97 264.132 182.713 265.668 184.655 267.125C185.14 267.49 186.961 268.339 186.839 269.068C186.597 270.038 180.406 272.709 179.434 273.437C158.539 288.218 195.151 317.745 223.132 292.13C226.531 289.095 228.837 284.969 232.722 282.298C237.335 279.263 243.889 282.421 248.865 282.784C259.546 283.633 270.593 280.113 275.57 271.859C280.668 263.362 277.269 253.409 270.836 246.369L270.836 246.368Z" fill="#FCFCFC"/>
<path d="M219.857 235.854C219.599 235.854 219.35 235.727 219.201 235.495C215.21 229.205 206.139 216.628 201.86 210.391C201.618 210.037 201.708 209.555 202.06 209.314C202.413 209.07 202.895 209.16 203.137 209.513C207.412 215.743 216.49 228.327 220.509 234.662C220.838 235.181 220.461 235.853 219.855 235.853L219.857 235.854Z" fill="#181A21"/>
<path d="M271.399 245.833C269.275 243.592 263.297 240.112 262.989 237.545C262.807 235.822 267.629 232.68 269.024 230.934C273.408 225.452 273.056 218.724 268.612 213.917C256.417 200.727 226.159 200.02 217.104 216.307C215.6 214.48 204.462 200.985 202.256 198.185C202.001 197.862 201.526 197.789 201.185 198.043L190.261 206.176C189.922 206.429 189.847 206.905 190.094 207.247C191.157 208.735 209.613 234.323 212.834 238.94C212.26 239.128 211.375 239.404 210.599 239.695C206.581 241.219 203.383 236.962 199.572 234.995C192.242 231.212 182.472 232.317 176.85 237.418C169.003 244.54 172.022 255.452 178.744 262.917C182.536 267.127 185.161 268.195 185.978 269.004C184.896 270.06 179.905 272.161 178.979 272.808C173.691 276.489 171.7 281.224 172.85 286.592C174.511 294.069 182.226 299.186 188.897 301.481C200.978 305.64 214.41 301.165 223.646 292.707C225.107 291.402 226.376 289.896 227.605 288.439C233.54 281.396 235.106 280.7 244.21 282.718C245.822 283.075 247.344 283.413 248.801 283.555C260.826 284.51 271.334 280.186 276.23 272.259C281.906 262.888 277.459 252.47 271.396 245.835L271.399 245.833ZM248.941 282.008C247.591 281.877 246.114 281.55 244.548 281.203C234.758 279.036 232.649 280.052 226.422 287.438C225.175 288.92 223.995 290.318 222.609 291.555C215.376 298.178 202.334 304.367 189.398 300.012C183.129 297.853 175.888 293.105 174.366 286.259C173.357 281.551 175.148 277.354 179.864 274.077C181.006 273.282 187.42 270.861 187.598 269.215C187.838 268.017 186.043 267.163 185.093 266.481C175.345 259.495 169.077 246.563 177.894 238.56C183.063 233.869 192.081 232.872 198.863 236.37C202.574 238.285 206.206 243.012 211.144 241.141C219.12 238.147 229.149 236.972 234.155 243.903C234.407 244.251 234.892 244.328 235.237 244.077C235.585 243.826 235.662 243.342 235.412 242.995C230.045 235.564 220.139 236.869 214.374 238.455C211.479 234.255 192.949 208.565 191.797 206.959L201.508 199.73C203.782 202.588 223.171 226.176 224.345 227.664C224.611 227.999 225.097 228.058 225.434 227.793C225.77 227.528 225.827 227.039 225.562 226.703C224.383 225.21 218.169 217.6 218.169 217.6C226.267 201.781 255.826 202.363 267.482 214.971C271.39 219.196 271.675 225.133 267.804 229.977C267.378 230.51 266.55 231.215 265.676 231.961C260.082 236.728 259.428 238.312 267.377 244.466C268.527 245.357 269.615 246.199 270.264 246.886C286.564 264.721 272.74 283.907 248.941 282.005L248.941 282.008Z" fill="#181A21"/>
</svg>
