<svg width="428" height="247" viewBox="0 0 428 247" fill="none" xmlns="http://www.w3.org/2000/svg">
<g clip-path="url(#clip0_712_28611)">
<rect y="0.552979" width="428" height="245.894" fill="#FCFCFC"/>
<rect x="0.257395" y="-0.218863" width="30.351" height="30.351" stroke="#181A21" stroke-opacity="0.2" stroke-width="0.514423"/>
<rect x="31.1229" y="-0.218863" width="30.351" height="30.351" stroke="#181A21" stroke-opacity="0.2" stroke-width="0.514423"/>
<rect x="61.9881" y="-0.218863" width="30.351" height="30.351" stroke="#181A21" stroke-opacity="0.2" stroke-width="0.514423"/>
<rect x="92.8533" y="-0.218863" width="30.351" height="30.351" stroke="#181A21" stroke-opacity="0.2" stroke-width="0.514423"/>
<rect x="123.719" y="-0.218863" width="30.351" height="30.351" stroke="#181A21" stroke-opacity="0.2" stroke-width="0.514423"/>
<rect x="154.584" y="-0.218863" width="30.351" height="30.351" stroke="#181A21" stroke-opacity="0.2" stroke-width="0.514423"/>
<rect x="185.45" y="-0.218863" width="30.351" height="30.351" stroke="#181A21" stroke-opacity="0.2" stroke-width="0.514423"/>
<rect x="216.315" y="-0.218863" width="30.351" height="30.351" stroke="#181A21" stroke-opacity="0.2" stroke-width="0.514423"/>
<rect x="247.18" y="-0.218863" width="30.351" height="30.351" stroke="#181A21" stroke-opacity="0.2" stroke-width="0.514423"/>
<rect x="278.046" y="-0.218863" width="30.351" height="30.351" stroke="#181A21" stroke-opacity="0.2" stroke-width="0.514423"/>
<rect x="308.911" y="-0.218863" width="30.351" height="30.351" stroke="#181A21" stroke-opacity="0.2" stroke-width="0.514423"/>
<rect x="339.777" y="-0.218863" width="30.351" height="30.351" stroke="#181A21" stroke-opacity="0.2" stroke-width="0.514423"/>
<rect x="370.642" y="-0.218863" width="30.351" height="30.351" stroke="#181A21" stroke-opacity="0.2" stroke-width="0.514423"/>
<rect x="401.507" y="-0.218863" width="30.351" height="30.351" stroke="#181A21" stroke-opacity="0.2" stroke-width="0.514423"/>
<rect x="0.257395" y="30.6466" width="30.351" height="30.351" stroke="#181A21" stroke-opacity="0.2" stroke-width="0.514423"/>
<rect x="31.1229" y="30.6466" width="30.351" height="30.351" stroke="#181A21" stroke-opacity="0.2" stroke-width="0.514423"/>
<rect x="61.9881" y="30.6466" width="30.351" height="30.351" stroke="#181A21" stroke-opacity="0.2" stroke-width="0.514423"/>
<rect x="92.8533" y="30.6466" width="30.351" height="30.351" stroke="#181A21" stroke-opacity="0.2" stroke-width="0.514423"/>
<rect x="123.719" y="30.6466" width="30.351" height="30.351" stroke="#181A21" stroke-opacity="0.2" stroke-width="0.514423"/>
<rect x="154.584" y="30.6466" width="30.351" height="30.351" stroke="#181A21" stroke-opacity="0.2" stroke-width="0.514423"/>
<rect x="185.45" y="30.6466" width="30.351" height="30.351" stroke="#181A21" stroke-opacity="0.2" stroke-width="0.514423"/>
<rect x="216.315" y="30.6466" width="30.351" height="30.351" stroke="#181A21" stroke-opacity="0.2" stroke-width="0.514423"/>
<rect x="247.18" y="30.6466" width="30.351" height="30.351" stroke="#181A21" stroke-opacity="0.2" stroke-width="0.514423"/>
<rect x="278.046" y="30.6466" width="30.351" height="30.351" stroke="#181A21" stroke-opacity="0.2" stroke-width="0.514423"/>
<rect x="308.911" y="30.6466" width="30.351" height="30.351" stroke="#181A21" stroke-opacity="0.2" stroke-width="0.514423"/>
<rect x="339.777" y="30.6466" width="30.351" height="30.351" stroke="#181A21" stroke-opacity="0.2" stroke-width="0.514423"/>
<rect x="370.642" y="30.6466" width="30.351" height="30.351" stroke="#181A21" stroke-opacity="0.2" stroke-width="0.514423"/>
<rect x="401.507" y="30.6466" width="30.351" height="30.351" stroke="#181A21" stroke-opacity="0.2" stroke-width="0.514423"/>
<rect x="0.257395" y="61.5119" width="30.351" height="30.351" stroke="#181A21" stroke-opacity="0.2" stroke-width="0.514423"/>
<rect x="31.1229" y="61.5119" width="30.351" height="30.351" stroke="#181A21" stroke-opacity="0.2" stroke-width="0.514423"/>
<rect x="61.9881" y="61.5119" width="30.351" height="30.351" stroke="#181A21" stroke-opacity="0.2" stroke-width="0.514423"/>
<rect x="92.8533" y="61.5119" width="30.351" height="30.351" stroke="#181A21" stroke-opacity="0.2" stroke-width="0.514423"/>
<rect x="123.719" y="61.5119" width="30.351" height="30.351" stroke="#181A21" stroke-opacity="0.2" stroke-width="0.514423"/>
<rect x="154.584" y="61.5119" width="30.351" height="30.351" stroke="#181A21" stroke-opacity="0.2" stroke-width="0.514423"/>
<rect x="185.45" y="61.5119" width="30.351" height="30.351" stroke="#181A21" stroke-opacity="0.2" stroke-width="0.514423"/>
<rect x="216.315" y="61.5119" width="30.351" height="30.351" stroke="#181A21" stroke-opacity="0.2" stroke-width="0.514423"/>
<rect x="247.18" y="61.5119" width="30.351" height="30.351" stroke="#181A21" stroke-opacity="0.2" stroke-width="0.514423"/>
<rect x="278.046" y="61.5119" width="30.351" height="30.351" stroke="#181A21" stroke-opacity="0.2" stroke-width="0.514423"/>
<rect x="308.911" y="61.5119" width="30.351" height="30.351" stroke="#181A21" stroke-opacity="0.2" stroke-width="0.514423"/>
<rect x="339.777" y="61.5119" width="30.351" height="30.351" stroke="#181A21" stroke-opacity="0.2" stroke-width="0.514423"/>
<rect x="370.642" y="61.5119" width="30.351" height="30.351" stroke="#181A21" stroke-opacity="0.2" stroke-width="0.514423"/>
<rect x="401.507" y="61.5119" width="30.351" height="30.351" stroke="#181A21" stroke-opacity="0.2" stroke-width="0.514423"/>
<rect x="0.257395" y="92.3773" width="30.351" height="30.351" stroke="#181A21" stroke-opacity="0.2" stroke-width="0.514423"/>
<rect x="31.1229" y="92.3773" width="30.351" height="30.351" stroke="#181A21" stroke-opacity="0.2" stroke-width="0.514423"/>
<rect x="61.9881" y="92.3773" width="30.351" height="30.351" stroke="#181A21" stroke-opacity="0.2" stroke-width="0.514423"/>
<rect x="92.8533" y="92.3773" width="30.351" height="30.351" stroke="#181A21" stroke-opacity="0.2" stroke-width="0.514423"/>
<rect x="123.719" y="92.3773" width="30.351" height="30.351" stroke="#181A21" stroke-opacity="0.2" stroke-width="0.514423"/>
<rect x="154.584" y="92.3773" width="30.351" height="30.351" stroke="#181A21" stroke-opacity="0.2" stroke-width="0.514423"/>
<rect x="185.45" y="92.3773" width="30.351" height="30.351" stroke="#181A21" stroke-opacity="0.2" stroke-width="0.514423"/>
<rect x="216.315" y="92.3773" width="30.351" height="30.351" stroke="#181A21" stroke-opacity="0.2" stroke-width="0.514423"/>
<rect x="247.18" y="92.3773" width="30.351" height="30.351" stroke="#181A21" stroke-opacity="0.2" stroke-width="0.514423"/>
<rect x="278.046" y="92.3773" width="30.351" height="30.351" stroke="#181A21" stroke-opacity="0.2" stroke-width="0.514423"/>
<rect x="308.911" y="92.3773" width="30.351" height="30.351" stroke="#181A21" stroke-opacity="0.2" stroke-width="0.514423"/>
<rect x="339.777" y="92.3773" width="30.351" height="30.351" stroke="#181A21" stroke-opacity="0.2" stroke-width="0.514423"/>
<rect x="370.642" y="92.3773" width="30.351" height="30.351" stroke="#181A21" stroke-opacity="0.2" stroke-width="0.514423"/>
<rect x="401.507" y="92.3773" width="30.351" height="30.351" stroke="#181A21" stroke-opacity="0.2" stroke-width="0.514423"/>
<rect x="0.257395" y="123.243" width="30.351" height="30.351" stroke="#181A21" stroke-opacity="0.2" stroke-width="0.514423"/>
<rect x="31.1229" y="123.243" width="30.351" height="30.351" stroke="#181A21" stroke-opacity="0.2" stroke-width="0.514423"/>
<rect x="61.9881" y="123.243" width="30.351" height="30.351" stroke="#181A21" stroke-opacity="0.2" stroke-width="0.514423"/>
<rect x="92.8533" y="123.243" width="30.351" height="30.351" stroke="#181A21" stroke-opacity="0.2" stroke-width="0.514423"/>
<rect x="123.719" y="123.243" width="30.351" height="30.351" stroke="#181A21" stroke-opacity="0.2" stroke-width="0.514423"/>
<rect x="154.584" y="123.243" width="30.351" height="30.351" stroke="#181A21" stroke-opacity="0.2" stroke-width="0.514423"/>
<rect x="185.45" y="123.243" width="30.351" height="30.351" stroke="#181A21" stroke-opacity="0.2" stroke-width="0.514423"/>
<rect x="216.315" y="123.243" width="30.351" height="30.351" stroke="#181A21" stroke-opacity="0.2" stroke-width="0.514423"/>
<rect x="247.18" y="123.243" width="30.351" height="30.351" stroke="#181A21" stroke-opacity="0.2" stroke-width="0.514423"/>
<rect x="278.046" y="123.243" width="30.351" height="30.351" stroke="#181A21" stroke-opacity="0.2" stroke-width="0.514423"/>
<rect x="308.911" y="123.243" width="30.351" height="30.351" stroke="#181A21" stroke-opacity="0.2" stroke-width="0.514423"/>
<rect x="339.777" y="123.243" width="30.351" height="30.351" stroke="#181A21" stroke-opacity="0.2" stroke-width="0.514423"/>
<rect x="370.642" y="123.243" width="30.351" height="30.351" stroke="#181A21" stroke-opacity="0.2" stroke-width="0.514423"/>
<rect x="401.507" y="123.243" width="30.351" height="30.351" stroke="#181A21" stroke-opacity="0.2" stroke-width="0.514423"/>
<rect x="0.257395" y="154.108" width="30.351" height="30.351" stroke="#181A21" stroke-opacity="0.2" stroke-width="0.514423"/>
<rect x="31.1229" y="154.108" width="30.351" height="30.351" stroke="#181A21" stroke-opacity="0.2" stroke-width="0.514423"/>
<rect x="61.9881" y="154.108" width="30.351" height="30.351" stroke="#181A21" stroke-opacity="0.2" stroke-width="0.514423"/>
<rect x="92.8533" y="154.108" width="30.351" height="30.351" stroke="#181A21" stroke-opacity="0.2" stroke-width="0.514423"/>
<rect x="123.719" y="154.108" width="30.351" height="30.351" stroke="#181A21" stroke-opacity="0.2" stroke-width="0.514423"/>
<rect x="154.584" y="154.108" width="30.351" height="30.351" stroke="#181A21" stroke-opacity="0.2" stroke-width="0.514423"/>
<rect x="185.45" y="154.108" width="30.351" height="30.351" stroke="#181A21" stroke-opacity="0.2" stroke-width="0.514423"/>
<rect x="216.315" y="154.108" width="30.351" height="30.351" stroke="#181A21" stroke-opacity="0.2" stroke-width="0.514423"/>
<rect x="247.18" y="154.108" width="30.351" height="30.351" stroke="#181A21" stroke-opacity="0.2" stroke-width="0.514423"/>
<rect x="278.046" y="154.108" width="30.351" height="30.351" stroke="#181A21" stroke-opacity="0.2" stroke-width="0.514423"/>
<rect x="308.911" y="154.108" width="30.351" height="30.351" stroke="#181A21" stroke-opacity="0.2" stroke-width="0.514423"/>
<rect x="339.777" y="154.108" width="30.351" height="30.351" stroke="#181A21" stroke-opacity="0.2" stroke-width="0.514423"/>
<rect x="370.642" y="154.108" width="30.351" height="30.351" stroke="#181A21" stroke-opacity="0.2" stroke-width="0.514423"/>
<rect x="401.507" y="154.108" width="30.351" height="30.351" stroke="#181A21" stroke-opacity="0.2" stroke-width="0.514423"/>
<rect x="0.257395" y="184.974" width="30.351" height="30.351" stroke="#181A21" stroke-opacity="0.2" stroke-width="0.514423"/>
<rect x="31.1229" y="184.974" width="30.351" height="30.351" stroke="#181A21" stroke-opacity="0.2" stroke-width="0.514423"/>
<rect x="61.9881" y="184.974" width="30.351" height="30.351" stroke="#181A21" stroke-opacity="0.2" stroke-width="0.514423"/>
<rect x="92.8533" y="184.974" width="30.351" height="30.351" stroke="#181A21" stroke-opacity="0.2" stroke-width="0.514423"/>
<rect x="123.719" y="184.974" width="30.351" height="30.351" stroke="#181A21" stroke-opacity="0.2" stroke-width="0.514423"/>
<rect x="154.584" y="184.974" width="30.351" height="30.351" stroke="#181A21" stroke-opacity="0.2" stroke-width="0.514423"/>
<rect x="185.45" y="184.974" width="30.351" height="30.351" stroke="#181A21" stroke-opacity="0.2" stroke-width="0.514423"/>
<rect x="216.315" y="184.974" width="30.351" height="30.351" stroke="#181A21" stroke-opacity="0.2" stroke-width="0.514423"/>
<rect x="247.18" y="184.974" width="30.351" height="30.351" stroke="#181A21" stroke-opacity="0.2" stroke-width="0.514423"/>
<rect x="278.046" y="184.974" width="30.351" height="30.351" stroke="#181A21" stroke-opacity="0.2" stroke-width="0.514423"/>
<rect x="308.911" y="184.974" width="30.351" height="30.351" stroke="#181A21" stroke-opacity="0.2" stroke-width="0.514423"/>
<rect x="339.777" y="184.974" width="30.351" height="30.351" stroke="#181A21" stroke-opacity="0.2" stroke-width="0.514423"/>
<rect x="370.642" y="184.974" width="30.351" height="30.351" stroke="#181A21" stroke-opacity="0.2" stroke-width="0.514423"/>
<rect x="401.507" y="184.974" width="30.351" height="30.351" stroke="#181A21" stroke-opacity="0.2" stroke-width="0.514423"/>
<rect x="0.257395" y="215.839" width="30.351" height="30.351" stroke="#181A21" stroke-opacity="0.2" stroke-width="0.514423"/>
<rect x="31.1229" y="215.839" width="30.351" height="30.351" stroke="#181A21" stroke-opacity="0.2" stroke-width="0.514423"/>
<rect x="61.9881" y="215.839" width="30.351" height="30.351" stroke="#181A21" stroke-opacity="0.2" stroke-width="0.514423"/>
<rect x="92.8533" y="215.839" width="30.351" height="30.351" stroke="#181A21" stroke-opacity="0.2" stroke-width="0.514423"/>
<rect x="123.719" y="215.839" width="30.351" height="30.351" stroke="#181A21" stroke-opacity="0.2" stroke-width="0.514423"/>
<rect x="154.584" y="215.839" width="30.351" height="30.351" stroke="#181A21" stroke-opacity="0.2" stroke-width="0.514423"/>
<rect x="185.45" y="215.839" width="30.351" height="30.351" stroke="#181A21" stroke-opacity="0.2" stroke-width="0.514423"/>
<rect x="216.315" y="215.839" width="30.351" height="30.351" stroke="#181A21" stroke-opacity="0.2" stroke-width="0.514423"/>
<rect x="247.18" y="215.839" width="30.351" height="30.351" stroke="#181A21" stroke-opacity="0.2" stroke-width="0.514423"/>
<rect x="278.046" y="215.839" width="30.351" height="30.351" stroke="#181A21" stroke-opacity="0.2" stroke-width="0.514423"/>
<rect x="308.911" y="215.839" width="30.351" height="30.351" stroke="#181A21" stroke-opacity="0.2" stroke-width="0.514423"/>
<rect x="339.777" y="215.839" width="30.351" height="30.351" stroke="#181A21" stroke-opacity="0.2" stroke-width="0.514423"/>
<rect x="370.642" y="215.839" width="30.351" height="30.351" stroke="#181A21" stroke-opacity="0.2" stroke-width="0.514423"/>
<rect x="401.507" y="215.839" width="30.351" height="30.351" stroke="#181A21" stroke-opacity="0.2" stroke-width="0.514423"/>
<path d="M224.88 94.7926C224.695 94.6383 224.561 94.4531 224.479 94.237C224.397 94.0107 224.356 93.8615 224.356 93.7895C224.212 92.133 224.278 90.5126 224.556 88.9282C224.608 88.7121 224.664 88.5167 224.726 88.3418C224.788 88.1668 224.849 88.0794 224.911 88.0794C224.983 88.0794 225.06 88.1 225.143 88.1411C225.225 88.1823 225.297 88.2337 225.359 88.2955C225.42 88.3572 225.467 88.4241 225.498 88.4961C225.539 88.5681 225.559 88.635 225.559 88.6967C225.354 89.705 225.24 90.7132 225.22 91.7215C225.21 92.7195 225.235 93.7175 225.297 94.7155C225.297 94.8183 225.251 94.8801 225.158 94.9006C225.107 94.9109 225.055 94.9058 225.004 94.8852C224.963 94.8543 224.921 94.8235 224.88 94.7926Z" fill="#181A21"/>
<path d="M227.257 58.1401C227.391 58.5722 227.386 58.9786 227.241 59.3593C227.159 59.5651 227.051 59.7914 226.917 60.0383C226.784 60.2853 226.634 60.5373 226.47 60.7945C226.305 61.0415 226.135 61.2832 225.961 61.5199C225.786 61.7462 225.626 61.952 225.482 62.1372C225.667 62.1166 225.894 62.0909 226.161 62.06C226.439 62.0189 226.722 61.9777 227.01 61.9366C227.308 61.8954 227.596 61.8594 227.874 61.8285C228.162 61.7874 228.42 61.7565 228.646 61.7359C228.759 61.7257 228.888 61.7359 229.032 61.7668C229.186 61.7977 229.289 61.8234 229.34 61.844C229.402 61.8748 229.423 61.9314 229.402 62.0137C229.392 62.0857 229.361 62.1629 229.309 62.2452C229.258 62.3275 229.196 62.4047 229.124 62.4767C229.063 62.5384 229.011 62.5693 228.97 62.5693C228.641 62.6207 228.275 62.6773 227.874 62.7391C227.483 62.8008 227.087 62.8625 226.686 62.9243C226.285 62.986 225.889 63.0477 225.498 63.1094C225.117 63.1609 224.772 63.202 224.464 63.2329C224.32 63.2535 224.196 63.1969 224.093 63.0632C224.001 62.9294 223.944 62.7905 223.923 62.6465C223.923 62.6259 223.929 62.5899 223.939 62.5384C223.949 62.487 224.011 62.4047 224.124 62.2915C224.556 61.808 224.978 61.2781 225.39 60.7019C225.811 60.1155 226.141 59.5342 226.377 58.9581C226.408 58.8757 226.418 58.7986 226.408 58.7266C226.398 58.6443 226.377 58.5928 226.346 58.5722C226.295 58.5311 226.228 58.5105 226.146 58.5105C226.074 58.5002 225.986 58.5002 225.883 58.5105C225.739 58.5208 225.59 58.5465 225.436 58.5877C225.282 58.6288 225.127 58.6751 224.973 58.7266C224.829 58.778 224.695 58.8346 224.572 58.8963C224.448 58.9478 224.34 58.9941 224.248 59.0352C224.124 59.0969 224.021 59.1227 223.939 59.1124C223.857 59.1021 223.785 59.0815 223.723 59.0507C223.671 59.0095 223.63 58.9683 223.599 58.9272C223.569 58.886 223.553 58.8552 223.553 58.8346C223.543 58.7832 223.548 58.7163 223.569 58.634C223.589 58.5517 223.61 58.4848 223.63 58.4333C223.723 58.3202 223.867 58.2019 224.062 58.0784C224.268 57.9549 224.5 57.852 224.757 57.7697C225.024 57.6771 225.302 57.6103 225.59 57.5691C225.889 57.528 226.187 57.528 226.485 57.5691C226.681 57.6206 226.84 57.6977 226.964 57.8006C227.097 57.9035 227.195 58.0167 227.257 58.1401Z" fill="#181A21"/>
<path d="M227.365 30.8396C227.262 31.0454 227.118 31.2666 226.933 31.5032C226.748 31.7295 226.532 31.9559 226.285 32.1822C226.048 32.3983 225.791 32.6041 225.513 32.7995C225.246 32.9847 224.978 33.1391 224.711 33.2625C224.628 33.3037 224.53 33.3294 224.417 33.3397C224.304 33.3397 224.212 33.314 224.14 33.2625C223.995 33.1494 223.923 33.0002 223.923 32.815C223.934 32.6298 224.021 32.4857 224.186 32.3829C224.484 32.2388 224.783 32.0639 225.081 31.8582C225.39 31.6524 225.657 31.4415 225.883 31.2254C226.12 30.9991 226.305 30.7779 226.439 30.5618C226.583 30.3355 226.645 30.1297 226.624 29.9445C226.593 29.749 226.511 29.5947 226.377 29.4815C226.244 29.3683 226.074 29.2963 225.868 29.2655C225.673 29.2346 225.446 29.2397 225.189 29.2809C224.932 29.3118 224.675 29.3735 224.417 29.4661C224.335 29.4867 224.258 29.497 224.186 29.497C224.114 29.4867 224.052 29.4507 224.001 29.3889C223.918 29.2757 223.857 29.1523 223.815 29.0185C223.785 28.8848 223.815 28.7716 223.908 28.679C224.083 28.5658 224.273 28.4424 224.479 28.3086C224.685 28.1749 224.875 28.0308 225.05 27.8765C225.225 27.7222 225.364 27.5576 225.467 27.3827C225.58 27.1975 225.621 27.002 225.59 26.7962C225.58 26.7139 225.528 26.647 225.436 26.5956C225.354 26.5442 225.251 26.5082 225.127 26.4876C225.004 26.4567 224.875 26.4516 224.741 26.4721C224.608 26.4824 224.484 26.5082 224.371 26.5493C224.309 26.6007 224.242 26.6368 224.17 26.6573C224.098 26.6779 224.026 26.6882 223.954 26.6882C223.882 26.6882 223.821 26.6779 223.769 26.6573C223.718 26.6265 223.682 26.5905 223.661 26.5493C223.63 26.4979 223.61 26.4258 223.599 26.3332C223.599 26.2304 223.625 26.1481 223.677 26.0863C223.79 25.9217 224.006 25.7931 224.325 25.7005C224.644 25.5976 225.024 25.5719 225.467 25.6233C225.817 25.6851 226.079 25.8291 226.254 26.0555C226.429 26.2818 226.516 26.5493 226.516 26.858C226.516 27.0946 226.454 27.3518 226.331 27.6296C226.218 27.8971 226.043 28.1543 225.806 28.4012C226.094 28.3704 226.352 28.4064 226.578 28.5093C226.804 28.6121 226.989 28.7562 227.133 28.9414C227.339 29.1986 227.468 29.5021 227.519 29.8519C227.571 30.2017 227.519 30.5309 227.365 30.8396Z" fill="#181A21"/>
<path d="M224.314 155.556C224.314 155.608 224.258 155.659 224.145 155.711C224.042 155.762 223.944 155.788 223.851 155.788C223.172 155.798 222.529 155.824 221.922 155.865C221.315 155.906 220.724 155.958 220.148 156.019C220.034 156.03 219.932 155.994 219.839 155.911C219.757 155.829 219.705 155.731 219.685 155.618C219.664 155.515 219.669 155.412 219.7 155.309C219.741 155.196 219.813 155.124 219.916 155.093C220.503 154.98 221.135 154.893 221.814 154.831C222.493 154.769 223.172 154.78 223.851 154.862C223.893 154.872 223.944 154.898 224.006 154.939C224.067 154.97 224.124 155.016 224.176 155.078C224.227 155.129 224.268 155.196 224.299 155.279C224.33 155.361 224.335 155.453 224.314 155.556ZM226.477 158.581C226.292 158.427 226.158 158.242 226.076 158.026C225.993 157.799 225.952 157.65 225.952 157.578C225.808 155.922 225.875 154.301 226.153 152.717C226.204 152.501 226.261 152.305 226.322 152.13C226.384 151.955 226.446 151.868 226.508 151.868C226.58 151.868 226.657 151.889 226.739 151.93C226.821 151.971 226.893 152.022 226.955 152.084C227.017 152.146 227.063 152.213 227.094 152.285C227.135 152.357 227.156 152.424 227.156 152.485C226.95 153.494 226.837 154.502 226.816 155.51C226.806 156.508 226.832 157.506 226.893 158.504C226.893 158.607 226.847 158.669 226.755 158.689C226.703 158.7 226.652 158.694 226.6 158.674C226.559 158.643 226.518 158.612 226.477 158.581Z" fill="#181A21"/>
<path d="M224.314 185.874C224.314 185.925 224.258 185.977 224.145 186.028C224.042 186.08 223.944 186.105 223.851 186.105C223.172 186.116 222.529 186.141 221.922 186.182C221.315 186.224 220.724 186.275 220.148 186.337C220.034 186.347 219.932 186.311 219.839 186.229C219.757 186.146 219.705 186.049 219.685 185.935C219.664 185.833 219.669 185.73 219.7 185.627C219.741 185.514 219.813 185.442 219.916 185.411C220.503 185.298 221.135 185.21 221.814 185.148C222.493 185.087 223.172 185.097 223.851 185.179C223.893 185.19 223.944 185.215 224.006 185.256C224.067 185.287 224.124 185.334 224.176 185.395C224.227 185.447 224.268 185.514 224.299 185.596C224.33 185.678 224.335 185.771 224.314 185.874ZM228.853 183.111C228.987 183.543 228.982 183.95 228.838 184.33C228.756 184.536 228.648 184.763 228.514 185.01C228.38 185.256 228.231 185.509 228.066 185.766C227.902 186.013 227.732 186.254 227.557 186.491C227.382 186.717 227.223 186.923 227.079 187.108C227.264 187.088 227.49 187.062 227.758 187.031C228.036 186.99 228.318 186.949 228.607 186.908C228.905 186.867 229.193 186.831 229.471 186.8C229.759 186.759 230.016 186.728 230.242 186.707C230.356 186.697 230.484 186.707 230.628 186.738C230.783 186.769 230.885 186.795 230.937 186.815C230.999 186.846 231.019 186.903 230.999 186.985C230.988 187.057 230.957 187.134 230.906 187.216C230.855 187.299 230.793 187.376 230.721 187.448C230.659 187.51 230.608 187.54 230.566 187.54C230.237 187.592 229.872 187.649 229.471 187.71C229.08 187.772 228.684 187.834 228.282 187.895C227.881 187.957 227.485 188.019 227.094 188.081C226.713 188.132 226.369 188.173 226.06 188.204C225.916 188.225 225.793 188.168 225.69 188.034C225.597 187.901 225.541 187.762 225.52 187.618C225.52 187.597 225.525 187.561 225.535 187.51C225.546 187.458 225.607 187.376 225.721 187.263C226.153 186.779 226.575 186.249 226.986 185.673C227.408 185.087 227.737 184.505 227.974 183.929C228.005 183.847 228.015 183.77 228.005 183.698C227.994 183.615 227.974 183.564 227.943 183.543C227.891 183.502 227.825 183.482 227.742 183.482C227.67 183.471 227.583 183.471 227.48 183.482C227.336 183.492 227.187 183.518 227.032 183.559C226.878 183.6 226.724 183.646 226.569 183.698C226.425 183.749 226.292 183.806 226.168 183.868C226.045 183.919 225.937 183.965 225.844 184.006C225.721 184.068 225.618 184.094 225.535 184.084C225.453 184.073 225.381 184.053 225.319 184.022C225.268 183.981 225.227 183.94 225.196 183.898C225.165 183.857 225.15 183.826 225.15 183.806C225.139 183.754 225.144 183.687 225.165 183.605C225.186 183.523 225.206 183.456 225.227 183.405C225.319 183.291 225.463 183.173 225.659 183.05C225.865 182.926 226.096 182.823 226.353 182.741C226.621 182.648 226.899 182.581 227.187 182.54C227.485 182.499 227.783 182.499 228.082 182.54C228.277 182.592 228.437 182.669 228.56 182.772C228.694 182.875 228.792 182.988 228.853 183.111Z" fill="#181A21"/>
<path d="M224.314 216.191C224.314 216.242 224.258 216.294 224.145 216.345C224.042 216.397 223.944 216.422 223.851 216.422C223.172 216.433 222.529 216.458 221.922 216.5C221.315 216.541 220.724 216.592 220.148 216.654C220.034 216.664 219.932 216.628 219.839 216.546C219.757 216.464 219.705 216.366 219.685 216.253C219.664 216.15 219.669 216.047 219.7 215.944C219.741 215.831 219.813 215.759 219.916 215.728C220.503 215.615 221.135 215.527 221.814 215.466C222.493 215.404 223.172 215.414 223.851 215.496C223.893 215.507 223.944 215.532 224.006 215.574C224.067 215.604 224.124 215.651 224.176 215.712C224.227 215.764 224.268 215.831 224.299 215.913C224.33 215.995 224.335 216.088 224.314 216.191ZM228.961 216.993C228.859 217.199 228.715 217.42 228.529 217.657C228.344 217.883 228.128 218.11 227.881 218.336C227.645 218.552 227.387 218.758 227.11 218.953C226.842 219.139 226.575 219.293 226.307 219.416C226.225 219.457 226.127 219.483 226.014 219.493C225.901 219.493 225.808 219.468 225.736 219.416C225.592 219.303 225.52 219.154 225.52 218.969C225.53 218.784 225.618 218.64 225.782 218.537C226.081 218.393 226.379 218.218 226.677 218.012C226.986 217.806 227.254 217.595 227.48 217.379C227.717 217.153 227.902 216.932 228.036 216.716C228.18 216.489 228.241 216.283 228.221 216.098C228.19 215.903 228.108 215.748 227.974 215.635C227.84 215.522 227.67 215.45 227.464 215.419C227.269 215.388 227.043 215.394 226.785 215.435C226.528 215.466 226.271 215.527 226.014 215.62C225.932 215.64 225.854 215.651 225.782 215.651C225.71 215.64 225.649 215.604 225.597 215.543C225.515 215.43 225.453 215.306 225.412 215.172C225.381 215.039 225.412 214.925 225.505 214.833C225.679 214.72 225.87 214.596 226.076 214.462C226.281 214.329 226.472 214.185 226.647 214.03C226.821 213.876 226.96 213.711 227.063 213.536C227.176 213.351 227.218 213.156 227.187 212.95C227.176 212.868 227.125 212.801 227.032 212.749C226.95 212.698 226.847 212.662 226.724 212.641C226.6 212.611 226.472 212.605 226.338 212.626C226.204 212.636 226.081 212.662 225.968 212.703C225.906 212.755 225.839 212.791 225.767 212.811C225.695 212.832 225.623 212.842 225.551 212.842C225.479 212.842 225.417 212.832 225.366 212.811C225.314 212.78 225.278 212.744 225.258 212.703C225.227 212.652 225.206 212.58 225.196 212.487C225.196 212.384 225.222 212.302 225.273 212.24C225.386 212.076 225.602 211.947 225.921 211.854C226.24 211.751 226.621 211.726 227.063 211.777C227.413 211.839 227.675 211.983 227.85 212.209C228.025 212.436 228.113 212.703 228.113 213.012C228.113 213.248 228.051 213.506 227.927 213.783C227.814 214.051 227.639 214.308 227.403 214.555C227.691 214.524 227.948 214.56 228.174 214.663C228.401 214.766 228.586 214.91 228.73 215.095C228.936 215.352 229.064 215.656 229.116 216.006C229.167 216.356 229.116 216.685 228.961 216.993Z" fill="#181A21"/>
<path d="M247.515 116.398C247.33 116.244 247.196 116.059 247.114 115.843C247.031 115.616 246.99 115.467 246.99 115.395C246.846 113.739 246.913 112.118 247.191 110.534C247.242 110.318 247.299 110.122 247.361 109.947C247.422 109.773 247.484 109.685 247.546 109.685C247.618 109.685 247.695 109.706 247.777 109.747C247.86 109.788 247.932 109.839 247.993 109.901C248.055 109.963 248.101 110.03 248.132 110.102C248.173 110.174 248.194 110.241 248.194 110.302C247.988 111.311 247.875 112.319 247.855 113.327C247.844 114.325 247.87 115.323 247.932 116.321C247.932 116.424 247.885 116.486 247.793 116.506C247.741 116.517 247.69 116.512 247.638 116.491C247.597 116.46 247.556 116.429 247.515 116.398Z" fill="#181A21"/>
<path d="M279.642 110.611C279.775 111.043 279.77 111.45 279.626 111.83C279.544 112.036 279.436 112.262 279.302 112.509C279.168 112.756 279.019 113.008 278.855 113.265C278.69 113.512 278.52 113.754 278.345 113.991C278.17 114.217 278.011 114.423 277.867 114.608C278.052 114.588 278.278 114.562 278.546 114.531C278.824 114.49 279.107 114.449 279.395 114.408C279.693 114.366 279.981 114.33 280.259 114.299C280.547 114.258 280.804 114.227 281.031 114.207C281.144 114.197 281.272 114.207 281.416 114.238C281.571 114.269 281.674 114.294 281.725 114.315C281.787 114.346 281.807 114.402 281.787 114.485C281.776 114.557 281.746 114.634 281.694 114.716C281.643 114.798 281.581 114.876 281.509 114.948C281.447 115.009 281.396 115.04 281.355 115.04C281.025 115.092 280.66 115.148 280.259 115.21C279.868 115.272 279.472 115.333 279.071 115.395C278.669 115.457 278.273 115.519 277.882 115.58C277.502 115.632 277.157 115.673 276.848 115.704C276.704 115.724 276.581 115.668 276.478 115.534C276.385 115.4 276.329 115.261 276.308 115.117C276.308 115.097 276.313 115.061 276.324 115.009C276.334 114.958 276.396 114.876 276.509 114.762C276.941 114.279 277.363 113.749 277.774 113.173C278.196 112.586 278.525 112.005 278.762 111.429C278.793 111.347 278.803 111.27 278.793 111.198C278.783 111.115 278.762 111.064 278.731 111.043C278.68 111.002 278.613 110.981 278.53 110.981C278.458 110.971 278.371 110.971 278.268 110.981C278.124 110.992 277.975 111.017 277.821 111.059C277.666 111.1 277.512 111.146 277.358 111.198C277.214 111.249 277.08 111.306 276.956 111.367C276.833 111.419 276.725 111.465 276.632 111.506C276.509 111.568 276.406 111.594 276.324 111.583C276.241 111.573 276.169 111.552 276.108 111.522C276.056 111.48 276.015 111.439 275.984 111.398C275.953 111.357 275.938 111.326 275.938 111.306C275.927 111.254 275.933 111.187 275.953 111.105C275.974 111.023 275.994 110.956 276.015 110.904C276.108 110.791 276.252 110.673 276.447 110.549C276.653 110.426 276.884 110.323 277.142 110.241C277.409 110.148 277.687 110.081 277.975 110.04C278.273 109.999 278.572 109.999 278.87 110.04C279.065 110.092 279.225 110.169 279.348 110.272C279.482 110.374 279.58 110.488 279.642 110.611Z" fill="#181A21"/>
<path d="M313.5 114.176C313.397 114.382 313.253 114.603 313.068 114.84C312.882 115.066 312.666 115.292 312.419 115.519C312.183 115.735 311.925 115.94 311.648 116.136C311.38 116.321 311.113 116.475 310.845 116.599C310.763 116.64 310.665 116.666 310.552 116.676C310.439 116.676 310.346 116.65 310.274 116.599C310.13 116.486 310.058 116.337 310.058 116.151C310.068 115.966 310.156 115.822 310.32 115.719C310.619 115.575 310.917 115.4 311.216 115.195C311.524 114.989 311.792 114.778 312.018 114.562C312.255 114.335 312.44 114.114 312.574 113.898C312.718 113.672 312.779 113.466 312.759 113.281C312.728 113.085 312.646 112.931 312.512 112.818C312.378 112.705 312.208 112.633 312.003 112.602C311.807 112.571 311.581 112.576 311.324 112.617C311.066 112.648 310.809 112.71 310.552 112.803C310.47 112.823 310.393 112.833 310.32 112.833C310.248 112.823 310.187 112.787 310.135 112.725C310.053 112.612 309.991 112.489 309.95 112.355C309.919 112.221 309.95 112.108 310.043 112.015C310.218 111.902 310.408 111.779 310.614 111.645C310.819 111.511 311.01 111.367 311.185 111.213C311.36 111.059 311.499 110.894 311.601 110.719C311.715 110.534 311.756 110.338 311.725 110.133C311.715 110.05 311.663 109.983 311.571 109.932C311.488 109.881 311.385 109.845 311.262 109.824C311.138 109.793 311.01 109.788 310.876 109.809C310.742 109.819 310.619 109.845 310.506 109.886C310.444 109.937 310.377 109.973 310.305 109.994C310.233 110.014 310.161 110.025 310.089 110.025C310.017 110.025 309.955 110.014 309.904 109.994C309.852 109.963 309.816 109.927 309.796 109.886C309.765 109.834 309.744 109.762 309.734 109.67C309.734 109.567 309.76 109.484 309.811 109.423C309.924 109.258 310.14 109.13 310.459 109.037C310.778 108.934 311.159 108.908 311.601 108.96C311.951 109.022 312.214 109.166 312.388 109.392C312.563 109.618 312.651 109.886 312.651 110.194C312.651 110.431 312.589 110.688 312.466 110.966C312.352 111.234 312.178 111.491 311.941 111.738C312.229 111.707 312.486 111.743 312.713 111.846C312.939 111.949 313.124 112.093 313.268 112.278C313.474 112.535 313.603 112.839 313.654 113.188C313.705 113.538 313.654 113.867 313.5 114.176Z" fill="#181A21"/>
<path d="M367.828 112.772C368.116 112.772 368.415 112.761 368.723 112.741C369.032 112.72 369.325 112.741 369.603 112.803C369.963 112.885 370.231 113.065 370.405 113.343C370.58 113.62 370.606 113.939 370.483 114.299C370.39 114.557 370.261 114.804 370.097 115.04C369.932 115.277 369.742 115.498 369.526 115.704C369.32 115.91 369.099 116.105 368.862 116.29C368.636 116.475 368.415 116.65 368.199 116.815C368.055 116.908 367.905 116.928 367.751 116.877C367.597 116.815 367.478 116.733 367.396 116.63C367.19 116.393 367.221 116.244 367.489 116.182C368.013 115.791 368.466 115.405 368.847 115.025C369.227 114.634 369.51 114.238 369.696 113.837C369.716 113.764 369.66 113.718 369.526 113.698C369.392 113.677 369.222 113.672 369.016 113.682C368.821 113.692 368.605 113.708 368.368 113.728C368.132 113.749 367.921 113.77 367.736 113.79C367.674 113.8 367.597 113.8 367.504 113.79C367.411 113.78 367.319 113.754 367.226 113.713C367.134 113.672 367.057 113.615 366.995 113.543C366.933 113.461 366.902 113.358 366.902 113.235C366.933 112.422 366.995 111.614 367.087 110.812C367.19 110.009 367.298 109.274 367.411 108.605C367.432 108.502 367.478 108.44 367.55 108.42C367.633 108.399 367.715 108.404 367.797 108.435C367.972 108.517 368.101 108.625 368.183 108.759C368.276 108.883 368.312 109.001 368.291 109.114C368.25 109.32 368.209 109.536 368.168 109.762C368.137 109.989 368.106 110.22 368.075 110.457C368.631 110.405 369.15 110.38 369.634 110.38C370.128 110.369 370.575 110.39 370.976 110.441C371.11 110.462 371.244 110.488 371.378 110.518C371.522 110.539 371.671 110.575 371.825 110.627C371.938 110.647 372.026 110.714 372.088 110.827C372.149 110.93 372.139 111.017 372.057 111.089C371.882 111.172 371.733 111.234 371.609 111.275C371.496 111.306 371.429 111.321 371.409 111.321C370.164 111.259 369.011 111.311 367.952 111.475C367.931 111.712 367.91 111.943 367.89 112.17C367.869 112.386 367.849 112.586 367.828 112.772Z" fill="#181A21"/>
<path d="M401.821 108.543C401.667 108.749 401.492 109.016 401.296 109.346C401.111 109.675 400.926 110.045 400.741 110.457C400.566 110.868 400.401 111.306 400.247 111.769C400.093 112.232 399.974 112.694 399.892 113.157C399.82 113.61 399.789 114.053 399.8 114.485C399.82 114.907 399.908 115.287 400.062 115.627C400.072 115.668 400.098 115.688 400.139 115.688C400.304 115.627 400.468 115.503 400.633 115.318C400.808 115.123 400.957 114.907 401.08 114.67C401.204 114.423 401.296 114.176 401.358 113.929C401.42 113.672 401.43 113.456 401.389 113.281C401.368 113.188 401.296 113.127 401.173 113.096C401.06 113.055 400.942 113.019 400.818 112.988C400.695 112.947 400.592 112.9 400.509 112.849C400.427 112.797 400.417 112.71 400.479 112.586C400.499 112.566 400.535 112.54 400.587 112.509C400.638 112.468 400.705 112.432 400.787 112.401C400.87 112.37 400.962 112.35 401.065 112.34C401.168 112.329 401.281 112.334 401.405 112.355C401.549 112.376 401.687 112.437 401.821 112.54C401.955 112.643 402.048 112.813 402.099 113.049C402.181 113.379 402.197 113.713 402.145 114.053C402.094 114.392 401.991 114.716 401.837 115.025C401.682 115.333 401.487 115.622 401.25 115.889C401.014 116.146 400.756 116.357 400.479 116.522C400.355 116.594 400.226 116.63 400.093 116.63C399.784 116.568 399.537 116.424 399.352 116.198C399.177 115.971 399.048 115.714 398.966 115.426C398.884 115.128 398.838 114.819 398.827 114.5C398.827 114.171 398.838 113.878 398.858 113.62C398.94 112.602 399.182 111.614 399.583 110.657C399.995 109.69 400.525 108.79 401.173 107.957C401.255 107.843 401.348 107.782 401.451 107.771C401.554 107.751 401.646 107.771 401.729 107.833C401.801 107.885 401.857 107.977 401.898 108.111C401.94 108.234 401.914 108.378 401.821 108.543Z" fill="#181A21"/>
<path d="M336.803 113.898C337.102 113.168 337.457 112.458 337.868 111.769C338.29 111.079 338.779 110.385 339.334 109.685C339.427 109.603 339.566 109.536 339.751 109.484C339.946 109.423 340.111 109.428 340.245 109.5C340.265 109.52 340.281 109.536 340.291 109.546C340.301 109.546 340.312 109.557 340.322 109.577C340.332 109.546 340.348 109.49 340.368 109.407C340.42 109.284 340.492 109.186 340.584 109.114C340.677 109.032 340.78 109.006 340.893 109.037C341.068 109.088 341.186 109.171 341.248 109.284C341.32 109.387 341.351 109.515 341.341 109.67C341.217 110.256 341.109 110.858 341.016 111.475C340.934 112.082 340.867 112.736 340.816 113.435C341.124 113.363 341.443 113.302 341.773 113.25C342.102 113.188 342.447 113.132 342.807 113.08C342.868 113.07 342.935 113.07 343.007 113.08C343.09 113.091 343.167 113.106 343.239 113.127C343.321 113.147 343.383 113.178 343.424 113.219C343.475 113.26 343.501 113.312 343.501 113.374C343.501 113.518 343.419 113.651 343.254 113.775C343.09 113.898 342.91 113.981 342.714 114.022C342.385 114.083 342.061 114.15 341.742 114.222C341.423 114.294 341.104 114.372 340.785 114.454C340.775 114.845 340.77 115.246 340.77 115.658C340.78 116.069 340.8 116.501 340.831 116.954C340.842 117.077 340.8 117.175 340.708 117.247C340.625 117.319 340.533 117.35 340.43 117.34C340.286 117.329 340.168 117.247 340.075 117.093C339.982 116.938 339.926 116.774 339.905 116.599C339.854 116.28 339.818 115.966 339.797 115.658C339.777 115.349 339.761 115.035 339.751 114.716C339.453 114.798 339.149 114.881 338.84 114.963C338.532 115.035 338.228 115.107 337.93 115.179C337.704 115.231 337.508 115.22 337.343 115.148C337.189 115.076 337.066 114.973 336.973 114.84C336.88 114.696 336.819 114.541 336.788 114.377C336.767 114.202 336.772 114.042 336.803 113.898ZM340.214 110.055C340.193 110.097 340.168 110.138 340.137 110.179C340.106 110.21 340.08 110.241 340.06 110.272C339.566 110.889 339.118 111.532 338.717 112.201C338.326 112.859 337.997 113.548 337.729 114.269C338.048 114.176 338.372 114.083 338.702 113.991C339.041 113.888 339.391 113.79 339.751 113.698C339.792 112.504 339.946 111.29 340.214 110.055Z" fill="#181A21"/>
<rect x="31.3801" y="203.75" width="80.125" height="28.0865" rx="14.0433" fill="#FFDC8C"/>
<rect x="31.3801" y="203.75" width="80.125" height="28.0865" rx="14.0433" stroke="#181A21" stroke-width="1.02885"/>
<path d="M59.2875 214.466C59.2252 213.913 58.968 213.484 58.5159 213.18C58.0638 212.872 57.4948 212.718 56.8089 212.718C56.3179 212.718 55.8931 212.796 55.5346 212.952C55.176 213.104 54.8974 213.315 54.6986 213.583C54.5038 213.848 54.4063 214.151 54.4063 214.49C54.4063 214.774 54.4726 215.02 54.6051 215.226C54.7415 215.433 54.9188 215.606 55.1371 215.746C55.3592 215.883 55.5969 215.998 55.8502 216.091C56.1036 216.181 56.3471 216.255 56.581 216.313L57.7501 216.617C58.132 216.711 58.5237 216.838 58.9251 216.997C59.3265 217.157 59.6987 217.368 60.0416 217.629C60.3846 217.89 60.6613 218.213 60.8717 218.599C61.086 218.985 61.1932 219.447 61.1932 219.985C61.1932 220.663 61.0178 221.265 60.6671 221.791C60.3203 222.317 59.8156 222.732 59.1531 223.036C58.4944 223.34 57.6975 223.492 56.7622 223.492C55.8658 223.492 55.0903 223.35 54.4356 223.065C53.7809 222.781 53.2684 222.377 52.8981 221.855C52.5279 221.329 52.3233 220.706 52.2843 219.985H54.0965C54.1316 220.417 54.2719 220.778 54.5174 221.066C54.7668 221.35 55.0844 221.563 55.4703 221.703C55.86 221.84 56.2867 221.908 56.7505 221.908C57.261 221.908 57.715 221.828 58.1125 221.668C58.5139 221.504 58.8296 221.278 59.0595 220.99C59.2895 220.698 59.4044 220.357 59.4044 219.967C59.4044 219.612 59.3031 219.322 59.1005 219.096C58.9017 218.87 58.6308 218.683 58.2879 218.535C57.9488 218.387 57.565 218.256 57.1363 218.143L55.7216 217.757C54.7629 217.496 54.003 217.112 53.4418 216.606C52.8845 216.099 52.6059 215.429 52.6059 214.595C52.6059 213.905 52.7929 213.303 53.1671 212.788C53.5412 212.274 54.0478 211.875 54.6869 211.59C55.3261 211.302 56.047 211.158 56.8499 211.158C57.6605 211.158 58.3756 211.3 58.9952 211.584C59.6188 211.869 60.1098 212.26 60.4684 212.759C60.8269 213.254 61.014 213.823 61.0295 214.466H59.2875ZM67.4028 214.314V215.717H62.4983V214.314H67.4028ZM63.8136 212.163H65.5614V220.657C65.5614 220.996 65.6121 221.251 65.7134 221.423C65.8147 221.59 65.9453 221.705 66.1051 221.767C66.2688 221.826 66.4461 221.855 66.637 221.855C66.7773 221.855 66.9001 221.845 67.0053 221.826C67.1105 221.806 67.1924 221.791 67.2508 221.779L67.5665 223.223C67.4652 223.262 67.321 223.301 67.1339 223.34C66.9469 223.383 66.713 223.406 66.4324 223.41C65.9726 223.418 65.5439 223.336 65.1464 223.165C64.7489 222.993 64.4274 222.728 64.1818 222.37C63.9363 222.011 63.8136 221.561 63.8136 221.019V212.163ZM71.9493 223.492C71.3804 223.492 70.8659 223.387 70.4061 223.176C69.9462 222.962 69.5818 222.652 69.3129 222.247C69.0479 221.842 68.9154 221.345 68.9154 220.756C68.9154 220.25 69.0128 219.833 69.2077 219.505C69.4026 219.178 69.6656 218.919 69.9969 218.728C70.3281 218.537 70.6984 218.393 71.1076 218.295C71.5168 218.198 71.9337 218.124 72.3585 218.073C72.8963 218.011 73.3328 217.96 73.668 217.921C74.0031 217.878 74.2467 217.81 74.3987 217.716C74.5507 217.623 74.6267 217.471 74.6267 217.26V217.22C74.6267 216.709 74.4825 216.313 74.1941 216.033C73.9096 215.752 73.4848 215.612 72.9197 215.612C72.3313 215.612 71.8675 215.742 71.5284 216.004C71.1933 216.261 70.9614 216.547 70.8328 216.863L69.1902 216.489C69.385 215.943 69.6695 215.503 70.0436 215.168C70.4217 214.829 70.8562 214.583 71.3472 214.431C71.8383 214.275 72.3546 214.197 72.8963 214.197C73.2549 214.197 73.6349 214.24 74.0363 214.326C74.4416 214.408 74.8196 214.56 75.1703 214.782C75.525 215.004 75.8153 215.322 76.0413 215.735C76.2674 216.144 76.3804 216.676 76.3804 217.331V223.293H74.6734V222.066H74.6033C74.4903 222.292 74.3208 222.514 74.0947 222.732C73.8687 222.95 73.5783 223.131 73.2237 223.276C72.8691 223.42 72.4443 223.492 71.9493 223.492ZM72.3293 222.089C72.8126 222.089 73.2257 221.994 73.5686 221.803C73.9154 221.612 74.1785 221.362 74.3578 221.054C74.5409 220.743 74.6325 220.409 74.6325 220.055V218.897C74.5702 218.96 74.4494 219.018 74.2701 219.073C74.0947 219.123 73.894 219.168 73.668 219.207C73.4419 219.242 73.2218 219.275 73.0074 219.306C72.7931 219.334 72.6138 219.357 72.4696 219.377C72.1306 219.419 71.8207 219.492 71.5401 219.593C71.2634 219.694 71.0413 219.84 70.8737 220.031C70.71 220.218 70.6282 220.468 70.6282 220.78C70.6282 221.212 70.788 221.539 71.1076 221.762C71.4271 221.98 71.8344 222.089 72.3293 222.089ZM78.7084 223.293V214.314H80.3979V215.741H80.4914C80.6551 215.257 80.9435 214.877 81.3566 214.601C81.7736 214.32 82.2451 214.18 82.7712 214.18C82.8803 214.18 83.0089 214.184 83.157 214.191C83.309 214.199 83.4279 214.209 83.5136 214.221V215.893C83.4435 215.873 83.3188 215.852 83.1395 215.828C82.9602 215.801 82.781 215.787 82.6017 215.787C82.1886 215.787 81.8203 215.875 81.4969 216.05C81.1773 216.222 80.924 216.462 80.7369 216.769C80.5498 217.073 80.4563 217.42 80.4563 217.81V223.293H78.7084ZM89.7481 214.314V215.717H84.8435V214.314H89.7481ZM86.1588 212.163H87.9067V220.657C87.9067 220.996 87.9573 221.251 88.0587 221.423C88.16 221.59 88.2905 221.705 88.4503 221.767C88.614 221.826 88.7913 221.855 88.9823 221.855C89.1226 221.855 89.2453 221.845 89.3506 221.826C89.4558 221.806 89.5376 221.791 89.5961 221.779L89.9118 223.223C89.8104 223.262 89.6662 223.301 89.4792 223.34C89.2921 223.383 89.0583 223.406 88.7777 223.41C88.3178 223.418 87.8891 223.336 87.4916 223.165C87.0941 222.993 86.7726 222.728 86.5271 222.37C86.2816 222.011 86.1588 221.561 86.1588 221.019V212.163Z" fill="#181A21"/>
<line x1="-4.11539" y1="122.471" x2="434.173" y2="122.471" stroke="black" stroke-opacity="0.8" stroke-width="1.02885"/>
<line x1="215.543" y1="0.552979" x2="215.543" y2="246.447" stroke="black" stroke-opacity="0.8" stroke-width="1.02885"/>
<path d="M215.543 -185.925C223.363 -185.925 230.945 -181.019 237.957 -171.837C244.961 -162.666 251.302 -149.348 256.641 -132.821C267.315 -99.7756 273.93 -54.0757 273.93 -3.56234C273.93 46.951 267.315 92.6509 256.641 125.696C251.302 142.223 244.961 155.542 237.957 164.712C230.945 173.894 223.363 178.801 215.543 178.801C207.724 178.801 200.142 173.894 193.129 164.712C186.125 155.542 179.785 142.223 174.446 125.696C163.771 92.6509 157.156 46.951 157.156 -3.56233C157.156 -54.0757 163.771 -99.7756 174.446 -132.821C179.785 -149.348 186.125 -162.666 193.129 -171.837C200.142 -181.019 207.724 -185.925 215.543 -185.925Z" stroke="#181A21" stroke-width="1.54327"/>
<circle cx="257.212" cy="122.986" r="4.62981" fill="#FFDC8C" stroke="#181A21" stroke-width="1.02885"/>
<circle cx="215.029" cy="179.572" r="4.62981" fill="#FFDC8C" stroke="#181A21" stroke-width="1.02885"/>
<circle cx="173.875" cy="122.986" r="4.62981" fill="#FFDC8C" stroke="#181A21" stroke-width="1.02885"/>
</g>
<rect x="0.514423" y="1.0674" width="426.971" height="244.865" stroke="#181A21" stroke-width="1.02885"/>
<defs>
<clipPath id="clip0_712_28611">
<rect y="0.552979" width="428" height="245.894" fill="white"/>
</clipPath>
</defs>
</svg>
