<svg width="65" height="59" viewBox="0 0 65 59" fill="none" xmlns="http://www.w3.org/2000/svg">
<path d="M1 8.5564H53.8499" stroke="#181A21" stroke-linecap="round"/>
<path d="M2.77526 7.60915C2.56415 7.78717 2.5365 8.10332 2.71348 8.31529C2.89046 8.52726 3.20507 8.55479 3.41617 8.37677L2.77526 7.60915ZM11.0678 0.616193L2.77526 7.60915L3.41617 8.37677L11.7088 1.38381L11.0678 0.616193Z" fill="#181A21"/>
<path d="M9.77013 7.60915C9.55903 7.78717 9.53137 8.10332 9.70835 8.31529C9.88533 8.52726 10.1999 8.55479 10.411 8.37677L9.77013 7.60915ZM18.0627 0.616193L9.77013 7.60915L10.411 8.37677L18.7036 1.38381L18.0627 0.616193Z" fill="#181A21"/>
<path d="M16.7649 7.60915C16.5538 7.78717 16.5261 8.10332 16.7031 8.31529C16.8801 8.52726 17.1947 8.55479 17.4058 8.37677L16.7649 7.60915ZM25.0575 0.616193L16.7649 7.60915L17.4058 8.37677L25.6984 1.38381L25.0575 0.616193Z" fill="#181A21"/>
<path d="M24.2095 7.96874C23.9984 8.14676 23.9707 8.46291 24.1477 8.67488C24.3247 8.88685 24.6393 8.91437 24.8504 8.73636L24.2095 7.96874ZM30.4099 2.74009L24.2095 7.96874L24.8504 8.73636L31.0508 3.50771L30.4099 2.74009Z" fill="#181A21"/>
<path d="M30.7546 7.60915C30.5435 7.78717 30.5159 8.10332 30.6928 8.31529C30.8698 8.52726 31.1844 8.55479 31.3955 8.37677L30.7546 7.60915ZM39.0472 0.616193L30.7546 7.60915L31.3955 8.37677L39.6881 1.38381L39.0472 0.616193Z" fill="#181A21"/>
<path d="M37.7495 7.60915C37.5384 7.78717 37.5107 8.10332 37.6877 8.31529C37.8647 8.52726 38.1793 8.55479 38.3904 8.37677L37.7495 7.60915ZM46.0421 0.616193L37.7495 7.60915L38.3904 8.37677L46.683 1.38381L46.0421 0.616193Z" fill="#181A21"/>
<path d="M44.7443 7.60915C44.5331 7.78717 44.5055 8.10332 44.6825 8.31529C44.8595 8.52726 45.1741 8.55479 45.3852 8.37677L44.7443 7.60915ZM53.0368 0.616193L44.7443 7.60915L45.3852 8.37677L53.6778 1.38381L53.0368 0.616193Z" fill="#181A21"/>
<path d="M12.6581 48.6414L12.6581 8.80653" stroke="#181A21" stroke-linecap="round"/>
<path d="M27.4249 48.6414L27.4249 8.80653" stroke="#181A21" stroke-linecap="round"/>
<path d="M56.5604 47.3651L43.083 8.80642" stroke="#181A21" stroke-linecap="round"/>
<path d="M18.3757 52.1562C18.3757 55.5491 15.6395 58.2954 12.2694 58.2954C8.8994 58.2954 6.16321 55.5491 6.16321 52.1562C6.16321 48.7633 8.8994 46.0171 12.2694 46.0171C15.6395 46.0171 18.3757 48.7633 18.3757 52.1562Z" fill="#FFDC8C" stroke="#181A21"/>
<path d="M33.9198 52.1562C33.9198 55.5491 31.1836 58.2954 27.8135 58.2954C24.4435 58.2954 21.7073 55.5491 21.7073 52.1562C21.7073 48.7633 24.4435 46.0171 27.8135 46.0171C31.1836 46.0171 33.9198 48.7633 33.9198 52.1562Z" fill="#FFDC8C" stroke="#181A21"/>
<path d="M32.0882 53.3278C32.0882 54.3693 31.311 56.4521 28.2021 56.4521" stroke="#181A21" stroke-linecap="round"/>
<path d="M63.7125 49.6391C63.7125 53.032 60.9763 55.7783 57.6062 55.7783C54.2362 55.7783 51.5 53.032 51.5 49.6391C51.5 46.2462 54.2362 43.5 57.6062 43.5C60.9763 43.5 63.7125 46.2462 63.7125 49.6391Z" fill="#ADD2FF" stroke="#181A21"/>
<path d="M16.5441 53.3278C16.5441 54.3693 15.7669 56.4521 12.6581 56.4521" stroke="#181A21" stroke-linecap="round"/>
<path d="M61.6826 50.2034C61.8432 51.1685 61.3979 53.2274 58.3317 53.7428" stroke="#181A21" stroke-linecap="round"/>
</svg>
